<svg width="80" height="80" viewBox="0 0 80 80" fill="none" xmlns="http://www.w3.org/2000/svg">
<mask id="mask0_1_18477" style="mask-type:alpha" maskUnits="userSpaceOnUse" x="0" y="0" width="80" height="80">
<rect width="80" height="80" fill="white"/>
</mask>
<g mask="url(#mask0_1_18477)">
<path fill-rule="evenodd" clip-rule="evenodd" d="M37.4514 1.1669C37.022 1.41668 36.8276 2.06739 37.0336 2.56476C37.2316 3.0429 37.7698 3.33785 38.4443 3.33785H38.9059V5.98178V8.62556L37.6945 8.72497C35.1506 8.93349 32.944 9.32675 29.6911 10.1514C25.9261 11.1058 23.9749 11.4643 22.54 11.4652C21.4027 11.466 20.8747 11.6679 20.6351 12.1937C20.3911 12.7294 20.416 12.9287 20.7856 13.3986C21.0267 13.7051 21.2513 13.8104 21.6635 13.8104C22.1147 13.8104 22.2038 13.8611 22.1443 14.084C22.1039 14.2345 21.0997 16.6247 19.9124 19.3959C18.3962 22.935 17.6683 24.4615 17.4665 24.5256C16.9724 24.6824 16.3647 25.6419 16.2792 26.4002C16.1189 27.8221 17.0677 28.9344 19.4456 30.1126C22.4159 31.5842 25.9539 31.5267 28.9386 29.9582C30.8437 28.9572 31.8775 27.7976 31.8686 26.6717C31.8631 25.9714 31.3104 24.9423 30.7601 24.6076C30.3087 24.3332 30.0128 23.7314 27.9661 18.9259L25.677 13.5513L29.517 12.5889C33.6882 11.5435 35.6415 11.1873 37.5772 11.1191L38.8277 11.075V12.0129V12.9507L38.1243 12.9939C36.9508 13.0659 33.7079 13.4987 33.0751 13.668C31.9169 13.9777 31.5599 14.7783 32.2111 15.6061C32.5243 16.0043 32.6128 16.0306 33.3751 15.9518L34.2001 15.8666L34.2568 26.0536L34.3136 36.2405L34.72 37.8817C34.9433 38.7844 35.2012 39.7163 35.2928 39.9528L35.4593 40.3826H34.1174H32.7753L31.7376 39.6264C31.1668 39.2105 29.4807 37.9795 27.9909 36.891C25.3798 34.9831 25.254 34.9119 24.5028 34.9119C23.6089 34.9119 23.3764 35.0152 22.1419 35.961C21.3273 36.5851 21.2432 36.7049 21.2432 37.2413C21.2432 38.4582 22.3382 38.7208 23.5878 37.8035C23.9976 37.5027 24.3834 37.2565 24.4448 37.2565C24.5062 37.2565 29.4707 40.8614 35.4769 45.2672L46.3972 53.2779L44.4637 53.3215L42.5301 53.3652L33.8795 47.0122C29.1218 43.518 25.0658 40.5835 24.8664 40.4908C24.6144 40.3739 24.3756 40.3715 24.0848 40.483C23.8544 40.5713 19.7717 43.5038 15.012 46.9997L6.3582 53.3561H4.39092C3.27879 53.3561 2.48835 53.2975 2.57229 53.2214C2.65404 53.1473 6.4487 50.36 11.0051 47.0275C15.5614 43.6951 19.408 40.8543 19.553 40.7146C19.6981 40.575 19.8634 40.2691 19.9206 40.0348C20.0044 39.6916 19.933 39.5173 19.5518 39.1361C19.2917 38.876 18.9417 38.6632 18.7738 38.6632C18.6061 38.6632 17.9391 39.0501 17.2916 39.5229L16.1144 40.3826H11.1934C6.58266 40.3826 6.2491 40.4014 5.90335 40.6812C5.53743 40.9772 5.53384 41.0105 5.48694 44.5952L5.43974 48.2109L3.46496 49.6502C2.37878 50.4419 1.2257 51.3229 0.902772 51.608C-0.0957176 52.4892 -0.268124 53.7481 0.467925 54.7821C0.9964 55.5241 1.60772 55.7007 3.64784 55.7007H5.44443L5.48944 61.1072L5.5343 66.5139L5.90335 66.8124C6.40306 67.2169 7.04611 67.1908 7.46095 66.7494C7.79654 66.3919 7.80076 66.3188 7.80638 60.7707L7.81201 55.1536L15.3977 49.6047C19.5699 46.5528 23.0491 44.0324 23.1293 44.0038C23.2145 43.9733 23.2752 44.7601 23.2752 45.8974C23.2752 47.6292 23.3108 47.8885 23.5992 48.255C24.0226 48.7935 24.714 48.8054 25.236 48.2832C25.6027 47.9166 25.6198 47.8122 25.6198 45.9385C25.6198 44.86 25.6607 43.9777 25.7109 43.9777C25.7964 43.9777 38.234 53.0685 40.1954 54.5645L41.0941 55.2501V66.026V76.8021H36.8739H32.6536L32.6509 67.6973C32.6487 60.4859 32.6025 58.3771 32.4288 57.5573C31.7334 54.2771 28.9235 51.6508 25.5766 51.1531C21.8202 50.5943 18.0672 52.8751 16.6785 56.5604C16.3275 57.4917 16.3246 57.5658 16.2765 67.1502L16.2279 76.8021H12.0143H7.80076V73.453V70.1036L7.38889 69.7797C6.91903 69.4101 6.71974 69.3852 6.18407 69.6292C5.53556 69.9248 5.45615 70.3659 5.45615 73.6724V76.7801L3.01917 76.8303C0.675814 76.8784 0.570776 76.8945 0.283796 77.2493C-0.102908 77.7275 -0.0944672 78.2216 0.30943 78.7349L0.633298 79.1468H28.3392H56.0451L56.385 78.7851C56.8358 78.305 56.8182 77.6629 56.3411 77.1859L55.9575 76.8021H49.6188H43.2803L43.3204 66.2905L43.3606 55.7789L57.7799 55.739L72.1992 55.6991V56.8722V58.0453H60.1847C48.2666 58.0453 48.1669 58.048 47.7583 58.3693L47.3464 58.6932V65.4813C47.3464 72.0609 47.356 72.2788 47.659 72.5819C47.9663 72.8892 48.18 72.8945 60.0854 72.8945H72.1992V74.8483V76.8021H66.1888C62.0546 76.8021 60.0573 76.8573 59.7908 76.9788C58.9977 77.34 58.9272 78.5797 59.6769 78.9809C59.8857 79.0927 63.1453 79.1468 69.6768 79.1468H79.3667L79.6906 78.7349C80.0945 78.2216 80.1029 77.7275 79.7162 77.2493C79.4292 76.8945 79.3242 76.8784 76.9808 76.8303L74.5438 76.7801V66.2405V55.7007H76.3464C78.4171 55.7007 79.0017 55.5263 79.5615 54.7414C79.8572 54.3269 79.9364 54.0174 79.9364 53.2779C79.9364 52.379 79.8216 52.1064 77.1707 46.713C75.6497 43.6182 74.2658 40.9278 74.0956 40.7343L73.7859 40.3826H67.5116C63.3877 40.3826 61.131 40.4395 60.9273 40.5485C60.1764 40.9503 60.2618 42.2814 61.0578 42.584C61.2649 42.6628 63.9498 42.7272 67.0242 42.7272H72.6141L75.142 47.9022C76.5324 50.7484 77.67 53.1399 77.67 53.2167C77.67 53.2973 71.9245 53.3534 64.0322 53.3498L50.3944 53.3437L43.2352 48.0745L36.0759 42.8054L46.7268 42.7272L57.3777 42.6491L57.6766 42.28C58.0811 41.7803 58.055 41.1373 57.6136 40.7224C57.2544 40.385 57.2064 40.3826 50.8962 40.3826H44.5407L44.7072 39.9528C44.7988 39.7164 45.0567 38.7844 45.28 37.8817L45.6864 36.2405L45.7432 26.0536L45.7999 15.8666L46.6249 15.9518C47.3872 16.0306 47.4757 16.0043 47.7889 15.6061C48.4406 14.7776 48.0814 13.9736 46.9249 13.6719C46.1813 13.478 44.24 13.211 42.5009 13.0634L41.1723 12.9507V12.0129V11.075L42.4228 11.1191C44.3585 11.1873 46.3118 11.5435 50.4838 12.589L54.3246 13.5516L52.3873 18.0967C51.3218 20.5965 50.2913 23.015 50.0973 23.4713C49.863 24.022 49.5747 24.404 49.2398 24.6078C48.6896 24.9423 48.1369 25.9716 48.1314 26.6717C48.1225 27.7976 49.1563 28.9572 51.0614 29.9582C52.6287 30.7818 54.17 31.161 55.9402 31.1582C58.4222 31.1544 60.3787 30.5087 62.3117 29.0557C63.4309 28.2143 63.8387 27.4459 63.7208 26.4002C63.6353 25.6419 63.0276 24.6824 62.5335 24.5256C62.3317 24.4615 61.6038 22.935 60.0876 19.3959C58.9003 16.6247 57.8961 14.2345 57.8557 14.084C57.7962 13.8611 57.8853 13.8104 58.3365 13.8104C58.7487 13.8104 58.9733 13.7051 59.2144 13.3986C59.584 12.9287 59.6089 12.7294 59.3649 12.1937C59.1267 11.6712 58.5979 11.4658 57.4898 11.4658C56.0416 11.4658 54.6178 11.2062 50.6057 10.2104C47.0358 9.32441 44.8538 8.9338 42.3055 8.72497L41.0941 8.62556V5.98178V3.33785H41.5557C42.2302 3.33785 42.7684 3.0429 42.9664 2.56476C43.1783 2.05285 42.9708 1.40105 42.5187 1.15909C42.1139 0.942445 37.8258 0.94901 37.4514 1.1669ZM38.9059 25.482C38.9059 34.6688 38.9295 35.6167 39.1645 35.8764C39.4915 36.2378 40.422 36.2533 40.8083 35.9036C41.0796 35.6581 41.0941 35.1301 41.0941 25.5092V15.3735L41.9929 15.3757C42.4873 15.3768 43.0569 15.4219 43.259 15.476L43.6262 15.5743L43.5554 25.2041C43.4781 35.69 43.4327 36.2989 42.5195 39.054L42.105 40.3045H40H37.895L37.4805 39.054C36.5703 36.3077 36.5239 35.6879 36.445 25.1963C36.3749 15.909 36.3827 15.5564 36.6621 15.4843C36.8215 15.4434 37.3917 15.4016 37.9289 15.3916L38.9059 15.3735V25.482ZM25.8101 19.7923C26.7314 21.9612 27.5303 23.8589 27.5853 24.0095C27.6786 24.265 27.4471 24.283 24.0734 24.283C22.0869 24.283 20.4616 24.2336 20.4616 24.1733C20.4616 23.9593 23.9521 15.8424 24.0428 15.8455C24.0934 15.8473 24.8887 17.6232 25.8101 19.7923ZM57.7938 19.953C58.7534 22.2136 59.5384 24.1128 59.5384 24.1733C59.5384 24.2336 57.9131 24.283 55.9266 24.283C52.5519 24.283 52.3215 24.265 52.4175 24.0095C52.8791 22.7807 55.8853 15.8463 55.9572 15.8446C56.0079 15.8433 56.8344 17.6921 57.7938 19.953ZM29.4029 26.7057C29.4615 26.9957 27.4765 28.1874 26.3803 28.5203C24.8392 28.9885 22.5307 28.8955 21.1033 28.3077C19.9328 27.8257 18.5867 26.9471 18.5863 26.6646C18.5858 26.413 29.3519 26.4538 29.4029 26.7057ZM61.4137 26.6667C61.4133 26.9472 60.0637 27.8271 58.8967 28.3077C57.0121 29.0836 54.1605 28.9645 52.3529 28.0344C51.4579 27.5737 50.4533 26.7852 50.554 26.6223C50.705 26.378 61.4141 26.4217 61.4137 26.6667ZM12.7765 42.8055C12.5292 43.0526 8.01521 46.3179 7.91799 46.3199C7.85343 46.3212 7.80076 45.5134 7.80076 44.5247V42.7272H10.3278C11.7175 42.7272 12.8195 42.7624 12.7765 42.8055ZM26.6065 53.8275C27.7962 54.2727 29.0638 55.4475 29.6758 56.6718C29.9381 57.1969 30.1527 57.7207 30.1527 57.8359C30.1527 58.0072 29.1124 58.0453 24.4475 58.0453C19.9874 58.0453 18.7422 58.0026 18.7424 57.8499C18.7424 57.7425 18.9431 57.2325 19.1885 56.7167C19.6577 55.7296 20.79 54.5392 21.7266 54.0482C23.1396 53.3073 24.9923 53.2235 26.6065 53.8275ZM35.6726 58.1993C35.0574 58.4533 34.9982 58.8209 34.9982 62.3905C34.9982 65.6218 35.0168 65.8421 35.3222 66.2303C35.7484 66.7722 36.437 66.7807 36.9673 66.2503L37.359 65.8585L37.3118 62.2698C37.2609 58.4015 37.2421 58.3157 36.4049 58.1403C36.19 58.0952 35.8605 58.1217 35.6726 58.1993ZM30.309 68.596V76.8021H24.4475H18.5859V68.596V60.3899H24.4475H30.309V68.596ZM59.6947 62.3437V64.2976H54.6147H49.5347V62.448C49.5347 61.4306 49.5816 60.5514 49.639 60.4942C49.6962 60.4368 51.9822 60.3899 54.719 60.3899H59.6947V62.3437ZM72.1992 62.3437V64.2976H67.1193H62.0393V62.3437V60.3899H67.1193H72.1992V62.3437ZM59.6947 68.596V70.5499H54.6147H49.5347V68.7003C49.5347 67.6829 49.5816 66.8037 49.639 66.7464C49.6962 66.6891 51.9822 66.6422 54.719 66.6422H59.6947V68.596ZM72.1992 68.596V70.5499H67.1193H62.0393V68.596V66.6422H67.1193H72.1992V68.596Z" fill="#94B0D5"/>
</g>
</svg>
