<svg width="80" height="80" viewBox="0 0 80 80" fill="none" xmlns="http://www.w3.org/2000/svg">
<mask id="mask0_1_18435" style="mask-type:alpha" maskUnits="userSpaceOnUse" x="0" y="0" width="80" height="80">
<rect width="80" height="80" fill="white"/>
</mask>
<g mask="url(#mask0_1_18435)">
<path fill-rule="evenodd" clip-rule="evenodd" d="M37.9686 0.0913463C36.7028 0.226801 34.8402 0.670663 33.6945 1.10984C31.3649 2.00303 29.6876 3.10917 28.0807 4.81227C25.5746 7.46841 24.4288 10.742 24.5526 14.8931L24.6081 16.7576L23.3145 17.2773C21.5759 17.9756 19.2445 18.5681 17.7869 18.6817L16.5913 18.7749L16.3555 18.3234C15.3415 16.3816 12.4992 15.9286 10.8763 17.4504C9.45913 18.779 9.50585 21.2926 10.9714 22.5794L11.5259 23.0659L9.49194 26.7605C8.31294 28.9023 7.45818 30.6304 7.45818 30.8728C7.45818 31.333 8.11745 32.0109 8.56499 32.0109C9.14301 32.0109 9.57429 31.4197 11.3549 28.1858C12.3702 26.342 13.236 24.8338 13.279 24.8342C13.3526 24.8348 21.4233 39.3357 21.5348 39.6676C21.5689 39.7689 18.7062 39.8226 13.292 39.8226C8.72985 39.8226 4.99703 39.7809 4.99703 39.7298C4.99703 39.6789 5.52442 38.6943 6.16901 37.5421C7.41692 35.3112 7.56506 34.7347 7.02845 34.1982C6.64217 33.812 5.87148 33.7926 5.50442 34.1596C5.35378 34.3102 4.54496 35.6727 3.70724 37.1873C2.49182 39.3844 2.09288 39.9789 1.73363 40.1276C0.799176 40.5146 -0.00698619 41.769 4.56598e-05 42.8251C0.00520235 43.5855 0.502588 44.545 1.18186 45.1048C2.61542 46.2862 5.33784 47.3792 8.35294 47.9838C10.8452 48.4836 15.7128 48.4836 18.205 47.9838C21.2201 47.3792 23.9425 46.2862 25.3761 45.1048C27.1323 43.6574 26.8358 41.1458 24.7851 40.101C24.4249 39.9176 23.4245 38.2256 19.6839 31.4739L15.0309 23.075L15.6212 22.5417C15.9458 22.2485 16.2944 21.8085 16.3957 21.5639C16.5715 21.1398 16.6394 21.1145 17.8594 21.0195C19.4579 20.8952 21.8527 20.3202 23.7578 19.6033C24.5607 19.3013 25.2292 19.0693 25.2434 19.0879C25.2577 19.1065 25.5585 19.7434 25.9121 20.5033C26.7683 22.3436 27.666 23.5672 29.2839 25.0985C30.9991 26.7216 32.8002 27.8518 35.6637 29.1018L36.5622 29.494V34.1202V38.7465L35.82 39.0577C33.0961 40.1996 32.6991 40.5155 32.8906 41.3881C32.966 41.7309 33.1502 41.9455 33.5209 42.1222C34.0281 42.3641 34.0795 42.3564 35.1485 41.8785C35.7557 41.607 36.3222 41.385 36.4073 41.385C36.4986 41.385 36.5616 41.9784 36.5608 42.8301L36.5592 44.2753L35.3115 44.8752C33.2824 45.8511 32.4994 46.9911 32.4994 48.9701C32.4994 51.3201 33.8324 52.3912 39.2968 54.4315C43.45 55.9823 44.7992 56.7889 45.4836 58.1303C45.8421 58.8327 45.9052 59.9889 45.6305 60.821C45.46 61.3373 43.9091 62.9453 43.5814 62.9453C43.5025 62.9453 43.4378 62.233 43.4378 61.3623C43.4378 58.9205 43.1584 58.6395 39.3749 57.2743C34.333 55.4551 31.8835 53.9804 30.629 52.0089C30.0354 51.0757 29.809 50.1544 29.8185 48.7102C29.8277 47.2909 30.1826 46.1667 30.9935 44.9882C31.6485 44.036 31.6849 43.7708 31.2379 43.2028C30.758 42.5927 29.9709 42.6328 29.3582 43.2988C28.777 43.9303 28.0288 45.4229 27.7294 46.5477C27.3925 47.8139 27.4314 50.1952 27.8091 51.4179C28.6436 54.1188 30.8994 56.2094 34.9438 58.0297L36.4841 58.7231L36.5278 60.4884L36.5716 62.2535L35.9028 62.5806C34.7177 63.1601 33.358 64.2806 32.7856 65.1491C32.0467 66.2706 31.8234 67.0168 31.8227 68.3651C31.8223 69.3143 31.8999 69.6463 32.3236 70.5067C32.9249 71.7278 33.7012 72.4386 35.3384 73.2663L36.5366 73.8723L36.5885 75.8031C36.6367 77.5999 36.6699 77.7783 37.0666 78.377C38.0658 79.8847 40.1997 80.3763 41.7614 79.4585C42.6448 78.9393 43.2447 78.0994 43.4056 77.1562L43.5222 76.4736L44.1646 77.0537C44.5177 77.3729 45.0612 78.118 45.372 78.7095C46.0841 80.064 46.5784 80.2984 47.3852 79.6638C47.6846 79.4283 47.8224 79.1124 47.9532 78.3622C48.591 74.6996 47.3719 71.7206 44.4583 69.8227L43.4378 69.158V67.3881V65.6183L44.5284 65.0454C45.8963 64.3267 47.1137 63.1406 47.6383 62.0157C48.2198 60.769 48.2896 58.8598 47.8018 57.5552C47.3628 56.3819 45.8421 54.8152 44.4144 54.0657L43.4378 53.553V49.2072V44.8613L44.8832 44.3581C49.9966 42.578 52.4079 40.3773 53.2141 36.7543C53.5722 35.1451 53.4652 32.4848 52.9866 31.0987C51.9634 28.1349 49.3031 25.7347 45.2754 24.1413L43.7791 23.5491L44.106 22.8197C44.5149 21.9068 44.5421 20.3265 44.1639 19.4472C43.9127 18.8627 43.9142 18.8209 44.1986 18.5098C44.5799 18.093 45.1567 16.947 45.1567 16.6065C45.1567 16.3749 45.2939 16.3569 46.3374 16.4514C48.2265 16.6225 50.1971 17.2029 54.0196 18.7137C57.8354 20.2217 60.0809 20.8594 62.1406 21.0195C63.3606 21.1145 63.4285 21.1398 63.6043 21.5639C63.7056 21.8085 64.0544 22.2486 64.3793 22.542L64.9699 23.0756L60.2986 31.508C56.352 38.6326 55.5576 39.9695 55.1764 40.1273C54.2412 40.5146 53.435 41.7687 53.4421 42.8251C53.4472 43.5849 53.9437 44.5433 54.6295 45.1173C55.4576 45.8102 58.1017 47.0725 59.5637 47.473C62.3324 48.231 65.9064 48.5732 68.6584 48.3435C69.8189 48.2466 70.1094 48.1666 70.4163 47.8598C70.857 47.4192 70.8878 46.8599 70.4977 46.3782C70.218 46.0329 70.1363 46.0244 66.8646 45.9983C63.1185 45.9683 61.5198 45.7283 59.0282 44.8223C57.4018 44.2308 55.7826 43.2348 55.7826 42.8258C55.7826 42.1604 55.6873 42.1661 66.721 42.1661C77.7362 42.1661 77.6594 42.1616 77.6594 42.8181C77.6594 43.2073 76.2615 44.1092 74.7686 44.6834C73.2034 45.2852 72.9715 45.4872 72.9715 46.2489C72.9715 47.0327 73.4772 47.4 74.3881 47.2778C75.1794 47.1717 78.0084 45.7902 78.8125 45.1173C79.4984 44.5433 79.9948 43.5849 80 42.8251C80.007 41.7684 79.2008 40.5146 78.265 40.127C77.8832 39.9689 77.0906 38.6357 73.1397 31.5066L68.4659 23.0732L69.0243 22.583C69.7538 21.9426 70.1512 21.0405 70.1554 20.015C70.1637 18.0094 68.7379 16.5555 66.7551 16.5472C65.4061 16.5416 64.2219 17.2177 63.6445 18.3234L63.4087 18.7749L62.2131 18.6813C60.3936 18.5387 58.3233 17.9456 55.1489 16.6575C53.5637 16.0141 51.5986 15.2756 50.7822 15.0162C49.2644 14.5341 46.7668 14.044 45.8274 14.044C45.463 14.044 45.2786 13.9606 45.2226 13.7706C44.9725 12.9216 44.2355 11.7599 43.5647 11.1569C41.5658 9.35994 38.4342 9.35994 36.4353 11.1569C35.7645 11.7599 35.0275 12.9216 34.7774 13.7706C34.7214 13.9606 34.537 14.044 34.1726 14.044C33.1658 14.044 30.6883 14.5544 28.8719 15.1359C27.8652 15.4582 27.0039 15.6841 26.9576 15.6381C26.9115 15.592 26.8739 14.9303 26.8739 14.1676C26.8739 8.56439 30.4426 4.17437 36.1219 2.79139C38.8094 2.13708 42.7813 2.2316 46.3366 3.0348C47.7575 3.35586 48.1554 3.38882 49.1237 3.26602C51.1067 3.01464 53.0195 3.44726 54.6856 4.52402C56.2976 5.56564 57.6076 7.0922 58.3716 8.81906C58.8677 9.94097 58.8652 10.602 58.3626 11.0738C58.0198 11.396 57.7817 11.4477 56.3492 11.5114C53.7515 11.6269 51.5007 10.9473 49.6957 9.50227C48.9626 8.91545 47.8219 7.40607 47.4606 6.54475C47.1212 5.73562 46.7665 5.50314 45.4692 5.23879C39.619 4.04688 35.353 4.80384 32.3778 7.56168C31.253 8.60439 30.1554 10.2655 30.1554 10.9254C30.1554 11.5088 30.6889 12.013 31.3063 12.013C31.8871 12.013 32.222 11.7053 32.86 10.5859C33.7513 9.022 35.7648 7.69933 37.9686 7.23047C39.2731 6.95284 41.9366 7.00283 44.0972 7.34546L45.3037 7.53669L45.8942 8.5533C46.622 9.80583 48.231 11.4475 49.4158 12.1465C51.6532 13.4662 53.6104 13.9484 56.3295 13.8498C58.5256 13.77 59.2974 13.5048 60.1781 12.5271C61.3367 11.2412 61.3942 9.75021 60.3674 7.62293C59.0913 4.97929 57.2954 3.15588 54.7669 1.9371C52.9806 1.07593 52.0917 0.897515 49.7665 0.933136C48.3879 0.954384 47.4567 0.874704 46.2505 0.632698C43.4914 0.0790038 40.1352 -0.140349 37.9686 0.0913463ZM52.0349 5.80749C51.58 6.03856 51.3217 6.65818 51.46 7.18688C51.5991 7.71854 53.519 9.35697 54.0029 9.35697C54.5375 9.35697 55.1575 8.69922 55.1575 8.13209C55.1575 7.76994 54.9441 7.47466 54.136 6.71896C53.5743 6.19354 53.0527 5.76358 52.9769 5.76358C52.9011 5.76358 52.7455 5.72921 52.6311 5.68703C52.5165 5.645 52.2482 5.69922 52.0349 5.80749ZM41.3728 12.4438C43.1043 13.236 43.592 15.7082 42.2972 17.1296C41.9974 17.4588 41.8511 17.4811 40 17.4811C38.1489 17.4811 38.0026 17.4588 37.7028 17.1296C36.5905 15.9087 36.7235 13.974 37.9945 12.8863C38.9794 12.0434 40.1594 11.8889 41.3728 12.4438ZM34.8433 16.6281C34.8433 16.9468 35.4291 18.1028 35.792 18.4998C36.0678 18.8016 36.0689 18.8496 35.8146 19.5934C35.6685 20.0214 35.5327 20.3988 35.5129 20.4323C35.4537 20.5324 34.3575 19.6512 33.7046 18.9787C33.1424 18.3995 32.3431 17.0706 32.3431 16.7151C32.3431 16.5517 32.9213 16.4522 34.1011 16.4125C34.676 16.3931 34.8433 16.4417 34.8433 16.6281ZM31.4849 20.0481C32.7513 21.711 35.7962 23.5304 38.9494 24.5081C43.4333 25.8984 44.1943 26.165 45.518 26.8091C48.2009 28.1146 49.5871 29.3357 50.507 31.2038C50.9376 32.0786 51.0022 32.3871 51.063 33.8618C51.2311 37.9411 49.6729 40.0401 45.1917 41.7704C44.4054 42.074 43.6891 42.3224 43.6 42.3224C43.4994 42.3224 43.4378 41.7618 43.4378 40.8457V39.3688L44.7621 38.722C46.1597 38.0392 47.1523 37.2099 47.5941 36.3558C47.9997 35.5717 48.0643 33.9393 47.7296 32.9318C47.158 31.2112 45.0401 29.6926 41.797 28.6778C37.8393 27.4395 36.8138 27.078 35.4965 26.4573C31.7632 24.6981 29.0666 22.1257 27.8704 19.1825C27.6552 18.6529 27.5363 18.1662 27.6061 18.1009C27.6761 18.0356 28.221 17.8091 28.8172 17.5972L29.901 17.2123L30.4592 18.3231C30.7662 18.9341 31.2278 19.7103 31.4849 20.0481ZM14.1242 19.1839C14.5061 19.6061 14.4908 20.401 14.0931 20.7988C13.6868 21.205 12.9236 21.2256 12.4997 20.8421C12.1103 20.4896 12.0797 19.5753 12.4438 19.173C12.7946 18.7854 13.7692 18.7918 14.1242 19.1839ZM67.5291 19.1458C67.9263 19.5052 67.9099 20.4715 67.5003 20.8421C67.0764 21.2256 66.3132 21.205 65.9069 20.7988C65.5092 20.401 65.4939 19.6061 65.8758 19.1839C66.2125 18.812 67.1365 18.7907 67.5291 19.1458ZM42.038 20.3915C42.2507 21.0358 42.0778 21.8282 41.5869 22.4599L41.2993 22.8297L39.6914 22.3036C37.8406 21.6982 37.64 21.4846 37.95 20.4501L38.1373 19.8247H39.9942H41.8509L42.038 20.3915ZM70.862 32.1739C73.0966 36.2102 74.9483 39.5825 74.9769 39.6676C75.0109 39.7689 72.1438 39.8226 66.721 39.8226C61.2982 39.8226 58.4311 39.7689 58.4652 39.6676C58.5772 39.3346 66.6476 24.8349 66.721 24.8349C66.764 24.8349 68.6274 28.1374 70.862 32.1739ZM40.218 30.6111L41.2501 30.9298V41.6945C41.2501 47.6151 41.1974 52.4903 41.1329 52.5282C41.0684 52.5662 40.5235 52.4089 39.9219 52.1787L38.828 51.7602L38.7879 41.0263C38.7538 31.9052 38.7807 30.2923 38.9668 30.2923C39.0873 30.2923 39.6503 30.4358 40.218 30.6111ZM44.5057 32.4967C45.3156 33.0922 45.6255 33.6604 45.6255 34.5504C45.6255 35.1147 45.5391 35.3126 45.1176 35.7124C44.6695 36.1377 43.7633 36.6979 43.5237 36.6979C43.4764 36.6979 43.4378 35.6434 43.4378 34.3544C43.4378 31.7128 43.4384 31.7119 44.5057 32.4967ZM24.0299 42.3536C24.4206 42.7442 24.2179 43.1101 23.2723 43.7211C20.9774 45.2041 17.3045 46.0659 13.279 46.0659C9.28224 46.0659 5.56427 45.1935 3.28564 43.7211C2.34009 43.1101 2.13741 42.7442 2.52807 42.3536C2.79919 42.0826 23.7588 42.0826 24.0299 42.3536ZM36.5622 48.8842C36.5622 49.9154 36.5222 50.759 36.4731 50.759C36.1553 50.759 35.0058 49.7519 34.866 49.3509C34.6252 48.6602 34.9413 47.8156 35.6087 47.3667C36.5295 46.7471 36.5622 46.7991 36.5622 48.8842ZM40.4264 60.1676L41.172 60.5237L41.2139 64.4081L41.2556 68.2926L40.8569 68.1924C40.6377 68.1374 40.0739 67.9224 39.604 67.7148L38.7499 67.337V63.4812V59.6253L39.2154 59.7184C39.4714 59.7695 40.0163 59.9717 40.4264 60.1676ZM36.5622 66.6048C36.5622 68.1354 36.5869 68.2626 36.9732 68.7216C37.4562 69.2956 38.303 69.7429 40.2344 70.4447C43.147 71.5029 44.4848 72.4356 45.2273 73.9253C45.8035 75.0814 45.7439 75.228 44.9264 74.6657C43.9181 73.9721 42.4886 73.3647 39.4181 72.325C36.2491 71.2518 35.2507 70.7342 34.6116 69.8327C33.6748 68.5115 34.1358 66.5759 35.6531 65.4604C36.0151 65.1941 36.3677 64.9763 36.4367 64.9763C36.5058 64.9763 36.5622 65.7091 36.5622 66.6048ZM40.2344 75.0378C41.2373 75.4215 41.3461 75.5871 41.1793 76.4758C41.0567 77.1289 40.5443 77.633 40.0095 77.6263C39.1679 77.6158 38.7499 76.9143 38.7499 75.512C38.7499 74.5118 38.8099 74.4927 40.2344 75.0378Z" fill="#94B0D5"/>
</g>
</svg>
