<svg width="80" height="80" viewBox="0 0 80 80" fill="none" xmlns="http://www.w3.org/2000/svg">
<mask id="mask0_1_18491" style="mask-type:alpha" maskUnits="userSpaceOnUse" x="0" y="0" width="80" height="80">
<rect width="80" height="80" fill="white"/>
</mask>
<g mask="url(#mask0_1_18491)">
<path fill-rule="evenodd" clip-rule="evenodd" d="M43.6604 0.297994C42.7806 0.710504 27.4294 16.1056 27.0982 16.9075C26.6155 18.0761 26.8919 19.1544 27.9894 20.3855C28.4141 20.8618 29.0713 21.4331 29.4497 21.6548C30.0457 22.0039 30.2846 22.0512 31.2318 22.0074L32.3256 21.957L33.4066 23.0293L34.4875 24.1017L34.1903 24.5892C33.825 25.1882 33.8045 26.2038 34.1476 26.7216C34.2883 26.9341 35.8008 28.5153 37.5086 30.2352L40.614 33.3624L38.9769 34.9934L37.34 36.6244L36.7278 36.2803C36.0265 35.8864 35.1609 35.837 34.5482 36.1564C33.8947 36.4969 31.5812 38.9502 31.4605 39.4305C31.4013 39.6665 31.3983 40.202 31.4539 40.6207C31.5402 41.2714 31.5097 41.4139 31.244 41.5998C31.073 41.7197 30.5086 42.2161 29.9897 42.703C29.2071 43.4375 29.0469 43.6753 29.0488 44.0985C29.0516 44.7027 29.1571 44.8871 29.6471 45.1452C30.217 45.4455 30.6638 45.2369 31.9735 44.0594C32.6412 43.4591 33.2239 42.9678 33.2686 42.9678C33.3131 42.9678 34.1892 43.8094 35.2154 44.838L37.0813 46.7082L36.7617 47.0646C29.9269 54.685 11.547 75.0405 10.8563 75.7544C9.48325 77.1738 8.65815 77.5718 7.0864 77.5728C5.5803 77.5735 4.7055 77.2291 3.72597 76.2499C2.042 74.5664 1.86913 71.7545 3.3435 70.0324C3.65532 69.6682 8.91557 64.8637 15.0327 59.3557C21.1499 53.8478 26.3836 49.1036 26.6629 48.8131C27.2782 48.1733 27.3304 47.5473 26.8092 47.0576C25.9716 46.2712 26.3881 45.9462 14.5106 56.6529C2.21518 67.7364 1.41696 68.4886 0.851939 69.5265C-0.638218 72.2636 -0.138061 75.6886 2.07467 77.9007C4.56608 80.3914 8.54624 80.6685 11.294 78.5426C11.7576 78.184 18.098 71.281 25.3839 63.2027L38.6312 48.5148L39.5254 48.5673C40.1127 48.6019 40.5734 48.5387 40.8678 48.3834C41.3863 48.1098 43.6204 45.8662 43.8775 45.361C44.1489 44.8277 44.081 43.8782 43.7304 43.3033L43.411 42.7794L44.2256 41.897C44.6736 41.4117 45.4107 40.6576 45.8635 40.221L46.6869 39.4276L49.5499 42.3076C51.1248 43.8917 52.6875 45.3915 53.0228 45.6404C53.7545 46.1837 54.6662 46.2427 55.4016 45.7945L55.8893 45.4973L56.962 46.5779L58.0346 47.6586L57.9842 48.752C57.9407 49.693 57.9885 49.9394 58.3274 50.5174C58.8305 51.3755 59.9828 52.4385 60.8236 52.8203C61.652 53.1962 62.402 53.1974 63.1978 52.8243C64.0776 52.4118 79.4289 37.0167 79.7601 36.2148C80.2668 34.9881 79.9792 33.9256 78.7945 32.6461C78.311 32.1241 77.6329 31.5528 77.2874 31.3767C76.6707 31.0622 75.5241 30.9542 74.9003 31.1522C74.6708 31.225 74.3395 30.987 73.5172 30.1586L72.4359 29.0693L72.7011 28.5131C73.0255 27.8332 73.042 27.0001 72.7422 26.4361C72.415 25.8204 60.4551 13.9427 59.9945 13.776C59.2336 13.5008 58.4307 14.1096 58.4307 14.962C58.4307 15.1057 61.1386 17.9338 64.4482 21.2465C67.7579 24.5592 70.4657 27.339 70.4657 27.4238C70.4657 27.5085 66.8434 31.1988 62.4162 35.624L54.3665 43.6702L45.3408 34.6471L36.3151 25.6241L44.3636 17.5767C48.7902 13.1508 52.4779 9.52948 52.5582 9.52948C52.6387 9.52948 53.281 10.092 53.9856 10.7795C55.3269 12.0884 55.7016 12.2502 56.3461 11.7988C56.765 11.5055 56.9266 10.874 56.6978 10.4247C56.4448 9.92777 54.0571 7.51833 53.5542 7.25254C52.9893 6.95394 52.1559 6.97082 51.4766 7.29473L50.9202 7.5599L49.8307 6.47893C48.9687 5.62391 48.7627 5.33171 48.845 5.08077C49.0438 4.47435 48.9324 3.33729 48.6126 2.71071C48.4361 2.36492 47.8646 1.68647 47.3424 1.20317C46.0235 -0.0174827 44.9147 -0.290146 43.6604 0.297994ZM45.9491 3.10072C46.3666 3.51823 46.7083 3.95855 46.7083 4.0795C46.7083 4.20028 43.2009 7.80303 38.9139 12.0855L31.1198 19.8716L30.6534 19.6305C30.0682 19.328 29.2027 18.3561 29.2027 18.0014C29.2027 17.6264 44.5177 2.3418 44.8935 2.3418C45.0565 2.3418 45.5315 2.68337 45.9491 3.10072ZM42.7658 15.8928L36.1626 22.4953L35.1035 21.4446L34.0444 20.394L40.6476 13.7915L47.2508 7.18895L48.3099 8.2396L49.3689 9.29025L42.7658 15.8928ZM66.2107 39.3308L59.6075 45.9334L58.5484 44.8827L57.4893 43.8321L64.0925 37.2295L70.6957 30.627L71.7547 31.6777L72.8138 32.7283L66.2107 39.3308ZM76.802 33.9274C78.1017 35.1253 78.6416 34.4023 69.9797 43.0631C65.7346 47.3078 62.1403 50.7805 61.9926 50.7805C61.6367 50.7805 60.6648 49.9161 60.3618 49.3303L60.1206 48.8641L67.909 41.0721C72.1927 36.7864 75.788 33.2801 75.8986 33.2801C76.0091 33.2801 76.4156 33.5713 76.802 33.9274ZM43.312 39.4099L41.6343 41.0923L40.2634 39.7282L38.8925 38.3641L40.5702 36.6817L42.248 34.9993L43.6189 36.3634L44.9898 37.7275L43.312 39.4099ZM40.8097 45.3494L39.9157 46.2526L36.827 43.1678L33.7386 40.0831L34.6324 39.1799L35.5265 38.2768L38.6151 41.3615L41.7036 44.4463L40.8097 45.3494ZM43.8792 60.3106C42.1898 61.2033 41.5859 63.148 42.4711 64.8457C42.6496 65.1882 42.7279 65.4684 42.6449 65.4684C42.562 65.4684 42.011 65.924 41.4205 66.4808C39.817 67.993 38.8933 69.9669 38.8933 71.8814V72.7687L38.1224 72.86C36.6809 73.0308 35.4614 73.9422 34.8419 75.3124C34.5937 75.861 34.5238 76.3416 34.5238 77.4999C34.5238 79.077 34.6638 79.4464 35.4053 79.8255C35.652 79.9516 41.7447 80 57.3419 80H78.9372L79.4686 79.4687C79.9887 78.9487 80 78.9098 80 77.6215C80 76.851 79.9011 76.0152 79.7612 75.6049C79.2699 74.1636 77.899 73.0383 76.4211 72.8633L75.6236 72.7687V72.0421C75.6236 71.1049 75.2648 69.7391 74.7244 68.6202C74.3192 67.7811 72.6099 65.8482 71.979 65.5157C71.706 65.3718 71.7068 65.3453 72.0008 64.8312C72.9296 63.2075 72.2462 61.0631 70.555 60.2953C69.9525 60.0217 69.2422 60.0065 57.1803 60.0098C44.9644 60.0131 44.4188 60.0254 43.8792 60.3106ZM69.9281 62.7263C70.1982 63.1383 70.1303 63.5938 69.741 63.983C69.5353 64.1887 67.9567 64.2184 57.2474 64.2184C45.1973 64.2184 44.9837 64.213 44.6764 63.9058C44.2963 63.5258 44.2747 63.0133 44.6224 62.6291C44.8689 62.3567 45.4666 62.3433 57.2791 62.3433H69.6771L69.9281 62.7263ZM69.8679 67.0559C71.7765 67.9505 73.0783 69.7774 73.2397 71.7882L73.322 72.8123H72.1993C71.2158 72.8123 71.0292 72.8598 70.6932 73.1959C70.2041 73.6847 70.2041 74.2838 70.6932 74.7725C71.0695 75.1489 71.125 75.1561 73.6705 75.1561C76.5422 75.1561 76.9942 75.2686 77.4184 76.0885C77.5488 76.3407 77.6555 76.7965 77.6555 77.1015V77.6562H57.2585H36.8614V76.9374C36.8614 76.3283 36.9425 76.1376 37.3928 75.6874L37.9242 75.1561H52.1701H66.4162L66.7998 74.7725C67.0108 74.5616 67.1835 74.2069 67.1835 73.9842C67.1835 73.7616 67.0108 73.4069 66.7998 73.1959L66.4162 72.8123H53.806H41.1957L41.2714 71.7551C41.3131 71.1737 41.4933 70.3673 41.6721 69.9633C42.0765 69.0496 43.2919 67.7316 44.1254 67.303C45.5574 66.5665 45.3508 66.5773 57.4929 66.6097L68.9809 66.6403L69.8679 67.0559Z" fill="#94B0D5"/>
</g>
</svg>
