<svg width="80" height="80" viewBox="0 0 80 80" fill="none" xmlns="http://www.w3.org/2000/svg">
<mask id="mask0_1_18463" style="mask-type:alpha" maskUnits="userSpaceOnUse" x="0" y="0" width="80" height="80">
<rect width="80" height="80" fill="white"/>
</mask>
<g mask="url(#mask0_1_18463)">
<path fill-rule="evenodd" clip-rule="evenodd" d="M38.6561 0.411025C38.3229 0.637252 37.4369 1.38285 36.6871 2.06826C34.5633 4.00925 34.4006 4.83427 35.714 7.0018C36.0936 7.62826 36.4041 8.31429 36.4041 8.52614V8.91152H33.2276C29.8187 8.91152 29.134 9.01956 27.5891 9.80205C25.9986 10.6074 24.3146 12.6222 23.8254 14.3047C23.5096 15.3915 22.8803 15.9469 21.9653 15.9469C20.9079 15.9469 20.1445 15.1615 20.1445 14.0736C20.1445 12.9913 19.339 11.8098 18.203 11.2259C17.2898 10.7562 15.8421 10.878 14.9613 11.4984C13.9794 12.1899 13.5772 13.0729 13.5822 14.5253C13.5941 18.0443 16.242 21.3984 19.7305 22.3134L20.7699 22.586V23.6831V24.7803L18.7213 27.7508C15.7938 31.9958 16.0169 31.7375 15.2779 31.7375C14.7907 31.7375 14.5452 31.8407 14.1914 32.1945C13.7751 32.6109 13.7345 32.747 13.7345 33.7251C13.7345 38.2006 17.4618 41.8998 21.9712 41.8998C26.4224 41.8998 30.1504 38.2115 30.1504 33.8078C30.1504 32.7383 30.1162 32.6173 29.6934 32.1945C29.3437 31.8448 29.0925 31.7375 28.6233 31.7375C28.2363 31.7375 27.9202 31.6365 27.7667 31.4639C27.6327 31.3134 26.5314 29.7481 25.3193 27.9853L23.1155 24.7803L23.1152 23.6839L23.115 22.5873L23.9358 22.3942C26.5724 21.7735 28.9089 19.6896 29.8501 17.1195C30.4433 15.4998 30.4941 15.4779 33.6769 15.4779H36.4041V17.9753V20.4729L35.9742 20.6965C34.6054 21.4086 33.9438 23.3806 34.5719 24.8758C34.8183 25.4623 35.677 26.3686 36.1194 26.509C36.3911 26.5951 36.4041 27.0871 36.4041 37.295V47.9907L25.7842 48.0331C15.3354 48.0747 15.1573 48.0805 14.7327 48.3977C14.0736 48.8897 13.7201 49.4458 13.6275 50.1356C13.5337 50.8357 13.9715 53.3156 14.3053 53.9751C14.7078 54.7701 16.0117 54.723 16.3 53.9028C16.4035 53.6089 16.3688 53.0689 16.1847 52.1077C16.0397 51.3518 15.9217 50.6453 15.9222 50.5377C15.9231 50.3856 16.9973 50.3423 20.7699 50.3423C25.2879 50.3423 25.6165 50.3609 25.6165 50.6168C25.6165 51.8976 26.6168 58.1066 26.9724 59.0334C27.0439 59.2196 26.4243 59.2538 22.9781 59.2538H18.8991L18.5057 58.4777C17.9149 57.3117 17.1732 57.0516 16.4634 57.7615C15.9247 58.3001 15.9817 58.796 16.7304 60.0865C18.3043 62.7992 20.2566 65.2233 22.3206 67.0279C32.5451 75.9667 47.469 75.9543 57.7127 66.9987C61.8862 63.35 65.1009 57.7176 66.185 52.1546C66.5903 50.0746 66.3845 49.2319 65.2673 48.3977C64.8427 48.0805 64.6646 48.0747 54.2158 48.0331L43.5959 47.9907V41.5768V35.1628L43.2121 34.7792C42.723 34.29 42.1236 34.29 41.6346 34.7792L41.2507 35.1628V41.5801V47.9972H40H38.7493V37.444V26.8909H40H41.2507V28.6959C41.2507 30.4039 41.2714 30.5217 41.6346 30.8847C42.1236 31.3739 42.723 31.3739 43.2121 30.8847C43.5785 30.5184 43.5959 30.413 43.5959 28.5502C43.5959 26.8005 43.6253 26.59 43.8806 26.509C44.323 26.3686 45.1817 25.4623 45.4281 24.8758C46.0562 23.3806 45.3946 21.4086 44.0258 20.6965L43.5959 20.4729V17.9753V15.4779H46.3231C48.9331 15.4779 49.0671 15.4931 49.4356 15.8297C49.6476 16.0231 49.9371 16.5464 50.0791 16.9924C50.8652 19.4618 53.4261 21.7732 56.0642 22.3942L56.885 22.5873L56.8848 23.6839L56.8845 24.7803L54.6807 27.9853C53.4686 29.7481 52.3673 31.3134 52.2333 31.4639C52.0798 31.6365 51.7637 31.7375 51.3767 31.7375C50.9076 31.7375 50.6563 31.8448 50.3066 32.1945C49.8838 32.6173 49.8496 32.7383 49.8496 33.8078C49.8496 38.2314 53.5835 41.8998 58.0863 41.8998C62.5438 41.8998 66.2655 38.1801 66.2655 33.7251C66.2655 32.747 66.2249 32.6109 65.8086 32.1945C65.4548 31.8407 65.2093 31.7375 64.7221 31.7375C63.9831 31.7375 64.2062 31.9958 61.2787 27.7508L59.2301 24.7803V23.6717V22.563L60.0855 22.3717C63.5935 21.5865 66.4219 18.0594 66.4219 14.4698C66.4219 13.0768 66.0035 12.178 65.0387 11.4984C64.1579 10.878 62.7102 10.7562 61.797 11.2259C60.661 11.8098 59.8555 12.9913 59.8555 14.0736C59.8555 15.1615 59.0921 15.9469 58.0347 15.9469C57.1115 15.9469 56.5299 15.4176 56.1203 14.2048C55.2956 11.7626 53.3513 9.92087 50.7983 9.16355C50.1391 8.96796 49.2384 8.91152 46.7724 8.91152H43.5959V8.52614C43.5959 8.31429 43.9064 7.62826 44.286 7.0018C45.5999 4.83349 45.4348 3.9958 43.3123 2.06075C41.3933 0.311278 40.893 0 40 0C39.4608 0 39.0987 0.110847 38.6561 0.411025ZM41.4618 3.53709C42.2055 4.19264 42.8139 4.77314 42.8135 4.82692C42.8132 4.8807 42.5801 5.31174 42.2956 5.78467L41.7784 6.64456H40H38.2216L37.7044 5.78467C37.4199 5.31174 37.1868 4.8807 37.1865 4.82692C37.1857 4.70044 39.8557 2.34514 40 2.34514C40.0602 2.34514 40.7179 2.88155 41.4618 3.53709ZM41.2507 14.5399V20.1682H40H38.7493V14.5399V8.91152H40H41.2507V14.5399ZM36.4041 12.1947V13.1328H33.6966C30.3813 13.1328 29.6927 13.2935 28.7837 14.2795C28.4403 14.6521 28.0701 15.2325 27.961 15.5692C27.216 17.8682 25.4944 19.6344 23.545 20.0996L23.115 20.2021V19.1926V18.1833L23.7438 17.8997C24.6282 17.5008 25.5155 16.4732 25.9129 15.3871C26.4496 13.9207 26.734 13.4637 27.611 12.6581C28.9647 11.4144 29.5302 11.2743 33.2382 11.2648L36.4041 11.2567V12.1947ZM50.7031 11.5804C51.6744 11.9438 53.0612 13.1212 53.4797 13.9375C53.6274 14.2258 53.9007 14.878 54.0871 15.3871C54.4845 16.4732 55.3718 17.5008 56.2562 17.8997L56.885 18.1833V19.1926V20.2021L56.4551 20.0996C54.5056 19.6344 52.784 17.8682 52.039 15.5692C51.9299 15.2325 51.5597 14.6521 51.2163 14.2795C50.3074 13.2935 49.6187 13.1328 46.3034 13.1328H43.5959V12.1947V11.2567H46.7168C49.4905 11.2567 49.9342 11.2926 50.7031 11.5804ZM17.5134 13.5479C17.6707 13.6901 17.7994 13.9941 17.7994 14.2229C17.7994 15.6102 18.8972 17.3387 20.1318 17.8956L20.7699 18.1833V19.1757C20.7699 19.9102 20.7144 20.1682 20.5563 20.1682C20.4389 20.1682 19.844 19.9187 19.2341 19.6135C17.2845 18.6381 16.0721 16.8565 15.9492 14.7863C15.8951 13.8746 15.9297 13.6711 16.1684 13.4964C16.5564 13.2127 17.169 13.2361 17.5134 13.5479ZM63.8472 13.5508C64.0536 13.7574 64.096 14.03 64.0478 14.8407C63.9279 16.8533 62.6928 18.6495 60.7659 19.6135C60.156 19.9187 59.5611 20.1682 59.4437 20.1682C59.2856 20.1682 59.2301 19.9102 59.2301 19.1757V18.1833L59.8682 17.8956C61.0915 17.3439 62.2006 15.6106 62.2006 14.2502C62.2006 13.415 63.261 12.9647 63.8472 13.5508ZM42.9396 22.7869C43.43 23.2109 43.4896 23.6584 43.1183 24.1304L42.7915 24.5458H40H37.2085L36.8817 24.1304C36.5104 23.6584 36.57 23.2109 37.0604 22.7869C37.3347 22.5498 37.7265 22.5133 40 22.5133C42.2735 22.5133 42.6653 22.5498 42.9396 22.7869ZM23.5273 29.4975L25.0061 31.6594L22.0054 31.7019C20.3553 31.7253 18.9776 31.7171 18.9441 31.6836C18.9106 31.6503 19.5667 30.6294 20.4018 29.4152C21.237 28.2009 21.9492 27.2363 21.9843 27.2715C22.0195 27.3068 22.7138 28.3083 23.5273 29.4975ZM59.6841 29.5289C60.4738 30.6788 61.0919 31.6476 61.0576 31.682C61.0232 31.7163 59.6454 31.7253 57.9958 31.7019L54.9964 31.6594L56.5176 29.4299C57.3543 28.2037 58.086 27.2539 58.1435 27.3193C58.2011 27.3846 58.8943 28.379 59.6841 29.5289ZM27.7692 34.6074C27.5766 36.3162 26.1079 38.257 24.4026 39.0562C23.6167 39.4246 23.3126 39.4765 21.9424 39.4765C20.5404 39.4765 20.2855 39.4305 19.4721 39.0312C17.7604 38.1906 16.3699 36.3712 16.1382 34.669L16.0371 33.9263H21.9415H27.8459L27.7692 34.6074ZM63.8658 34.6346C63.6298 36.3573 62.2368 38.1921 60.5279 39.0312C59.7145 39.4305 59.4596 39.4765 58.0576 39.4765C56.6913 39.4765 56.3822 39.424 55.6069 39.0606C55.1189 38.8317 54.3977 38.348 54.0044 37.9853C53.1723 37.2184 52.3497 35.6619 52.234 34.6358L52.1541 33.9263H58.0585H63.9629L63.8658 34.6346ZM8.17726 37.2807C7.9662 37.4917 7.79297 37.7555 7.7925 37.8669C7.79204 37.9783 7.71668 38.3396 7.62506 38.6698C7.47153 39.2226 7.43729 39.251 7.19168 39.0289C7.04503 38.8961 6.51597 38.6003 6.01598 38.3713C5.1944 37.9951 4.96927 37.9614 3.67507 38.0187C1.18484 38.1293 0.414701 38.7547 0.40235 40.6761C0.387497 42.9653 1.3032 44.6514 3.09222 45.6301C3.95883 46.1042 4.27714 46.1895 5.39827 46.2483L6.69904 46.3166V47.0969C6.69904 47.8336 6.67935 47.8713 6.34727 47.7703C4.7296 47.2785 3.96508 47.2606 2.59818 47.6828C1.36636 48.0633 0.411887 48.7301 0.132033 49.4058C-0.040256 49.8217 -0.0427575 50.0835 0.11765 50.8604C0.52758 52.8455 1.75503 54.4269 3.34816 55.023C4.37548 55.4075 6.04475 55.4519 6.98562 55.12L7.62412 54.8947L7.83206 55.6281L8.03999 56.3615L6.86149 56.4573C5.07261 56.6026 3.54139 57.4008 2.62523 58.6655C2.06021 59.4456 2.04363 60.0024 2.55284 61.0965C3.94914 64.0956 7.51922 65.149 10.3123 63.3859L10.8989 63.0156L11.2836 63.7041C11.6872 64.4258 11.6288 64.5695 10.9325 64.5695C10.3964 64.5695 8.75464 65.5257 8.13333 66.1996C7.34224 67.058 6.82412 68.0601 6.82412 68.7322C6.82412 69.3828 7.31503 70.1879 8.14443 70.8979C10.4114 72.8384 13.363 72.7663 15.4086 70.7206L16.1149 70.0144L16.6445 70.5277C16.9357 70.8099 17.174 71.0861 17.174 71.1415C17.174 71.1967 16.9806 71.3285 16.7441 71.434C15.4062 72.0315 14.3556 73.2471 13.8361 74.7986C13.2515 76.5447 13.6847 77.4297 15.5816 78.3634C16.5097 78.8204 16.762 78.8746 17.9524 78.8732C18.9782 78.8721 19.4508 78.7952 20.0072 78.5391C20.9494 78.1056 21.9351 77.2044 22.4479 76.3083C22.6735 75.9141 22.88 75.563 22.9069 75.528C22.9337 75.493 23.7176 75.86 24.6486 76.3438C27.2978 77.7202 31.1321 79.1093 32.2825 79.1093C33.2022 79.1093 33.7583 78.0648 33.2177 77.3528C33.1044 77.2035 31.9634 76.7382 30.682 76.3189C29.4008 75.8995 27.6841 75.2427 26.8672 74.8591C18.4774 70.9215 12.1803 63.2798 9.91642 54.2892C8.73556 49.6 8.70492 43.9979 9.83543 39.5285C10.0021 38.8694 10.1386 38.1802 10.1386 37.9972C10.1386 37.5375 9.45583 36.8968 8.96601 36.8968C8.74322 36.8968 8.38833 37.0696 8.17726 37.2807ZM70.2452 37.2807C69.7823 37.7434 69.7737 37.9831 70.1646 39.5285C70.9937 42.8063 71.2257 47.6246 70.7188 51.0382C69.1526 61.5861 62.5504 70.4894 53.0077 74.9218C52.2596 75.2694 50.5992 75.8974 49.318 76.3175C48.0366 76.7378 46.8956 77.2035 46.7823 77.3528C46.2301 78.08 46.7745 79.1093 47.7114 79.1093C48.8676 79.1093 52.6958 77.7237 55.3514 76.3438C56.2825 75.86 57.0663 75.493 57.0931 75.528C57.12 75.563 57.3265 75.9141 57.5521 76.3083C58.0649 77.2044 59.0506 78.1056 59.9928 78.5391C60.5492 78.7952 61.0218 78.8721 62.0476 78.8732C63.238 78.8746 63.4903 78.8204 64.4184 78.3634C66.3153 77.4297 66.7485 76.5447 66.1639 74.7986C65.6444 73.2471 64.5938 72.0315 63.256 71.434C63.0196 71.3285 62.826 71.1967 62.826 71.1415C62.826 71.0861 63.0643 70.8099 63.3555 70.5277L63.8851 70.0144L64.5914 70.7206C65.4571 71.5864 66.2172 71.9871 67.4561 72.2309C68.2536 72.3878 68.5639 72.3772 69.4065 72.1644C71.3453 71.6751 73.146 70.0244 73.1432 68.7394C73.1413 67.9205 72.4828 66.7315 71.5788 65.9148C70.9094 65.3101 69.5258 64.5737 69.0534 64.571C68.3712 64.567 68.3149 64.4223 68.7164 63.7041L69.1011 63.0156L69.6877 63.3859C71.1461 64.3065 72.9376 64.5054 74.5018 63.92C76.0925 63.325 77.8289 61.1698 77.8333 59.7854C77.8363 58.8573 76.466 57.462 74.9017 56.8003C74.5803 56.6643 73.7869 56.51 73.1385 56.4573L71.96 56.3615L72.1679 55.6281L72.3759 54.8947L73.0144 55.12C73.9553 55.4519 75.6245 55.4075 76.6518 55.023C78.245 54.4269 79.4724 52.8455 79.8824 50.8604C80.0428 50.0835 80.0403 49.8217 79.868 49.4058C79.5881 48.7301 78.6336 48.0633 77.4018 47.6828C76.0349 47.2606 75.2704 47.2785 73.6527 47.7703C73.3207 47.8713 73.301 47.8336 73.301 47.0969V46.3166L74.5908 46.2489C75.6791 46.1917 76.0344 46.0992 76.8657 45.6559C77.9628 45.0714 78.4376 44.5804 79.0464 43.4018C79.3913 42.7342 79.4695 42.3458 79.5234 41.0326C79.5856 39.5128 79.5742 39.4455 79.1686 38.9635C78.6365 38.3311 77.533 37.9912 76.0118 37.9912C74.7818 37.9912 73.8655 38.2637 73.0352 38.8766L72.535 39.2459L72.3717 38.6576C72.2818 38.3341 72.208 37.9783 72.2075 37.8669C72.2059 37.5163 71.4566 36.8968 71.034 36.8968C70.8112 36.8968 70.4563 37.0696 70.2452 37.2807ZM5.29196 40.5781C6.16123 41.0176 6.85539 42.1848 6.85539 43.207C6.85539 43.8273 6.67981 43.9322 5.64123 43.9322C4.03888 43.9322 2.83801 42.7905 2.75312 41.1866C2.71231 40.4184 2.71325 40.4169 3.25951 40.3275C3.94132 40.2158 4.77994 40.3192 5.29196 40.5781ZM77.2649 40.498C77.4553 40.6705 77.1026 42.1739 76.7303 42.7761C76.1897 43.651 74.3938 44.2218 73.392 43.8373C72.771 43.5991 73.3207 41.6803 74.2289 40.9161C74.6957 40.5232 74.8777 40.4472 75.7243 40.2907C76.1342 40.215 77.0952 40.3443 77.2649 40.498ZM5.55743 50.0446C6.25316 50.3814 6.86977 51.2191 7.07599 52.1072C7.16698 52.5 7.11851 52.5678 6.58726 52.7897C4.8356 53.5215 2.99764 52.6241 2.46842 50.7785C2.34475 50.3473 2.37586 50.3024 2.99357 50.0219C3.85299 49.6319 4.72069 49.6395 5.55743 50.0446ZM77.0064 50.0219C77.6241 50.3024 77.6553 50.3473 77.5316 50.7785C77.4594 51.0305 77.3247 51.3776 77.2327 51.5497C76.9698 52.041 75.9963 52.8299 75.526 52.9327C75.291 52.9842 75.0137 53.0523 74.9096 53.0841C74.6655 53.1586 73.1657 52.7711 72.9801 52.5855C72.8951 52.5004 72.9054 52.1998 73.0059 51.836C73.4915 50.0768 75.3106 49.2521 77.0064 50.0219ZM38.9056 54.7981V59.2538H34.2114H29.5172L29.3731 58.8744C28.9674 57.8076 27.9616 51.9256 27.9616 50.6206C27.9616 50.359 28.2915 50.3423 33.4336 50.3423H38.9056V54.7981ZM52.0384 50.6206C52.0384 51.9256 51.0326 57.8076 50.6269 58.8744L50.4828 59.2538H45.7886H41.0944V54.7981V50.3423H46.5664C51.7085 50.3423 52.0384 50.359 52.0384 50.6206ZM64.0768 50.5795C64.0768 50.71 63.9295 51.5016 63.7494 52.3383C63.3716 54.0944 62.5816 56.3041 61.7102 58.0422L61.1028 59.2538H57.029C53.2219 59.2538 52.9608 59.2358 53.0385 58.9802C53.4398 57.6596 54.0715 53.9136 54.3169 51.3976L54.4199 50.3423H59.2483C63.4608 50.3423 64.0768 50.3726 64.0768 50.5795ZM8.64801 59.3173C8.96288 59.5574 9.33295 59.9897 9.47037 60.278C9.76867 60.9035 9.63453 61.1382 8.70914 61.6104C7.5053 62.2245 5.89466 61.8507 5.06652 60.7649C4.43692 59.9395 4.53401 59.736 5.91733 58.9819C6.56787 58.6273 7.96902 58.7995 8.64801 59.3173ZM74.5126 59.2585C74.9763 59.5243 75.3334 59.8404 75.3334 59.9849C75.3334 60.4015 74.5791 61.2659 73.9235 61.6004C72.8552 62.1454 71.1759 61.8822 70.4963 61.0633C70.1074 60.5945 70.769 59.5749 71.8157 59.0307C72.5751 58.6358 73.5739 58.7201 74.5126 59.2585ZM28.0315 62.4198C28.8068 64.629 30.5572 67.8797 31.7299 69.2877C32.065 69.6901 32.3392 70.0558 32.3392 70.1004C32.3392 70.4089 28.2132 68.4482 26.6243 67.3847C24.9003 66.2309 23.0032 64.6024 21.9301 63.355C21.432 62.7762 20.8845 62.1443 20.7136 61.9507L20.4026 61.599H24.0731H27.7435L28.0315 62.4198ZM38.8687 66.4847L38.8274 71.3704L38.2835 71.3158C36.517 71.1384 34.0318 68.905 32.2562 65.8995C31.5467 64.6986 30.3068 62.0581 30.3068 61.7483C30.3068 61.657 31.9796 61.599 34.6084 61.599H38.91L38.8687 66.4847ZM49.6932 61.7478C49.6932 62.0452 48.5554 64.4744 47.8063 65.7761C46.0484 68.831 43.5157 71.1351 41.7165 71.3158L41.1726 71.3704L41.1313 66.4847L41.09 61.599H45.3916C48.0091 61.599 49.6932 61.6573 49.6932 61.7478ZM58.8976 62.4198C56.2051 65.6968 52.0948 68.6195 48.2912 69.9616C47.5651 70.2177 47.5121 70.1393 48.0346 69.581C49.1005 68.4419 51.2245 64.5795 51.9722 62.4198L52.2565 61.599H55.9143H59.5719L58.8976 62.4198ZM13.209 67.1502C13.6416 67.3658 14.0879 67.7149 14.2008 67.9258C14.3844 68.269 14.3633 68.3658 14.001 68.8409C12.9427 70.2283 10.6534 70.2944 9.45755 68.9721C9.1741 68.6588 9.1752 68.64 9.50274 68.18C10.0964 67.3464 11.0673 66.8039 12.0231 66.7717C12.2426 66.7644 12.7762 66.9346 13.209 67.1502ZM69.4942 67.2418C69.7859 67.4221 70.2084 67.8108 70.4332 68.1055C70.8353 68.6326 70.837 68.6464 70.547 68.9671C69.8397 69.7492 68.4767 70.1543 67.5185 69.8673C66.8534 69.6681 65.6402 68.6384 65.6402 68.2732C65.6402 67.9477 66.2543 67.3744 66.9527 67.048C67.7311 66.6842 68.7129 66.759 69.4942 67.2418ZM20.147 73.6209C20.6067 73.8709 20.6878 73.9955 20.6668 74.4187C20.6173 75.4218 19.2329 76.6088 18.1145 76.6069C17.4429 76.606 16.568 76.3633 16.1883 76.073C15.9236 75.8707 15.9215 75.82 16.1567 75.2575C16.8626 73.5679 18.6794 72.8228 20.147 73.6209ZM62.3257 73.5452C62.9358 73.8639 63.5528 74.5618 63.8468 75.2655C64.0886 75.8446 64.0869 75.8866 63.816 76.0472C62.7924 76.6538 61.6178 76.759 60.795 76.3178C60.0483 75.9173 59.3632 75.0274 59.3332 74.4187C59.3122 73.9955 59.3934 73.8709 59.853 73.6209C60.502 73.268 61.7235 73.2305 62.3257 73.5452Z" fill="#94B0D5"/>
</g>
</svg>
