<svg width="80" height="80" viewBox="0 0 80 80" fill="none" xmlns="http://www.w3.org/2000/svg">
<mask id="mask0_1_18449" style="mask-type:alpha" maskUnits="userSpaceOnUse" x="0" y="0" width="80" height="80">
<rect width="80" height="80" fill="white"/>
</mask>
<g mask="url(#mask0_1_18449)">
<path fill-rule="evenodd" clip-rule="evenodd" d="M58.4376 1.2109C53.4382 1.99062 49.0258 5.45987 47.0107 10.1953C46.0772 12.389 45.9013 13.5048 45.8096 17.8106L45.726 21.7391L45.0025 21.4653C43.7272 20.9828 42.0548 20.8096 39.2335 20.868L36.5507 20.9235L36.3928 20.2964C36.1936 19.5048 35.4447 18.3647 34.8213 17.9039L34.3427 17.5499V11.8571C34.3427 6.72436 34.3137 6.07138 34.0483 5.2189C33.5248 3.53662 32.4521 2.38041 30.6655 1.57236C30.0535 1.29571 29.5934 1.21778 28.553 1.21481C27.3849 1.21137 27.0992 1.26989 26.2059 1.6952C25.6465 1.96168 24.9423 2.42532 24.6411 2.72575L24.0934 3.27186L23.2603 2.51451C22.628 1.93946 22.1672 1.67814 21.3468 1.42887C20.3455 1.12484 19.9876 1.10559 16.4685 1.16724C12.4387 1.23797 11.5501 1.37739 10.658 2.07903C10.1088 2.51107 10.0952 3.28078 10.6277 3.78103C11.0423 4.17066 11.1919 4.16643 12.7439 3.72157C13.402 3.53302 14.3783 3.47637 16.9747 3.47637C20.1665 3.47637 20.3874 3.49546 21.039 3.82844C21.418 4.02216 21.9434 4.45091 22.2066 4.78154C22.6501 5.33845 22.6891 5.48898 22.7388 6.83796C22.7739 7.78825 22.7254 8.42151 22.5992 8.66233C22.0098 9.78724 21.1898 10.7967 20.3821 11.3913C18.9821 12.4218 18.0212 12.7162 15.6043 12.8551C13.6561 12.967 13.4619 13.0082 12.3965 13.5361C11.1116 14.1727 10.1255 15.0499 9.43719 16.1687C9.08386 16.7428 8.87246 16.9334 8.58877 16.9334H8.21103L8.2162 12.7476C8.22089 8.90142 8.24749 8.49208 8.54558 7.70125C9.04302 6.38105 9.08762 5.6442 8.69142 5.28571C8.26189 4.89702 7.49437 4.90594 7.09629 5.30386C6.92307 5.47708 6.59431 6.10503 6.36555 6.69917C5.95401 7.76869 5.94932 7.8269 5.89658 12.4932L5.84354 17.2069L5.09589 17.6914C2.1765 19.5828 2.45081 24.0967 5.58363 25.7177C5.99735 25.9317 6.67537 26.0993 7.35041 26.1544L8.44575 26.2438L8.54495 27.3541C8.82301 30.4647 10.7015 33.7124 13.205 35.411C13.6381 35.7048 13.9944 35.9957 13.9966 36.0572C13.9988 36.1187 13.8422 36.2537 13.6486 36.3573C12.9623 36.7244 11.4398 38.3078 10.7197 39.4033C10.318 40.0142 9.78519 41.1056 9.53577 41.8287C9.09356 43.1099 9.08057 43.2376 9.02534 46.8596L8.96854 50.5759L8.55074 50.5723C8.32088 50.5703 7.22351 50.4337 6.11205 50.2686C4.34965 50.0068 4.03701 49.9966 3.66648 50.1882C3.43286 50.309 3.19798 50.5218 3.14447 50.6612C3.09111 50.8005 3.0473 53.2886 3.0473 56.1905V61.4664L2.52795 61.6542C1.74932 61.9358 0.824075 62.8027 0.386252 63.6607C0.0723599 64.2759 -0.00259252 64.6518 6.75888e-05 65.5977C0.00366656 66.9132 0.314117 67.6912 1.18162 68.5587C2.24848 69.6256 2.02222 69.5794 16.3478 71.6485L29.7266 73.5808L30.1092 74.088C30.9258 75.1702 32.7496 76.8357 33.8006 77.4589C36.091 78.817 38.8805 79.4133 41.3837 79.08C44.7712 78.6291 47.5905 76.9657 49.8339 74.0944C50.2032 73.6218 50.3215 73.58 51.9463 73.3484C52.893 73.2136 53.8963 73.0613 54.1761 73.0101L54.6847 72.9172L54.6881 74.9298C54.6919 77.1693 54.9048 77.9304 55.7033 78.5585C56.9725 79.557 58.1414 79.3761 60.1055 77.8774C60.8753 77.2899 61.5152 76.9077 61.6211 76.9718C61.7219 77.033 62.3774 77.519 63.0778 78.0521C64.4873 79.1248 65.1828 79.3457 66.2475 79.0591C67.0579 78.841 67.8619 78.0489 68.1085 77.2258C68.2265 76.8321 68.2981 75.5313 68.2981 73.7836V70.9741L72.4839 70.381C77.0053 69.7404 77.8237 69.5051 78.75 68.5787C80.8 66.5287 80.2513 63.0635 77.6692 61.7551L76.9044 61.3675V56.141C76.9044 53.2664 76.8605 50.8005 76.8072 50.6612C76.7537 50.5218 76.5177 50.3085 76.2828 50.1871C75.8646 49.9707 74.9343 50.0431 72.2659 50.4997L71.7743 50.5837L71.7007 47.02C71.6453 44.338 71.5621 43.224 71.3638 42.5173C70.7396 40.2916 69.2021 37.9928 67.458 36.6778L66.5619 36.0021L67.2016 35.5724C68.0526 35.0008 69.2963 33.7861 70.0521 32.7881L70.6658 31.9778L72.9205 31.9275C75.0238 31.8804 75.1992 31.853 75.5313 31.5203L75.8873 31.1637V22.7576C75.8873 15.222 75.8578 14.2149 75.603 13.0323C74.268 6.83843 69.3112 2.12973 63.148 1.20073C61.3539 0.93018 60.2213 0.932684 58.4376 1.2109ZM64.2236 3.79089C64.8658 3.97287 66.0277 4.44809 66.8055 4.84695C67.9769 5.44767 68.4887 5.84261 69.7847 7.14528C71.5644 8.93444 72.3626 10.2581 73.0918 12.6303L73.5248 14.0386L73.5324 21.7842L73.5401 29.5298L72.6404 29.5767C72.1454 29.6025 71.7431 29.5673 71.7463 29.4985C71.7492 29.4296 71.8538 28.9508 71.9785 28.4344C72.1528 27.7126 72.2057 26.2926 72.2076 22.2927C72.2099 17.2967 72.1975 17.0773 71.8971 16.7769C71.725 16.6048 71.5314 16.4635 71.4668 16.4627C70.7587 16.4557 69.1675 16.0476 68.5613 15.7176C67.5339 15.1585 66.5096 13.9825 66.1039 12.8966C65.6768 11.7532 65.401 11.4567 64.7643 11.4567C64.1499 11.4567 63.8772 11.706 63.3472 12.7519C62.7817 13.8677 61.4571 15.135 60.2825 15.6838C59.2345 16.1734 57.7241 16.4558 56.1271 16.4608C52.5577 16.4721 49.5209 19.5691 49.5209 23.1979V24.3088L48.8014 23.7192L48.082 23.1297L48.1536 18.5841C48.2345 13.4452 48.3098 12.9783 49.4408 10.5961C50.1848 9.0288 50.5629 8.48222 51.756 7.24856C53.7014 5.23721 56.058 3.98743 58.8831 3.46933C60.0797 3.24979 62.9164 3.42067 64.2236 3.79089ZM30.0643 3.83987C30.7243 4.18114 31.3743 4.87559 31.7015 5.58881C31.962 6.15666 31.9889 6.71153 31.9921 11.574L31.9955 16.9334H31.6181C31.2455 16.9334 31.2402 16.9121 31.1878 15.2173C31.1469 13.8913 31.077 13.4435 30.88 13.2468C30.7398 13.1067 30.1017 12.9014 29.4618 12.7903C27.6297 12.4721 26.4043 11.7143 25.5537 10.3729C25.1426 9.7248 25.1105 9.56019 25.1115 8.10089C25.1119 7.23557 25.1886 6.2529 25.2819 5.91694C25.4991 5.1344 26.5742 3.99932 27.3794 3.70232C28.1139 3.43146 29.4019 3.49734 30.0643 3.83987ZM25.9251 13.9689C26.4188 14.288 27.2824 14.6735 27.8443 14.8256L28.866 15.1021V20.5882V26.0744L28.316 27.3551C28.0135 28.0594 27.68 29.175 27.5752 29.8343C27.4057 30.8989 27.3015 31.1355 26.6432 31.9492C25.705 33.1087 23.9539 34.2874 22.4426 34.7771C20.9753 35.2523 18.7934 35.2906 17.3649 34.8664C14.9736 34.1562 12.8115 32.3615 11.7834 30.2339C10.8611 28.3251 10.7929 27.829 10.7929 23.036C10.7929 18.8773 10.805 18.7066 11.1526 17.9505C11.3506 17.5202 11.7731 16.898 12.0915 16.568C13.0676 15.5567 13.6644 15.3423 15.9435 15.1846C17.4022 15.0835 18.2994 14.9336 19.1478 14.6488C20.4915 14.1977 22.167 13.1455 22.9407 12.2669L23.4675 11.6687L24.2476 12.5287C24.6765 13.0017 25.4315 13.6497 25.9251 13.9689ZM67.0116 17.5353C67.418 17.7951 68.2258 18.1633 68.8067 18.3533L69.8629 18.6986V23.0252C69.8629 27.7941 69.7815 28.4002 68.8949 30.2339C68.2559 31.556 66.3966 33.4487 65.0904 34.107C61.768 35.7812 58.2564 35.4933 55.3706 33.3101C54.3094 32.5072 53.3671 31.3623 52.7448 30.1192C52.0238 28.6788 51.8679 27.7392 51.8696 24.8417C51.871 22.3625 51.8972 22.1204 52.2421 21.393C52.4461 20.9627 52.8855 20.3501 53.2185 20.0315C54.2035 19.0896 55.0026 18.8271 57.3707 18.6675C58.8718 18.5664 59.7205 18.4288 60.3961 18.1774C61.5674 17.7411 63.1785 16.7027 63.9756 15.8703L64.5821 15.2369L65.4273 16.1497C65.8922 16.6519 66.6051 17.2754 67.0116 17.5353ZM8.4301 19.3979C8.42149 19.5055 8.40381 20.5873 8.39098 21.802L8.36751 24.0104L7.62424 23.9055C6.76331 23.7843 6.24615 23.4571 5.7326 22.7086C5.43138 22.2697 5.37833 22.0281 5.43341 21.3426C5.48974 20.6419 5.58879 20.4214 6.05916 19.9512C6.40654 19.6037 6.84515 19.3473 7.21881 19.2735C8.01904 19.1151 8.44919 19.1593 8.4301 19.3979ZM33.0909 19.5434C33.6396 19.8703 34.036 20.4494 34.1371 21.0724C34.2201 21.5848 34.1935 21.6185 33.3831 22.0244C32.9212 22.2558 32.3319 22.6007 32.0737 22.7908C31.1681 23.4575 31.2131 23.5394 31.2131 21.2279V19.0885L31.9564 19.1995C32.3653 19.2605 32.8757 19.4153 33.0909 19.5434ZM16.4472 19.6049C16.0604 19.9091 16.0349 20.0102 16.0349 21.2418C16.0349 22.3905 16.0776 22.5942 16.3774 22.8734C16.8099 23.2763 17.5089 23.2832 17.9038 22.8883C18.5682 22.2239 18.5215 20.2422 17.8268 19.6326C17.3285 19.1953 16.977 19.1881 16.4472 19.6049ZM21.7674 19.6049C21.3806 19.9091 21.3551 20.0102 21.3551 21.2418C21.3551 22.3905 21.3978 22.5942 21.6976 22.8734C22.1336 23.2796 22.83 23.2823 23.2328 22.8795C23.4963 22.616 23.5458 22.358 23.5458 21.2479C23.5458 20.0096 23.5206 19.9094 23.1334 19.6049C22.9067 19.4265 22.5994 19.2805 22.4504 19.2805C22.3015 19.2805 21.9941 19.4265 21.7674 19.6049ZM55.1126 20.6879C54.2861 21.338 54.7062 22.5262 55.8656 22.8171C56.1252 22.8822 56.238 23.058 56.3101 23.5093C56.474 24.5339 57.3836 24.9062 58.1843 24.2764C58.5701 23.9728 58.5966 23.8695 58.5966 22.6607C58.5966 21.5219 58.555 21.3309 58.2445 21.0447C58.0452 20.861 57.5868 20.6837 57.1883 20.6362C56.801 20.5902 56.2718 20.5073 56.0124 20.4519C55.6601 20.3767 55.4321 20.4364 55.1126 20.6879ZM65.3251 20.5323C65.196 20.6158 64.8043 20.6851 64.4549 20.6865C63.3893 20.6904 63.1344 21.0677 63.1344 22.6395C63.1344 23.8711 63.1599 23.9722 63.5467 24.2764C64.3474 24.9062 65.257 24.5339 65.4208 23.5093C65.493 23.058 65.6058 22.8822 65.8654 22.8171C67.0125 22.5292 67.445 21.3382 66.634 20.7002C66.1909 20.3516 65.7019 20.2889 65.3251 20.5323ZM43.2809 23.4175C46.3862 24.0758 49.0243 26.6955 49.7691 29.8604C50.1767 31.5926 49.8559 34.3741 49.1394 35.3221C48.9279 35.602 48.9044 35.3858 48.9 33.1139C48.8942 30.1638 48.8827 30.1403 47.3345 29.9216C46.3346 29.7803 45.8481 29.5471 45.086 28.8446C44.6338 28.4274 44.0442 27.4297 44.0442 27.0815C44.0442 26.6922 43.3693 26.1655 42.8707 26.1655C42.3405 26.1655 41.9279 26.5271 41.5334 27.3372C41.1807 28.0617 40.0362 29.1292 39.2241 29.491C38.7253 29.7133 37.9579 29.8574 36.8342 29.9401C34.7878 30.0903 33.6858 30.4802 32.6338 31.4261C31.7342 32.2349 30.9723 33.6584 30.8075 34.8379L30.7 35.6083L30.43 35.0726C29.7713 33.7665 29.5632 31.4302 29.9572 29.7645C30.7262 26.5135 33.5659 23.849 36.8463 23.3004C37.8598 23.131 42.3112 23.212 43.2809 23.4175ZM16.8173 26.322C16.3762 26.7631 16.4054 27.5829 16.8781 28.027C17.3252 28.4468 18.9557 28.9821 19.7878 28.9821C20.6483 28.9821 22.3357 28.421 22.7197 28.0071C23.2309 27.4561 23.2478 26.8064 22.7634 26.322C22.3683 25.9269 21.8852 25.9259 21.0201 26.3186C20.645 26.4888 20.0915 26.6281 19.7903 26.6281C19.4891 26.6281 18.9356 26.4888 18.5606 26.3186C17.6954 25.9259 17.2124 25.9269 16.8173 26.322ZM57.8854 27.8015C57.0215 28.6652 57.6989 29.6856 59.4508 30.1597C60.7547 30.5128 61.9422 30.4002 63.1167 29.8127C64.1545 29.2935 64.4466 28.7568 64.0632 28.0738C63.6946 27.4169 63.145 27.3069 62.2196 27.7049C61.2478 28.123 60.4452 28.1296 59.5575 27.7268C58.666 27.3223 58.3503 27.3364 57.8854 27.8015ZM45.1752 31.7245C45.629 31.9358 46.1269 32.1093 46.282 32.1101C46.5485 32.1115 46.5612 32.3881 46.5167 37.2363L46.4696 42.3609L45.9655 43.4252C44.6778 46.144 41.6443 47.8013 38.8548 47.3099C36.8608 46.9586 35.0409 45.7513 34.0746 44.1388C33.2016 42.6816 33.0625 41.7752 33.1192 37.9072L33.1691 34.4848L33.6454 33.8068C34.3905 32.7463 35.1712 32.4017 37.1387 32.2653C39.366 32.1107 41.1782 31.3743 42.3186 30.1604L42.6874 29.7678L43.5188 30.5541C43.9762 30.9866 44.7215 31.5133 45.1752 31.7245ZM54.365 35.4861L55.1699 36.0642L54.6535 36.3774C53.8663 36.8546 52.1663 38.673 51.5762 39.669C51.2866 40.158 50.83 41.1748 50.5616 41.9288L50.0737 43.2997L50.0193 48.4979L49.9648 53.6961L49.3907 53.7954C49.0751 53.85 48.5528 53.9503 48.23 54.0182C47.6506 54.1401 47.6432 54.1354 47.6408 53.6497C47.6341 52.2102 46.8854 50.2902 45.7908 48.9054L45.1652 48.1139L46.2122 47.0369C47.9361 45.2635 48.895 43.0484 48.895 40.8391C48.895 39.7752 48.896 39.7732 49.8179 38.6129C50.7849 37.396 51.5615 35.9326 51.862 34.7613C51.9599 34.3798 52.0726 33.9715 52.1125 33.854C52.1629 33.7055 52.3948 33.8335 52.8727 34.274C53.2507 34.6226 53.9223 35.1679 54.365 35.4861ZM28.0612 35.4793C28.4566 36.582 29.6632 38.5292 30.3303 39.1412C30.6894 39.4707 30.744 39.6455 30.7464 40.4713C30.7536 42.9837 31.7171 45.3055 33.4869 47.0752L34.6168 48.205L34.0779 48.7254C33.1969 49.5763 32.3141 51.5389 32.2002 52.9001L32.104 54.0506L31.4779 53.9506C31.1335 53.8956 30.7922 53.8137 30.7194 53.7687C30.6467 53.7238 30.5861 51.4555 30.5849 48.7281C30.5822 43.093 30.509 42.549 29.4683 40.4403C28.804 39.0943 27.233 37.2262 26.1381 36.4805C25.8324 36.2722 25.5994 36.0553 25.6202 35.9984C25.6615 35.8859 27.4855 34.489 27.6156 34.4702C27.6594 34.464 27.8598 34.918 28.0612 35.4793ZM37.0028 35.3977C36.7494 35.651 36.6898 35.9192 36.6898 36.8059C36.6898 38.0668 36.9827 38.5272 37.7852 38.5272C38.5876 38.5272 38.8805 38.0668 38.8805 36.8059C38.8805 35.5451 38.5876 35.0847 37.7852 35.0847C37.5243 35.0847 37.1766 35.2238 37.0028 35.3977ZM41.0984 35.4468C40.821 35.7422 40.7582 35.9971 40.7582 36.8279C40.7582 37.6905 40.8138 37.8989 41.1203 38.187C41.6328 38.6683 42.3709 38.6364 42.781 38.1149C43.0235 37.8068 43.1054 37.4761 43.1054 36.8059C43.1054 36.1358 43.0235 35.8051 42.781 35.497C42.3571 34.9581 41.5794 34.9349 41.0984 35.4468ZM17.9689 37.3749L18.695 37.4744V44.7805V52.0865L15.1351 51.5706C13.1771 51.2869 11.5224 51.0527 11.4579 51.0502C11.3935 51.0475 11.3406 49.4386 11.3406 47.4748C11.3406 43.5659 11.4233 43.0401 12.3181 41.2674C12.9254 40.0641 14.5815 38.4031 15.8014 37.7739C16.8281 37.2445 16.9091 37.2295 17.9689 37.3749ZM23.673 37.7018C24.8854 38.2826 26.7745 40.1844 27.3685 41.422C28.215 43.1857 28.2682 43.5764 28.3534 48.6591L28.4327 53.3925L27.9842 53.3897C27.7376 53.3881 26.1276 53.1773 24.4064 52.9212C22.6851 52.665 21.224 52.455 21.1595 52.4546C21.095 52.4541 21.0421 49.0784 21.0421 44.9531V37.4527L21.4724 37.3874C22.4421 37.2406 22.8244 37.2951 23.673 37.7018ZM59.6137 37.4428C60.3993 37.5584 61.1565 37.5519 62.2921 37.4195L63.875 37.2348L64.8602 37.7598C66.9288 38.8624 68.6757 41.19 69.1639 43.4942C69.3156 44.2092 69.3889 45.5765 69.3908 47.7172C69.3935 50.8741 69.3925 50.8831 69.0414 50.9596C68.8477 51.0017 67.9173 51.1458 66.9736 51.2797C65.0635 51.5509 64.5427 51.8418 64.5427 52.6373C64.5427 53.2722 65.0419 53.7054 65.7731 53.7054C66.1054 53.7054 68.0867 53.459 70.1759 53.1578C72.265 52.8566 74.1055 52.6101 74.2657 52.6101C74.5431 52.6101 74.5572 52.8217 74.5572 56.9844V61.3586L74.0487 61.4467C73.7689 61.4952 72.5543 61.6745 71.3494 61.8454C70.1446 62.0162 68.965 62.1965 68.7284 62.2463L68.2981 62.3365V61.0933C68.2981 59.5358 67.9911 59.0257 67.0538 59.0257C66.7263 59.0257 64.0733 59.3774 61.1583 59.8073C58.2433 60.2371 55.767 60.5892 55.6556 60.5896C55.544 60.5901 55.28 60.7633 55.0688 60.9746C54.7159 61.3273 54.6847 61.4773 54.6847 62.8149V64.2712L50.4989 64.8716C47.8948 65.2453 46.0407 65.5881 45.5923 65.7794C44.6532 66.1793 43.8513 67.0157 43.2842 68.1863C42.8139 69.1572 41.7356 70.292 41.283 70.292C41.0505 70.292 41.035 69.9934 41.1181 67.1233C41.182 64.9194 41.2884 63.6688 41.4672 63.0158C42.1577 60.4959 43.9657 58.2932 46.2883 57.1423C47.7729 56.4065 48.3656 56.2904 56.6977 55.1033C61.9571 54.3539 62.1955 54.2761 62.1955 53.3089C62.1955 52.6955 61.7028 52.1407 61.1579 52.1407C60.8539 52.1407 54.2944 53.0709 52.8461 53.3194L52.3375 53.4067L52.3399 48.9008C52.3425 43.8033 52.4387 43.1091 53.3967 41.2817C54.1084 39.9239 55.5176 38.4765 56.7979 37.7881C57.8323 37.2319 58.0225 37.2086 59.6137 37.4428ZM37.343 40.6105C36.7034 41.2915 36.9563 42.0859 37.9859 42.6306C39.471 43.416 42.2278 42.9167 42.6201 41.7913C42.9724 40.7811 42.0333 39.9729 41.0045 40.4007C40.2115 40.7304 39.5961 40.7595 38.9677 40.4969C38.1523 40.1563 37.7429 40.1849 37.343 40.6105ZM38.8417 49.6471C39.7417 49.7807 40.9075 49.6978 42.4137 49.3931C42.8365 49.3077 42.9841 49.384 43.6158 50.0157C44.6499 51.0499 45.1491 52.162 45.2519 53.6608L45.3358 54.885L44.2372 55.6154C43.6329 56.0172 42.88 56.573 42.564 56.8505C41.8506 57.4768 40.708 58.9485 40.3462 59.7073C40.1968 60.0208 40.03 60.2775 39.9758 60.2775C39.9217 60.2775 39.7549 60.0208 39.6054 59.7073C38.8811 58.1883 37.0142 56.3064 35.2055 55.2715L34.3106 54.7595L34.4215 53.7247C34.5894 52.1555 35.0427 51.1236 35.9965 50.1389C36.7654 49.3452 36.866 49.2894 37.3453 49.3915C37.6302 49.4522 38.3036 49.5673 38.8417 49.6471ZM17.9409 54.331C24.509 55.2776 30.4464 56.1562 31.1349 56.2836C34.6444 56.9326 37.5459 59.5904 38.4844 63.0158C38.6633 63.6688 38.7697 64.9194 38.8335 67.1233C38.9166 69.9934 38.9011 70.292 38.6686 70.292C38.2061 70.292 37.128 69.1452 36.6502 68.1453C36.1046 67.0028 35.1552 66.0646 34.177 65.7011C33.7948 65.559 27.356 64.5606 19.8686 63.4823C12.3811 62.404 6.06151 61.4827 5.82476 61.4348L5.39445 61.3479V56.9791C5.39445 52.7669 5.40525 52.6101 5.69661 52.6101C5.86263 52.6101 11.3726 53.3845 17.9409 54.331ZM65.951 69.0211C65.951 75.3892 65.9169 76.541 65.7232 76.7019C65.4548 76.9246 65.4348 76.9139 63.9168 75.7472C61.9359 74.2249 61.0331 74.2318 59.0126 75.7842C56.9331 77.3821 57.1168 77.9495 57.0694 69.7834C57.047 65.9321 57.047 62.7783 57.0694 62.7747C59.9152 62.3262 65.2084 61.5559 65.5207 61.5448L65.951 61.5293V69.0211ZM18.7732 65.6775C30.2054 67.3363 33.4094 67.8499 33.7168 68.0727C33.9319 68.2287 34.3791 68.8695 34.7107 69.4966C35.4771 70.9467 36.2938 71.7599 37.605 72.3791C38.5173 72.8097 38.8101 72.8704 39.9758 72.8704C41.1416 72.8704 41.4344 72.8097 42.3466 72.3791C43.6579 71.7599 44.4745 70.9467 45.241 69.4966C45.5725 68.8695 46.0197 68.2296 46.2349 68.0749C46.5159 67.8725 47.69 67.6385 50.4038 67.2432C52.4816 66.9406 54.2947 66.693 54.433 66.693C54.6507 66.693 54.6847 66.9565 54.6847 68.649C54.6847 69.7248 54.6573 70.6049 54.6239 70.6049C54.026 70.6049 48.9135 71.4643 48.7612 71.5904C48.6446 71.687 48.2807 72.1613 47.9524 72.6446C46.2656 75.1287 42.991 76.8585 39.9758 76.8585C36.9607 76.8585 33.6861 75.1287 31.9993 72.6446C31.671 72.1613 31.307 71.6874 31.1904 71.5915C31.0739 71.4956 24.8198 70.5247 17.2926 69.434C9.76532 68.3432 3.49842 67.3925 3.3662 67.321C2.37773 66.7877 1.99687 65.4498 2.57239 64.5325C2.85921 64.0753 3.62016 63.5848 4.0644 63.5708C4.15046 63.568 10.7694 64.5161 18.7732 65.6775ZM76.5147 63.7888C77.7149 64.2902 78.0391 65.9102 77.1294 66.8597C76.8893 67.1102 76.582 67.3498 76.4465 67.3918C76.183 67.4738 68.7621 68.5707 68.4715 68.5707C68.2736 68.5707 68.2179 64.6654 68.4155 64.6491C68.4801 64.6438 70.0468 64.4056 71.8971 64.1201C75.9183 63.4992 75.8359 63.5051 76.5147 63.7888Z" fill="#94B0D5"/>
</g>
</svg>
