<svg width="80" height="80" viewBox="0 0 80 80" fill="none" xmlns="http://www.w3.org/2000/svg">
<path fill-rule="evenodd" clip-rule="evenodd" d="M45.3433 0.200561C44.5846 0.475327 43.7811 1.17647 43.4244 1.87448C43.2507 2.21442 43.0429 2.49263 42.9626 2.49263C42.5171 2.49263 33.4525 6.23323 32.4148 6.84528C28.3655 9.23378 25.4813 13.309 24.5802 17.9155C24.3945 18.8651 23.5533 27.6788 23.5533 28.6761C23.5533 28.7902 23.1832 29.0528 22.7308 29.2597C21.3139 29.9075 20.4465 31.0249 20.097 32.6524L19.928 33.439L18.2587 33.4406C16.2406 33.4425 15.3703 33.7696 14.3728 34.9013L13.7331 35.6272H12.4661H11.1991L10.8605 34.8411C10.427 33.8348 9.25391 32.7696 8.17316 32.4009C5.84172 31.6057 3.43 32.5578 2.34144 34.7033C1.63925 36.0871 1.93925 37.0338 3.07993 37.0338C3.68587 37.0338 3.98133 36.778 4.29823 35.978C4.58336 35.2583 5.41387 34.5847 6.17427 34.4564C6.95267 34.3251 8.09398 34.826 8.60008 35.5213C8.91494 35.954 8.92198 36.1586 8.96361 46.1322C9.00555 56.1592 9.00164 56.3112 8.68036 56.9739C7.87364 58.6385 5.42373 58.7154 4.50824 57.1051C4.0372 56.2764 3.25598 53.8747 2.89433 52.1433C2.14551 48.5581 2.084 45.6505 2.6707 41.5645C2.75254 40.9954 2.71248 40.7858 2.46303 40.4782C2.04911 39.9678 1.1006 39.9461 0.701698 40.4379C-0.0482183 41.3629 -0.253381 48.0163 0.363203 51.4129C0.972119 54.7666 2.07493 57.9795 2.97946 59.0348C3.28243 59.3884 3.93329 59.8752 4.42608 60.1169C5.65221 60.7183 7.43295 60.7386 8.60822 60.1648C9.61196 59.6747 10.6228 58.635 10.9645 57.7412L11.2329 57.0396H12.529H13.8252L14.1572 57.576C14.6218 58.327 15.7581 59.0308 16.8531 59.2458C17.7675 59.4256 17.7772 59.4331 17.6775 59.886C17.5047 60.6715 17.5776 61.8255 17.8396 62.4541C18.1415 63.1785 19.1994 64.2943 19.8324 64.5561C20.2671 64.736 20.2851 64.781 20.1961 65.4642C19.8862 67.8417 19.1739 75.2654 19.0823 77.0711L18.9742 79.2069L19.3787 79.6109C19.8568 80.0884 20.4056 80.1279 20.9089 79.7209C21.2518 79.4435 21.2834 79.2592 21.4648 76.4778C21.6288 73.9608 22.2451 67.6969 22.5427 65.5186L22.6336 64.8543H26.3768H30.1201L30.1976 65.206C30.3774 66.0234 31.234 74.8176 31.3491 77.0273C31.4658 79.2724 31.498 79.4512 31.8347 79.7234C32.3359 80.1287 32.8847 80.0873 33.365 79.6076L33.7728 79.2003L33.6728 76.8926C33.5882 74.9391 32.8013 66.7342 32.5558 65.245C32.4852 64.8168 32.5451 64.7394 33.2462 64.3532C34.8389 63.4758 35.6799 61.2994 35.0547 59.6724C34.98 59.4782 35.1503 59.3907 35.8816 59.2469C36.9949 59.0283 38.1235 58.3451 38.6096 57.596L38.9679 57.0435L40.2517 57.0414L41.5354 57.0396L41.8632 57.782C42.2948 58.7596 43.284 59.7489 44.2732 60.1925C45.4497 60.7202 47.2799 60.693 48.3575 60.1319C49.7219 59.4215 50.3284 58.5891 51.1519 56.2968C52.1187 53.6058 52.6606 50.6848 52.7974 47.4274L52.8959 45.083L57.4342 45.0005C61.8848 44.9194 61.9927 44.9098 63.0205 44.5027C65.1801 43.647 66.3053 42.6829 68.5724 39.7468L69.9432 37.9716H73.0895C76.9367 37.9716 77.3608 37.8644 78.6669 36.5612C79.3755 35.8543 79.6091 35.4902 79.8205 34.7639C80.4874 32.4731 79.2318 29.8633 77.1142 29.1378L76.5264 28.9365L76.1018 23.881C75.6419 18.4052 75.3639 16.8202 74.4916 14.7C73.8206 13.0691 73.5938 12.8081 72.8488 12.8081C71.679 12.8081 71.4561 13.7015 72.2192 15.3304C73.0245 17.0492 73.2888 18.4841 73.7074 23.41C73.9237 25.9561 74.1007 28.1992 74.1007 28.3948C74.1007 28.7491 74.0935 28.7502 71.6855 28.7502C69.5198 28.7502 69.2624 28.7219 69.192 28.4767C68.9183 27.524 64.3917 7.91716 64.4355 7.87355C64.5692 7.74007 66.785 8.98996 67.9192 9.8388C68.6078 10.3541 69.3328 10.7758 69.5303 10.7759C70.0245 10.7764 70.6579 10.1054 70.6579 9.58154C70.6579 9.26864 70.4464 8.95902 69.869 8.4259C68.2184 6.90249 66.6784 6.16947 58.334 2.93494C57.3382 2.54889 56.7299 2.22849 56.7299 2.08985C56.7299 1.66958 55.276 0.344665 54.6173 0.164613C53.7412 -0.0746746 46.0206 -0.0448223 45.3433 0.200561ZM54.345 2.71488C54.5962 3.03372 54.7004 3.75096 55.0049 7.25118C55.2037 9.53778 55.3376 11.4375 55.3023 11.4727C55.267 11.508 54.7462 11.2959 54.1451 11.0015C52.4829 10.1872 51.2905 9.93914 49.5312 10.0418C47.8904 10.1375 46.6014 10.514 45.4233 11.2419C44.5282 11.7948 44.5743 12.3294 45.0535 6.95985C45.3923 3.16313 45.4372 2.89102 45.769 2.62266C46.0914 2.36196 46.4774 2.33633 50.0849 2.33633H54.0469L54.345 2.71488ZM42.4257 10.3074C42.1221 13.6782 41.9703 14.7593 41.7218 15.3187C40.9229 17.1165 40.7094 19.3297 41.1571 21.1699C41.3579 21.9948 41.3568 22.4463 41.1481 24.921C41.0175 26.4683 40.8753 27.9629 40.8321 28.2422L40.7534 28.7502H37.0047C34.4808 28.7502 33.2559 28.6963 33.2559 28.5854C33.2559 28.4948 33.4672 27.5376 33.7254 26.4586C33.9836 25.3795 34.1949 24.2689 34.1949 23.9905C34.1949 23.3625 33.7346 22.9152 33.0888 22.9152C32.266 22.9152 32.0559 23.3131 31.4106 26.0954L30.8129 28.672L28.3567 28.715C27.0059 28.7388 25.9007 28.7013 25.9007 28.6319C25.9007 27.9565 26.7242 19.0722 26.8521 18.3672C27.417 15.2533 29.3632 12.0387 31.9041 10.022C33.1492 9.03373 35.6033 7.67881 35.6033 7.97967C35.6033 8.08345 35.0659 10.4609 34.409 13.2624C33.752 16.0642 33.2198 18.5669 33.2259 18.8242C33.2453 19.631 34.1991 20.101 34.9752 19.6863C35.3606 19.4802 35.3822 19.4037 36.9384 12.7299C37.68 9.54934 38.3413 6.89092 38.408 6.82231C38.4747 6.75354 39.4731 6.32451 40.6265 5.8686L42.7238 5.03992L42.7682 5.52459C42.7928 5.79107 42.6386 7.94341 42.4257 10.3074ZM60.2813 6.1965L61.7199 6.74713L62.047 8.17551C62.2269 8.96121 63.3793 13.8943 64.608 19.138L66.8418 28.672L63.0928 28.7139C61.0309 28.7371 59.321 28.7331 59.2931 28.7053C59.2653 28.6775 59.1071 27.1625 58.9415 25.3389C58.6775 22.431 58.6673 21.934 58.8589 21.2982C59.1137 20.4526 59.1414 18.0426 58.9079 17.0281C58.8188 16.6412 58.5758 15.9379 58.3676 15.4651C58.041 14.7229 57.9356 13.992 57.5944 10.1111C57.3772 7.63911 57.1994 5.47739 57.1994 5.30719C57.1994 5.00085 57.2073 5.001 58.021 5.32188C58.4728 5.50021 59.49 5.89376 60.2813 6.1965ZM52.0819 12.6535C52.6772 12.8372 53.4998 13.2612 54.0608 13.6735C57.7725 16.4026 57.6418 22.0706 53.8063 24.706C50.451 27.0117 45.6826 25.6871 43.8986 21.9537C42.9438 19.9556 43.0967 17.3371 44.2757 15.4918C45.9363 12.8934 49.114 11.7379 52.0819 12.6535ZM48.2793 14.6561C47.2829 15.0269 45.9015 16.4287 45.5682 17.4075C44.0335 21.9148 49.132 25.6799 52.9113 22.8305C54.0437 21.9767 54.7415 20.5455 54.7325 19.0954C54.7234 17.6287 54.276 16.6226 53.1938 15.6348C52.7192 15.2016 52.0411 14.7648 51.6215 14.6221C50.6843 14.3031 49.187 14.3184 48.2793 14.6561ZM51.2542 17.0671C52.0865 17.6328 52.4084 18.1806 52.4084 19.0313C52.4084 21.0681 50.0904 22.2486 48.5812 20.9803C46.7973 19.4813 47.7275 16.718 50.0167 16.7161C50.5067 16.7156 50.9023 16.8278 51.2542 17.0671ZM46.1925 27.3388C47.5161 27.9235 48.5604 28.1474 49.9655 28.1474C52.2148 28.1474 54.0423 27.5245 55.6627 26.2055L56.5517 25.4821L56.6315 25.9048C56.6753 26.1374 56.7567 26.8728 56.8123 27.5389L56.9132 28.7502H50.0123H43.1113L43.187 28.1641C43.2285 27.8418 43.3047 27.1097 43.3562 26.5375L43.4498 25.4971L44.4527 26.2552C45.0044 26.6722 45.7873 27.1599 46.1925 27.3388ZM76.4425 31.4463C78.0464 32.2676 78.1141 34.3732 76.5669 35.3153C76.0691 35.6186 75.7542 35.6261 63.4592 35.6261H50.8614L50.5583 34.8898C49.4732 32.2554 45.9904 31.2867 43.5321 32.9356C42.7631 33.4514 41.8792 34.5697 41.7567 35.1817L41.6675 35.6272H40.2875C38.9227 35.6272 38.9044 35.622 38.6324 35.1622C38.3102 34.6173 37.3138 33.8765 36.5581 33.6197C36.1878 33.4939 33.967 33.439 29.2513 33.439C25.1114 33.439 22.4404 33.3809 22.3839 33.2896C22.2446 33.0644 22.679 32.1579 23.1214 31.7507C23.3364 31.553 23.7153 31.3305 23.9632 31.2562C24.2112 31.1821 35.9659 31.1154 50.0849 31.108L75.7558 31.0946L76.4425 31.4463ZM47.1828 34.6291C48.0369 34.9704 48.3319 35.4396 49.0539 37.606C50.1752 40.9696 50.3738 42.2609 50.3834 46.2552C50.3909 49.3386 50.347 49.9933 50.028 51.5692C49.6167 53.5994 48.599 56.7428 48.1585 57.3437C47.1954 58.6572 45.2022 58.5541 44.1419 57.1357C43.8236 56.7099 43.8192 56.5629 43.8192 46.4392C43.8192 36.42 43.8268 36.1611 44.1358 35.6272C44.4707 35.0482 45.5776 34.3768 46.1967 34.3768C46.3918 34.3768 46.8355 34.4903 47.1828 34.6291ZM17.4501 46.422V57.0607L17.098 56.9599C16.9044 56.9045 16.5169 56.6194 16.2373 56.3264L15.7287 55.7937V46.3201V36.8463L16.2607 36.3149C16.5534 36.0226 16.9407 35.7835 17.1215 35.7835H17.4501V46.422ZM32.9429 46.4132V57.043L26.4093 57.0022L19.8757 56.9614L19.8355 46.3724L19.7953 35.7835H26.3691H32.9429V46.4132ZM36.4656 36.3008C36.8343 36.669 37.0129 37.0183 37.085 37.5121C37.1407 37.8937 37.1647 42.1447 37.1382 46.9585C37.0921 55.3417 37.0772 55.7301 36.7842 56.1621C36.5327 56.533 35.7185 57.0396 35.3736 57.0396C35.3277 57.0396 35.2903 52.2569 35.2903 46.4115V35.7835H35.619C35.7997 35.7835 36.1808 36.0163 36.4656 36.3008ZM13.3813 46.3334V54.6951H12.3641H11.3468V46.3334V37.9716H12.3641H13.3813V46.3334ZM41.3936 46.3334V54.6951H40.3764H39.3592V46.4376C39.3592 41.8958 39.4061 38.133 39.4636 38.0758C39.5208 38.0185 39.9786 37.9716 40.4808 37.9716H41.3936V46.3334ZM66.8069 38.167C66.4934 38.7055 65.1139 40.3376 64.4743 40.9263C63.566 41.7625 62.119 42.4421 60.7988 42.6523C60.2393 42.7414 58.1827 42.8149 56.2284 42.8155L52.6754 42.8167L52.5807 42.2306C52.4646 41.5103 51.9104 38.8045 51.7805 38.3232L51.6857 37.9716H59.303C65.3534 37.9716 66.8972 38.0117 66.8069 38.167ZM32.3661 59.7614C32.8362 60.1966 33.0207 60.7725 32.8753 61.351C32.8195 61.5732 32.5904 61.9249 32.3661 62.1324L31.9583 62.5099H26.4281H20.898L20.4045 62.0698C19.9937 61.7031 19.9113 61.5154 19.9113 60.9469C19.9113 60.3785 19.9937 60.1908 20.4045 59.8241L20.898 59.384H26.4281H31.9583L32.3661 59.7614Z" fill="#94B0D5"/>
</svg>
