<svg width="570" height="750" viewBox="0 0 570 750" fill="none" xmlns="http://www.w3.org/2000/svg">
<g opacity="0.3">
<path d="M16.488 9.63272L17.0249 7.50152L19.1479 6.97285L17.0249 6.44419L16.488 4.31299L15.9593 6.44419L13.8281 6.97285L15.9593 7.50152L16.488 9.63272Z" fill="#CA9A67"/>
<path d="M16.493 51.315L17.1042 48.8865L19.5328 48.2752L17.1042 47.6639L16.493 45.2354L15.89 47.6639L13.4531 48.2752L15.89 48.8865L16.493 51.315Z" fill="#CA9A67"/>
<path d="M16.4901 92.9971L17.1758 90.2629L19.91 89.5773L17.1758 88.8917L16.4901 86.1575L15.8045 88.8917L13.0703 89.5773L15.8045 90.2629L16.4901 92.9971Z" fill="#CA9A67"/>
<path d="M16.4873 134.679L17.2473 131.639L20.2871 130.879L17.2473 130.119L16.4873 127.079L15.7274 130.119L12.6875 130.879L15.7274 131.639L16.4873 134.679Z" fill="#CA9A67"/>
<path d="M16.4923 176.362L17.3266 173.016L20.6721 172.182L17.3266 171.347L16.4923 168.002L15.658 171.347L12.3125 172.182L15.658 173.016L16.4923 176.362Z" fill="#CA9A67"/>
<path d="M16.4895 218.044L17.4064 214.393L21.0492 213.484L17.4064 212.575L16.4895 208.924L15.5808 212.575L11.9297 213.484L15.5808 214.393L16.4895 218.044Z" fill="#CA9A67"/>
<path d="M16.4866 259.726L17.4779 255.777L21.4264 254.786L17.4779 253.795L16.4866 249.846L15.5036 253.795L11.5469 254.786L15.5036 255.777L16.4866 259.726Z" fill="#CA9A67"/>
<path d="M16.4916 301.408L17.5572 297.154L21.8113 296.089L17.5572 295.023L16.4916 290.769L15.426 295.023L11.1719 296.089L15.426 297.154L16.4916 301.408Z" fill="#CA9A67"/>
<path d="M16.4888 343.09L17.6287 338.531L22.1885 337.391L17.6287 336.251L16.4888 331.691L15.3488 336.251L10.7891 337.391L15.3488 338.531L16.4888 343.09Z" fill="#CA9A67"/>
<path d="M16.4938 384.773L17.7163 379.908L22.5734 378.693L17.7163 377.479L16.4938 372.614L15.2795 377.479L10.4141 378.693L15.2795 379.908L16.4938 384.773Z" fill="#CA9A67"/>
<path d="M16.4909 426.455L17.7878 421.292L22.9506 419.995L17.7878 418.698L16.4909 413.536L15.2023 418.698L10.0312 419.995L15.2023 421.292L16.4909 426.455Z" fill="#CA9A67"/>
<path d="M16.4881 468.137L17.8593 462.669L23.3277 461.298L17.8593 459.926L16.4881 454.458L15.1251 459.926L9.64844 461.298L15.1251 462.669L16.4881 468.137Z" fill="#CA9A67"/>
<path d="M16.4931 509.819L17.9387 504.045L23.7127 502.599L17.9387 501.154L16.4931 495.38L15.0558 501.154L9.27344 502.599L15.0558 504.045L16.4931 509.819Z" fill="#CA9A67"/>
<path d="M16.4902 551.501L18.0102 545.421L24.0898 543.901L18.0102 542.381L16.4902 536.302L14.9703 542.381L8.89062 543.901L14.9703 545.421L16.4902 551.501Z" fill="#CA9A67"/>
<path d="M16.4874 593.184L18.0899 586.798L24.467 585.204L18.0899 583.61L16.4874 577.225L14.8931 583.61L8.50781 585.204L14.8931 586.798L16.4874 593.184Z" fill="#CA9A67"/>
<path d="M16.4924 634.866L18.1693 628.175L24.852 626.506L18.1693 624.838L16.4924 618.147L14.8238 624.838L8.13281 626.506L14.8238 628.175L16.4924 634.866Z" fill="#CA9A67"/>
<path d="M16.4896 676.548L18.2408 669.56L25.2291 667.808L18.2408 666.057L16.4896 659.069L14.7466 666.057L7.75 667.808L14.7466 669.56L16.4896 676.548Z" fill="#CA9A67"/>
<path d="M16.4867 699.991L14.6612 707.285L7.36719 709.111L14.6612 710.937L16.4867 718.23L18.3123 710.937L25.6063 709.111L18.3123 707.285L16.4867 699.991Z" fill="#CA9A67"/>
<path d="M57.7897 10.153L58.4257 7.60881L60.9699 6.97275L58.4257 6.33669L57.7897 3.79248L57.1536 6.33669L54.6094 6.97275L57.1536 7.60881L57.7897 10.153Z" fill="#CA9A67"/>
<path d="M57.7909 51.9097L58.5178 49.002L61.4254 48.2751L58.5178 47.5482L57.7909 44.6405L57.0639 47.5482L54.1562 48.2751L57.0639 49.002L57.7909 51.9097Z" fill="#CA9A67"/>
<path d="M57.792 93.6662L58.6098 90.3951L61.881 89.5773L58.6098 88.7595L57.792 85.4884L56.9743 88.7595L53.7031 89.5773L56.9743 90.3951L57.792 93.6662Z" fill="#CA9A67"/>
<path d="M57.7932 135.423L58.7019 131.788L62.3365 130.88L58.7019 129.971L57.7932 126.336L56.8846 129.971L53.25 130.88L56.8846 131.788L57.7932 135.423Z" fill="#CA9A67"/>
<path d="M57.7944 177.179L58.794 173.181L62.792 172.182L58.794 171.182L57.7944 167.184L56.7949 171.182L52.7969 172.182L56.7949 173.181L57.7944 177.179Z" fill="#CA9A67"/>
<path d="M57.7956 218.936L58.886 214.574L63.2475 213.484L58.886 212.393L57.7956 208.032L56.7053 212.393L52.3438 213.484L56.7053 214.574L57.7956 218.936Z" fill="#CA9A67"/>
<path d="M57.789 260.693L58.9703 255.968L63.6953 254.786L58.9703 253.605L57.789 248.88L56.6078 253.605L51.8828 254.786L56.6078 255.968L57.789 260.693Z" fill="#CA9A67"/>
<path d="M57.7902 302.449L59.0623 297.361L64.1508 296.089L59.0623 294.816L57.7902 289.728L56.5181 294.816L51.4297 296.089L56.5181 297.361L57.7902 302.449Z" fill="#CA9A67"/>
<path d="M57.7914 344.205L59.1544 338.754L64.6063 337.391L59.1544 336.028L57.7914 330.576L56.4284 336.028L50.9766 337.391L56.4284 338.754L57.7914 344.205Z" fill="#CA9A67"/>
<path d="M57.7926 385.962L59.2465 380.147L65.0618 378.693L59.2465 377.239L57.7926 371.424L56.3388 377.239L50.5234 378.693L56.3388 380.147L57.7926 385.962Z" fill="#CA9A67"/>
<path d="M57.7938 427.718L59.3385 421.54L65.5173 419.995L59.3385 418.45L57.7938 412.271L56.2491 418.45L50.0703 419.995L56.2491 421.54L57.7938 427.718Z" fill="#CA9A67"/>
<path d="M57.795 469.475L59.4306 462.933L65.9729 461.297L59.4306 459.662L57.795 453.119L56.1595 459.662L49.6172 461.297L56.1595 462.933L57.795 469.475Z" fill="#CA9A67"/>
<path d="M57.7962 511.232L59.5227 504.326L66.4284 502.599L59.5227 500.873L57.7962 493.967L56.0698 500.873L49.1641 502.599L56.0698 504.326L57.7962 511.232Z" fill="#CA9A67"/>
<path d="M57.7896 552.988L59.6069 545.719L66.8761 543.902L59.6069 542.085L57.7896 534.815L55.9723 542.085L48.7031 543.902L55.9723 545.719L57.7896 552.988Z" fill="#CA9A67"/>
<path d="M57.7908 594.745L59.699 587.113L67.3316 585.205L59.699 583.296L57.7908 575.664L55.8827 583.296L48.25 585.205L55.8827 587.113L57.7908 594.745Z" fill="#CA9A67"/>
<path d="M57.792 636.501L59.791 628.505L67.7872 626.506L59.791 624.507L57.792 616.511L55.793 624.507L47.7969 626.506L55.793 628.505L57.792 636.501Z" fill="#CA9A67"/>
<path d="M57.7932 678.258L59.8831 669.899L68.2427 667.809L59.8831 665.719L57.7932 657.359L55.7033 665.719L47.3438 667.809L55.7033 669.899L57.7932 678.258Z" fill="#CA9A67"/>
<path d="M59.9752 706.93L57.7944 698.207L55.6137 706.93L46.8906 709.111L55.6137 711.292L57.7944 720.015L59.9752 711.292L68.6982 709.111L59.9752 706.93Z" fill="#CA9A67"/>
<path d="M99.0913 10.6735L99.8347 7.71621L102.792 6.97278L99.8347 6.22934L99.0913 3.27209L98.3561 6.22934L95.3906 6.97278L98.3561 7.71621L99.0913 10.6735Z" fill="#CA9A67"/>
<path d="M99.0965 52.5043L99.9474 49.1176L103.326 48.275L99.9474 47.4324L99.0965 44.0457L98.254 47.4324L94.8672 48.275L98.254 49.1176L99.0965 52.5043Z" fill="#CA9A67"/>
<path d="M99.0939 94.3352L100.044 90.5272L103.852 89.5772L100.044 88.6273L99.0939 84.8192L98.144 88.6273L94.3359 89.5772L98.144 90.5272L99.0939 94.3352Z" fill="#CA9A67"/>
<path d="M99.0914 136.166L100.149 131.937L104.378 130.879L100.149 129.822L99.0914 125.593L98.034 129.822L93.8047 130.879L98.034 131.937L99.0914 136.166Z" fill="#CA9A67"/>
<path d="M99.0966 177.997L100.261 173.346L104.912 172.182L100.261 171.017L99.0966 166.366L97.9319 171.017L93.2812 172.182L97.9319 173.346L99.0966 177.997Z" fill="#CA9A67"/>
<path d="M99.094 219.828L100.366 214.756L105.438 213.484L100.366 212.212L99.094 207.14L97.8302 212.212L92.75 213.484L97.8302 214.756L99.094 219.828Z" fill="#CA9A67"/>
<path d="M99.0914 261.659L100.471 256.158L105.964 254.786L100.471 253.415L99.0914 247.914L97.7202 253.415L92.2188 254.786L97.7202 256.158L99.0914 261.659Z" fill="#CA9A67"/>
<path d="M99.0967 303.49L100.584 297.567L106.498 296.088L100.584 294.61L99.0967 288.687L97.6181 294.61L91.6953 296.088L97.6181 297.567L99.0967 303.49Z" fill="#CA9A67"/>
<path d="M99.0941 345.32L100.68 338.976L107.024 337.39L100.68 335.804L99.0941 329.46L97.5081 335.804L91.1641 337.39L97.5081 338.976L99.0941 345.32Z" fill="#CA9A67"/>
<path d="M99.0915 387.152L100.785 380.386L107.55 378.693L100.785 377L99.0915 370.234L97.3981 377L90.6328 378.693L97.3981 380.386L99.0915 387.152Z" fill="#CA9A67"/>
<path d="M99.0967 428.983L100.898 421.796L108.084 419.995L100.898 418.195L99.0967 411.008L97.3042 418.195L90.1094 419.995L97.3042 421.796L99.0967 428.983Z" fill="#CA9A67"/>
<path d="M99.0942 470.813L101.002 463.197L108.61 461.297L101.002 459.397L99.0942 451.781L97.1943 459.397L89.5781 461.297L97.1943 463.197L99.0942 470.813Z" fill="#CA9A67"/>
<path d="M99.0916 512.645L101.107 504.607L109.136 502.6L101.107 500.593L99.0916 492.555L97.0843 500.593L89.0469 502.6L97.0843 504.607L99.0916 512.645Z" fill="#CA9A67"/>
<path d="M99.0968 554.476L101.211 546.017L109.67 543.902L101.211 541.788L99.0968 533.329L96.9821 541.788L88.5234 543.902L96.9821 546.017L99.0968 554.476Z" fill="#CA9A67"/>
<path d="M99.0942 574.102L96.8804 582.982L87.9922 585.204L96.8804 587.426L99.0942 596.306L101.316 587.426L110.196 585.204L101.316 582.982L99.0942 574.102Z" fill="#CA9A67"/>
<path d="M96.7705 628.836L99.0916 638.137L101.421 628.836L110.722 626.506L101.421 624.177L99.0916 614.876L96.7705 624.177L87.4609 626.506L96.7705 628.836Z" fill="#CA9A67"/>
<path d="M99.0969 679.968L101.534 670.238L111.256 667.809L101.534 665.38L99.0969 655.65L96.6683 665.38L86.9375 667.809L96.6683 670.238L99.0969 679.968Z" fill="#CA9A67"/>
<path d="M101.63 706.575L99.0943 696.423L96.5583 706.575L86.4062 709.111L96.5583 711.647L99.0943 721.799L101.63 711.647L111.782 709.111L101.63 706.575Z" fill="#CA9A67"/>
<path d="M140.401 11.1938L141.243 7.81525L144.622 6.97268L141.243 6.13011L140.401 2.75159L139.558 6.13011L136.18 6.97268L139.558 7.81525L140.401 11.1938Z" fill="#CA9A67"/>
<path d="M140.394 53.099L141.361 49.2414L145.219 48.2749L141.361 47.3084L140.394 43.4508L139.428 47.3084L135.57 48.2749L139.428 49.2414L140.394 53.099Z" fill="#CA9A67"/>
<path d="M140.396 95.0045L141.486 90.6595L145.823 89.5774L141.486 88.4953L140.396 84.1503L139.314 88.4953L134.969 89.5774L139.314 90.6595L140.396 95.0045Z" fill="#CA9A67"/>
<path d="M140.397 136.909L141.603 132.085L146.427 130.879L141.603 129.673L140.397 124.849L139.191 129.673L134.367 130.879L139.191 132.085L140.397 136.909Z" fill="#CA9A67"/>
<path d="M140.399 178.815L141.729 173.512L147.032 172.182L141.729 170.852L140.399 165.549L139.077 170.852L133.766 172.182L139.077 173.512L140.399 178.815Z" fill="#CA9A67"/>
<path d="M140.4 220.72L141.854 214.93L147.636 213.484L141.854 212.038L140.4 206.248L138.955 212.038L133.164 213.484L138.955 214.93L140.4 220.72Z" fill="#CA9A67"/>
<path d="M140.394 262.626L141.963 256.356L148.233 254.786L141.963 253.217L140.394 246.947L138.824 253.217L132.555 254.786L138.824 256.356L140.394 262.626Z" fill="#CA9A67"/>
<path d="M140.395 304.531L142.089 297.774L148.837 296.088L142.089 294.403L140.395 287.646L138.71 294.403L131.953 296.088L138.71 297.774L140.395 304.531Z" fill="#CA9A67"/>
<path d="M140.397 346.436L142.206 339.2L149.442 337.391L142.206 335.582L140.397 328.345L138.588 335.582L131.352 337.391L138.588 339.2L140.397 346.436Z" fill="#CA9A67"/>
<path d="M140.398 388.341L142.331 380.626L150.046 378.693L142.331 376.76L140.398 369.045L138.474 376.76L130.75 378.693L138.474 380.626L140.398 388.341Z" fill="#CA9A67"/>
<path d="M140.4 430.247L142.456 422.044L150.651 419.995L142.456 417.947L140.4 409.744L138.351 417.947L130.148 419.995L138.351 422.044L140.4 430.247Z" fill="#CA9A67"/>
<path d="M140.401 450.443L138.237 459.125L129.547 461.297L138.237 463.47L140.401 472.151L142.574 463.47L151.255 461.297L142.574 459.125L140.401 450.443Z" fill="#CA9A67"/>
<path d="M138.107 504.888L140.395 514.057L142.691 504.888L151.852 502.6L142.691 500.312L140.395 491.142L138.107 500.312L128.938 502.6L138.107 504.888Z" fill="#CA9A67"/>
<path d="M140.396 531.842L137.984 541.49L128.336 543.902L137.984 546.314L140.396 555.962L142.808 546.314L152.456 543.902L142.808 541.49L140.396 531.842Z" fill="#CA9A67"/>
<path d="M137.87 587.74L140.398 597.867L142.934 587.74L153.061 585.204L142.934 582.668L140.398 572.541L137.87 582.668L127.734 585.204L137.87 587.74Z" fill="#CA9A67"/>
<path d="M140.399 639.772L143.051 629.158L153.665 626.506L143.051 623.854L140.399 613.24L137.747 623.854L127.133 626.506L137.747 629.158L140.399 639.772Z" fill="#CA9A67"/>
<path d="M140.401 681.678L143.176 670.584L154.27 667.809L143.176 665.033L140.401 653.939L137.625 665.033L126.531 667.809L137.625 670.584L140.401 681.678Z" fill="#CA9A67"/>
<path d="M143.294 706.22L140.394 694.638L137.503 706.22L125.922 709.111L137.503 712.002L140.394 723.583L143.294 712.002L154.866 709.111L143.294 706.22Z" fill="#CA9A67"/>
<path d="M181.702 11.7141L182.652 7.92252L186.444 6.97257L182.652 6.02263L181.702 2.23108L180.752 6.02263L176.961 6.97257L180.752 7.92252L181.702 11.7141Z" fill="#CA9A67"/>
<path d="M181.7 53.6937L182.79 49.3569L187.119 48.2748L182.79 47.1927L181.7 42.856L180.618 47.1927L176.281 48.2748L180.618 49.3569L181.7 53.6937Z" fill="#CA9A67"/>
<path d="M181.698 95.6736L182.92 90.8L187.794 89.5774L182.92 88.3549L181.698 83.4812L180.483 88.3549L175.602 89.5774L180.483 90.8L181.698 95.6736Z" fill="#CA9A67"/>
<path d="M181.695 137.653L183.05 132.234L188.469 130.88L183.05 129.525L181.695 124.106L180.341 129.525L174.922 130.88L180.341 132.234L181.695 137.653Z" fill="#CA9A67"/>
<path d="M181.701 179.633L183.196 173.669L189.152 172.182L183.196 170.695L181.701 164.731L180.214 170.695L174.25 172.182L180.214 173.669L181.701 179.633Z" fill="#CA9A67"/>
<path d="M181.699 221.612L183.326 215.111L189.827 213.484L183.326 211.857L181.699 205.356L180.071 211.857L173.57 213.484L180.071 215.111L181.699 221.612Z" fill="#CA9A67"/>
<path d="M181.696 263.592L183.456 256.546L190.502 254.786L183.456 253.027L181.696 245.981L179.937 253.027L172.891 254.786L179.937 256.546L181.696 263.592Z" fill="#CA9A67"/>
<path d="M181.702 305.571L183.602 297.988L191.185 296.088L183.602 294.188L181.702 286.605L179.81 294.188L172.219 296.088L179.81 297.988L181.702 305.571Z" fill="#CA9A67"/>
<path d="M181.699 347.551L183.731 339.423L191.86 337.391L183.731 335.359L181.699 327.23L179.667 335.359L171.539 337.391L179.667 339.423L181.699 347.551Z" fill="#CA9A67"/>
<path d="M181.697 367.855L179.533 376.529L170.859 378.693L179.533 380.857L181.697 389.531L183.87 380.857L192.535 378.693L183.87 376.529L181.697 367.855Z" fill="#CA9A67"/>
<path d="M179.398 422.3L181.703 431.51L184.007 422.3L193.218 419.995L184.007 417.691L181.703 408.48L179.398 417.691L170.188 419.995L179.398 422.3Z" fill="#CA9A67"/>
<path d="M181.7 449.105L179.263 458.861L169.508 461.297L179.263 463.734L181.7 473.49L184.137 463.734L193.893 461.297L184.137 458.861L181.7 449.105Z" fill="#CA9A67"/>
<path d="M181.698 489.73L179.129 500.022L168.828 502.6L179.129 505.177L181.698 515.469L184.275 505.177L194.568 502.6L184.275 500.022L181.698 489.73Z" fill="#CA9A67"/>
<path d="M178.986 546.612L181.696 557.449L184.405 546.612L195.243 543.902L184.405 541.193L181.696 530.355L178.986 541.193L168.148 543.902L178.986 546.612Z" fill="#CA9A67"/>
<path d="M181.701 599.429L184.551 588.046L195.926 585.204L184.551 582.363L181.701 570.98L178.859 582.363L167.477 585.204L178.859 588.046L181.701 599.429Z" fill="#CA9A67"/>
<path d="M181.699 641.408L184.681 629.488L196.601 626.506L184.681 623.524L181.699 611.604L178.717 623.524L166.797 626.506L178.717 629.488L181.699 641.408Z" fill="#CA9A67"/>
<path d="M181.696 683.388L184.811 670.923L197.276 667.809L184.811 664.694L181.696 652.229L178.582 664.694L166.117 667.809L178.582 670.923L181.696 683.388Z" fill="#CA9A67"/>
<path d="M197.958 709.111L184.956 705.864L181.702 692.854L178.456 705.864L165.445 709.111L178.456 712.357L181.702 725.367L184.956 712.357L197.958 709.111Z" fill="#CA9A67"/>
<path d="M223.004 12.2345L224.061 8.02168L228.266 6.9726L224.061 5.92352L223.004 1.71069L221.955 5.92352L217.742 6.9726L221.955 8.02168L223.004 12.2345Z" fill="#CA9A67"/>
<path d="M222.998 54.2886L224.204 49.481L229.012 48.275L224.204 47.0689L222.998 42.2614L221.8 47.0689L216.984 48.275L221.8 49.481L222.998 54.2886Z" fill="#CA9A67"/>
<path d="M223 96.3426L224.354 90.932L229.765 89.5773L224.354 88.2226L223 82.812L221.653 88.2226L216.234 89.5773L221.653 90.932L223 96.3426Z" fill="#CA9A67"/>
<path d="M223.001 138.396L224.505 132.383L230.518 130.879L224.505 129.376L223.001 123.362L221.498 129.376L215.484 130.879L221.498 132.383L223.001 138.396Z" fill="#CA9A67"/>
<path d="M223.003 180.45L224.663 173.834L231.272 172.182L224.663 170.529L223.003 163.913L221.351 170.529L214.734 172.182L221.351 173.834L223.003 180.45Z" fill="#CA9A67"/>
<path d="M223.005 222.504L224.814 215.285L232.025 213.484L224.814 211.683L223.005 204.464L221.204 211.683L213.984 213.484L221.204 215.285L223.005 222.504Z" fill="#CA9A67"/>
<path d="M222.999 264.558L224.956 256.744L232.771 254.786L224.956 252.828L222.999 245.014L221.049 252.828L213.227 254.786L221.049 256.744L222.999 264.558Z" fill="#CA9A67"/>
<path d="M223 306.613L225.107 298.195L233.524 296.089L225.107 293.982L223 285.565L220.894 293.982L212.477 296.089L220.894 298.195L223 306.613Z" fill="#CA9A67"/>
<path d="M223.002 326.115L220.747 335.136L211.727 337.391L220.747 339.646L223.002 348.666L225.257 339.646L234.278 337.391L225.257 335.136L223.002 326.115Z" fill="#CA9A67"/>
<path d="M223.004 366.666L220.6 376.289L210.977 378.693L220.6 381.097L223.004 390.72L225.408 381.097L235.031 378.693L225.408 376.289L223.004 366.666Z" fill="#CA9A67"/>
<path d="M223.005 407.216L220.453 417.443L210.227 419.995L220.453 422.548L223.005 432.774L225.566 422.548L235.784 419.995L225.566 417.443L223.005 407.216Z" fill="#CA9A67"/>
<path d="M220.298 464.007L222.999 474.828L225.709 464.007L236.53 461.297L225.709 458.588L222.999 447.767L220.298 458.588L209.469 461.297L220.298 464.007Z" fill="#CA9A67"/>
<path d="M223.001 488.317L220.151 499.741L208.719 502.6L220.151 505.458L223.001 516.882L225.859 505.458L237.283 502.6L225.859 499.741L223.001 488.317Z" fill="#CA9A67"/>
<path d="M223.003 558.936L226.01 546.909L238.037 543.902L226.01 540.895L223.003 528.868L219.996 540.895L207.969 543.902L219.996 546.909L223.003 558.936Z" fill="#CA9A67"/>
<path d="M223.004 600.99L226.168 588.36L238.79 585.204L226.168 582.049L223.004 569.418L219.849 582.049L207.219 585.204L219.849 588.36L223.004 600.99Z" fill="#CA9A67"/>
<path d="M222.998 643.044L226.311 629.81L239.536 626.506L226.311 623.202L222.998 609.969L219.694 623.202L206.461 626.506L219.694 629.81L222.998 643.044Z" fill="#CA9A67"/>
<path d="M223 685.098L226.461 671.261L240.289 667.808L226.461 664.356L223 650.519L219.547 664.356L205.711 667.808L219.547 671.261L223 685.098Z" fill="#CA9A67"/>
<path d="M241.043 709.111L226.612 705.502L223.002 691.071L219.392 705.502L204.961 709.111L219.392 712.721L223.002 727.152L226.612 712.721L241.043 709.111Z" fill="#CA9A67"/>
<path d="M264.306 12.7553L265.462 8.12944L270.088 6.97299L265.462 5.81653L264.306 1.19067L263.149 5.81653L258.523 6.97299L263.149 8.12944L264.306 12.7553Z" fill="#CA9A67"/>
<path d="M264.304 54.8835L265.625 49.5968L270.912 48.2751L265.625 46.9534L264.304 41.6667L262.982 46.9534L257.695 48.2751L262.982 49.5968L264.304 54.8835Z" fill="#CA9A67"/>
<path d="M264.302 97.0119L265.788 91.0644L271.736 89.5775L265.788 88.0906L264.302 82.1431L262.815 88.0906L256.867 89.5775L262.815 91.0644L264.302 97.0119Z" fill="#CA9A67"/>
<path d="M264.307 139.14L265.959 132.532L272.568 130.88L265.959 129.227L264.307 122.619L262.655 129.227L256.047 130.88L262.655 132.532L264.307 139.14Z" fill="#CA9A67"/>
<path d="M264.305 181.268L266.123 173.999L273.392 172.182L266.123 170.365L264.305 163.095L262.488 170.365L255.219 172.182L262.488 173.999L264.305 181.268Z" fill="#CA9A67"/>
<path d="M264.303 223.396L266.286 215.466L274.216 213.484L266.286 211.501L264.303 203.571L262.321 211.501L254.391 213.484L262.321 215.466L264.303 223.396Z" fill="#CA9A67"/>
<path d="M264.301 265.525L266.449 256.934L275.04 254.786L266.449 252.639L264.301 244.048L262.153 252.639L253.562 254.786L262.153 256.934L264.301 265.525Z" fill="#CA9A67"/>
<path d="M264.307 284.524L261.994 293.776L252.742 296.089L261.994 298.401L264.307 307.653L266.62 298.401L275.871 296.089L266.62 293.776L264.307 284.524Z" fill="#CA9A67"/>
<path d="M264.305 325L261.827 334.913L251.914 337.391L261.827 339.869L264.305 349.781L266.783 339.869L276.695 337.391L266.783 334.913L264.305 325Z" fill="#CA9A67"/>
<path d="M264.303 365.476L261.659 376.05L251.086 378.693L261.659 381.336L264.303 391.91L266.946 381.336L277.519 378.693L266.946 376.05L264.303 365.476Z" fill="#CA9A67"/>
<path d="M264.301 405.952L261.492 417.187L250.258 419.995L261.492 422.804L264.301 434.038L267.109 422.804L278.343 419.995L267.109 417.187L264.301 405.952Z" fill="#CA9A67"/>
<path d="M264.306 446.429L261.333 458.324L249.438 461.298L261.333 464.271L264.306 476.166L267.28 464.271L279.175 461.298L267.28 458.324L264.306 446.429Z" fill="#CA9A67"/>
<path d="M264.304 518.294L267.443 505.738L279.999 502.6L267.443 499.461L264.304 486.905L261.165 499.461L248.609 502.6L261.165 505.738L264.304 518.294Z" fill="#CA9A67"/>
<path d="M264.302 560.423L267.606 547.206L280.823 543.902L267.606 540.598L264.302 527.381L260.998 540.598L247.781 543.902L260.998 547.206L264.302 560.423Z" fill="#CA9A67"/>
<path d="M264.3 602.551L267.769 588.673L281.647 585.204L267.769 581.734L264.3 567.857L260.831 581.734L246.953 585.204L260.831 588.673L264.3 602.551Z" fill="#CA9A67"/>
<path d="M267.94 630.141L282.479 626.506L267.94 622.872L264.306 608.333L260.671 622.872L246.133 626.506L260.671 630.141L264.306 644.679L267.94 630.141Z" fill="#CA9A67"/>
<path d="M268.104 671.608L283.303 667.808L268.104 664.009L264.304 648.809L260.504 664.009L245.305 667.808L260.504 671.608L264.304 686.807L268.104 671.608Z" fill="#CA9A67"/>
<path d="M284.127 709.111L268.267 705.146L264.302 689.286L260.337 705.146L244.477 709.111L260.337 713.076L264.302 728.936L268.267 713.076L284.127 709.111Z" fill="#CA9A67"/>
<path d="M305.603 12.7553L306.759 8.12944L311.385 6.97299L306.759 5.81653L305.603 1.19067L304.446 5.81653L299.82 6.97299L304.446 8.12944L305.603 12.7553Z" fill="#CA9A67"/>
<path d="M305.608 54.8835L306.93 49.5968L312.217 48.2751L306.93 46.9534L305.608 41.6667L304.287 46.9534L299 48.2751L304.287 49.5968L305.608 54.8835Z" fill="#CA9A67"/>
<path d="M305.606 97.0119L307.093 91.0644L313.041 89.5775L307.093 88.0906L305.606 82.1431L304.119 88.0906L298.172 89.5775L304.119 91.0644L305.606 97.0119Z" fill="#CA9A67"/>
<path d="M305.604 139.14L307.256 132.532L313.865 130.88L307.256 129.227L305.604 122.619L303.952 129.227L297.344 130.88L303.952 132.532L305.604 139.14Z" fill="#CA9A67"/>
<path d="M305.602 181.268L307.419 173.999L314.689 172.182L307.419 170.365L305.602 163.095L303.785 170.365L296.516 172.182L303.785 173.999L305.602 181.268Z" fill="#CA9A67"/>
<path d="M305.608 223.396L307.59 215.466L315.52 213.484L307.59 211.501L305.608 203.571L303.625 211.501L295.695 213.484L303.625 215.466L305.608 223.396Z" fill="#CA9A67"/>
<path d="M305.606 244.048L303.458 252.639L294.867 254.786L303.458 256.934L305.606 265.525L307.754 256.934L316.344 254.786L307.754 252.639L305.606 244.048Z" fill="#CA9A67"/>
<path d="M305.604 284.524L303.291 293.776L294.039 296.089L303.291 298.401L305.604 307.653L307.917 298.401L317.168 296.089L307.917 293.776L305.604 284.524Z" fill="#CA9A67"/>
<path d="M305.609 325L303.131 334.913L293.219 337.391L303.131 339.869L305.609 349.781L308.088 339.869L318 337.391L308.088 334.913L305.609 325Z" fill="#CA9A67"/>
<path d="M305.607 365.476L302.964 376.05L292.391 378.693L302.964 381.336L305.607 391.91L308.251 381.336L318.824 378.693L308.251 376.05L305.607 365.476Z" fill="#CA9A67"/>
<path d="M305.605 405.952L302.797 417.187L291.562 419.995L302.797 422.804L305.605 434.038L308.414 422.804L319.648 419.995L308.414 417.187L305.605 405.952Z" fill="#CA9A67"/>
<path d="M305.603 476.166L308.577 464.271L320.472 461.298L308.577 458.324L305.603 446.429L302.629 458.324L290.734 461.298L302.629 464.271L305.603 476.166Z" fill="#CA9A67"/>
<path d="M305.609 518.294L308.748 505.738L321.304 502.6L308.748 499.461L305.609 486.905L302.47 499.461L289.914 502.6L302.47 505.738L305.609 518.294Z" fill="#CA9A67"/>
<path d="M305.607 560.423L308.911 547.206L322.128 543.902L308.911 540.598L305.607 527.381L302.303 540.598L289.086 543.902L302.303 547.206L305.607 560.423Z" fill="#CA9A67"/>
<path d="M309.074 588.673L322.952 585.204L309.074 581.734L305.605 567.857L302.135 581.734L288.258 585.204L302.135 588.673L305.605 602.551L309.074 588.673Z" fill="#CA9A67"/>
<path d="M309.237 630.141L323.776 626.506L309.237 622.872L305.603 608.333L301.968 622.872L287.43 626.506L301.968 630.141L305.603 644.679L309.237 630.141Z" fill="#CA9A67"/>
<path d="M309.408 671.608L324.607 667.808L309.408 664.009L305.608 648.809L301.809 664.009L286.609 667.808L301.809 671.608L305.608 686.807L309.408 671.608Z" fill="#CA9A67"/>
<path d="M325.431 709.111L309.571 705.146L305.606 689.286L301.641 705.146L285.781 709.111L301.641 713.076L305.606 728.936L309.571 713.076L325.431 709.111Z" fill="#CA9A67"/>
<path d="M346.91 12.2345L347.968 8.02168L352.172 6.9726L347.968 5.92352L346.91 1.71069L345.861 5.92352L341.648 6.9726L345.861 8.02168L346.91 12.2345Z" fill="#CA9A67"/>
<path d="M346.904 54.2886L348.11 49.481L352.918 48.275L348.11 47.0689L346.904 42.2614L345.706 47.0689L340.891 48.275L345.706 49.481L346.904 54.2886Z" fill="#CA9A67"/>
<path d="M346.906 96.3426L348.261 90.932L353.671 89.5773L348.261 88.2226L346.906 82.812L345.551 88.2226L340.141 89.5773L345.551 90.932L346.906 96.3426Z" fill="#CA9A67"/>
<path d="M346.908 138.396L348.411 132.383L354.425 130.879L348.411 129.376L346.908 123.362L345.404 129.376L339.391 130.879L345.404 132.383L346.908 138.396Z" fill="#CA9A67"/>
<path d="M346.909 180.45L348.561 173.834L355.178 172.182L348.561 170.529L346.909 163.913L345.257 170.529L338.641 172.182L345.257 173.834L346.909 180.45Z" fill="#CA9A67"/>
<path d="M346.911 222.504L348.72 215.285L355.931 213.484L348.72 211.683L346.911 204.464L345.11 211.683L337.891 213.484L345.11 215.285L346.911 222.504Z" fill="#CA9A67"/>
<path d="M346.905 264.558L348.863 256.744L356.677 254.786L348.863 252.828L346.905 245.014L344.955 252.828L337.133 254.786L344.955 256.744L346.905 264.558Z" fill="#CA9A67"/>
<path d="M346.907 285.565L344.8 293.982L336.383 296.089L344.8 298.195L346.907 306.613L349.013 298.195L357.43 296.089L349.013 293.982L346.907 285.565Z" fill="#CA9A67"/>
<path d="M346.908 326.115L344.653 335.136L335.633 337.391L344.653 339.646L346.908 348.666L349.163 339.646L358.184 337.391L349.163 335.136L346.908 326.115Z" fill="#CA9A67"/>
<path d="M346.91 366.666L344.506 376.289L334.883 378.693L344.506 381.097L346.91 390.72L349.322 381.097L358.937 378.693L349.322 376.289L346.91 366.666Z" fill="#CA9A67"/>
<path d="M349.472 417.443L346.912 407.216L344.359 417.443L334.133 419.995L344.359 422.548L346.912 432.774L349.472 422.548L359.691 419.995L349.472 417.443Z" fill="#CA9A67"/>
<path d="M346.906 447.767L344.204 458.588L333.375 461.297L344.204 464.007L346.906 474.828L349.615 464.007L360.436 461.297L349.615 458.588L346.906 447.767Z" fill="#CA9A67"/>
<path d="M346.907 488.317L344.057 499.741L332.625 502.6L344.057 505.458L346.907 516.882L349.765 505.458L361.19 502.6L349.765 499.741L346.907 488.317Z" fill="#CA9A67"/>
<path d="M346.909 558.936L349.916 546.909L361.943 543.902L349.916 540.895L346.909 528.868L343.902 540.895L331.875 543.902L343.902 546.909L346.909 558.936Z" fill="#CA9A67"/>
<path d="M346.911 600.99L350.074 588.36L362.696 585.204L350.074 582.049L346.911 569.418L343.755 582.049L331.125 585.204L343.755 588.36L346.911 600.99Z" fill="#CA9A67"/>
<path d="M350.225 629.81L363.45 626.506L350.225 623.202L346.912 609.969L343.608 623.202L330.375 626.506L343.608 629.81L346.912 643.044L350.225 629.81Z" fill="#CA9A67"/>
<path d="M350.367 671.261L364.195 667.808L350.367 664.356L346.906 650.519L343.453 664.356L329.617 667.808L343.453 671.261L346.906 685.098L350.367 671.261Z" fill="#CA9A67"/>
<path d="M364.949 709.111L350.518 705.502L346.908 691.071L343.298 705.502L328.867 709.111L343.298 712.721L346.908 727.152L350.518 712.721L364.949 709.111Z" fill="#CA9A67"/>
<path d="M388.21 11.7141L389.16 7.92252L392.952 6.97257L389.16 6.02263L388.21 2.23108L387.26 6.02263L383.469 6.97257L387.26 7.92252L388.21 11.7141Z" fill="#CA9A67"/>
<path d="M388.208 53.6937L389.298 49.3569L393.627 48.2748L389.298 47.1927L388.208 42.856L387.126 47.1927L382.789 48.2748L387.126 49.3569L388.208 53.6937Z" fill="#CA9A67"/>
<path d="M388.213 95.6736L389.436 90.8L394.31 89.5774L389.436 88.3549L388.213 83.4812L386.999 88.3549L382.117 89.5774L386.999 90.8L388.213 95.6736Z" fill="#CA9A67"/>
<path d="M388.211 137.653L389.566 132.234L394.985 130.88L389.566 129.525L388.211 124.106L386.856 129.525L381.438 130.88L386.856 132.234L388.211 137.653Z" fill="#CA9A67"/>
<path d="M388.209 179.633L389.704 173.669L395.66 172.182L389.704 170.695L388.209 164.731L386.722 170.695L380.758 172.182L386.722 173.669L388.209 179.633Z" fill="#CA9A67"/>
<path d="M388.206 221.612L389.834 215.111L396.335 213.484L389.834 211.857L388.206 205.356L386.587 211.857L380.078 213.484L386.587 215.111L388.206 221.612Z" fill="#CA9A67"/>
<path d="M388.212 263.592L389.971 256.546L397.018 254.786L389.971 253.027L388.212 245.981L386.452 253.027L379.406 254.786L386.452 256.546L388.212 263.592Z" fill="#CA9A67"/>
<path d="M388.21 305.571L390.109 297.988L397.693 296.088L390.109 294.188L388.21 286.605L386.318 294.188L378.727 296.088L386.318 297.988L388.21 305.571Z" fill="#CA9A67"/>
<path d="M388.207 347.551L390.239 339.423L398.368 337.391L390.239 335.359L388.207 327.23L386.175 335.359L378.047 337.391L386.175 339.423L388.207 347.551Z" fill="#CA9A67"/>
<path d="M390.385 376.529L388.213 367.855L386.048 376.529L377.375 378.693L386.048 380.857L388.213 389.531L390.385 380.857L399.05 378.693L390.385 376.529Z" fill="#CA9A67"/>
<path d="M388.21 408.48L385.906 417.691L376.695 419.995L385.906 422.3L388.21 431.51L390.515 422.3L399.725 419.995L390.515 417.691L388.21 408.48Z" fill="#CA9A67"/>
<path d="M388.208 449.105L385.771 458.861L376.016 461.297L385.771 463.734L388.208 473.49L390.645 463.734L400.4 461.297L390.645 458.861L388.208 449.105Z" fill="#CA9A67"/>
<path d="M390.791 500.022L388.214 489.73L385.645 500.022L375.344 502.6L385.645 505.177L388.214 515.469L390.791 505.177L401.083 502.6L390.791 500.022Z" fill="#CA9A67"/>
<path d="M388.211 530.355L385.502 541.193L374.664 543.902L385.502 546.612L388.211 557.449L390.921 546.612L401.758 543.902L390.921 541.193L388.211 530.355Z" fill="#CA9A67"/>
<path d="M388.209 599.429L391.059 588.046L402.433 585.204L391.059 582.363L388.209 570.98L385.367 582.363L373.984 585.204L385.367 588.046L388.209 599.429Z" fill="#CA9A67"/>
<path d="M388.207 641.408L391.189 629.488L403.108 626.506L391.189 623.524L388.207 611.604L385.225 623.524L373.305 626.506L385.225 629.488L388.207 641.408Z" fill="#CA9A67"/>
<path d="M388.212 683.388L391.326 670.923L403.791 667.809L391.326 664.694L388.212 652.229L385.098 664.694L372.633 667.809L385.098 670.923L388.212 683.388Z" fill="#CA9A67"/>
<path d="M391.464 705.864L388.21 692.854L384.963 705.864L371.953 709.111L384.963 712.357L388.21 725.367L391.464 712.357L404.466 709.111L391.464 705.864Z" fill="#CA9A67"/>
<path d="M429.51 11.1938L430.353 7.81525L433.731 6.97268L430.353 6.13011L429.51 2.75159L428.668 6.13011L425.289 6.97268L428.668 7.81525L429.51 11.1938Z" fill="#CA9A67"/>
<path d="M429.512 53.0989L430.478 49.2413L434.336 48.2748L430.478 47.3083L429.512 43.4507L428.545 47.3083L424.688 48.2748L428.545 49.2413L429.512 53.0989Z" fill="#CA9A67"/>
<path d="M429.513 95.0045L430.603 90.6595L434.94 89.5774L430.603 88.4953L429.513 84.1503L428.431 88.4953L424.086 89.5774L428.431 90.6595L429.513 95.0045Z" fill="#CA9A67"/>
<path d="M429.514 136.909L430.721 132.085L435.545 130.879L430.721 129.673L429.514 124.849L428.308 129.673L423.484 130.879L428.308 132.085L429.514 136.909Z" fill="#CA9A67"/>
<path d="M429.516 178.815L430.846 173.512L436.149 172.182L430.846 170.852L429.516 165.549L428.194 170.852L422.883 172.182L428.194 173.512L429.516 178.815Z" fill="#CA9A67"/>
<path d="M429.51 220.72L430.955 214.93L436.746 213.484L430.955 212.038L429.51 206.248L428.064 212.038L422.273 213.484L428.064 214.93L429.51 220.72Z" fill="#CA9A67"/>
<path d="M429.511 262.626L431.081 256.356L437.35 254.786L431.081 253.217L429.511 246.947L427.942 253.217L421.672 254.786L427.942 256.356L429.511 262.626Z" fill="#CA9A67"/>
<path d="M429.512 304.531L431.206 297.774L437.955 296.088L431.206 294.403L429.512 287.646L427.827 294.403L421.07 296.088L427.827 297.774L429.512 304.531Z" fill="#CA9A67"/>
<path d="M429.514 346.436L431.323 339.2L438.559 337.391L431.323 335.582L429.514 328.345L427.705 335.582L420.469 337.391L427.705 339.2L429.514 346.436Z" fill="#CA9A67"/>
<path d="M429.515 388.341L431.448 380.626L439.164 378.693L431.448 376.76L429.515 369.045L427.591 376.76L419.867 378.693L427.591 380.626L429.515 388.341Z" fill="#CA9A67"/>
<path d="M429.509 409.744L427.46 417.947L419.258 419.995L427.46 422.044L429.509 430.246L431.558 422.044L439.76 419.995L431.558 417.947L429.509 409.744Z" fill="#CA9A67"/>
<path d="M431.683 459.125L429.51 450.443L427.338 459.125L418.656 461.297L427.338 463.47L429.51 472.152L431.683 463.47L440.365 461.297L431.683 459.125Z" fill="#CA9A67"/>
<path d="M429.512 491.142L427.224 500.312L418.055 502.6L427.224 504.888L429.512 514.057L431.808 504.888L440.969 502.6L431.808 500.312L429.512 491.142Z" fill="#CA9A67"/>
<path d="M431.925 541.49L429.513 531.842L427.101 541.49L417.453 543.902L427.101 546.314L429.513 555.962L431.925 546.314L441.574 543.902L431.925 541.49Z" fill="#CA9A67"/>
<path d="M429.515 572.541L426.987 582.668L416.852 585.204L426.987 587.74L429.515 597.867L432.051 587.74L442.178 585.204L432.051 582.668L429.515 572.541Z" fill="#CA9A67"/>
<path d="M429.508 639.772L432.16 629.158L442.775 626.506L432.16 623.854L429.508 613.24L426.857 623.854L416.242 626.506L426.857 629.158L429.508 639.772Z" fill="#CA9A67"/>
<path d="M429.51 681.678L432.285 670.584L443.379 667.809L432.285 665.033L429.51 653.939L426.734 665.033L415.641 667.809L426.734 670.584L429.51 681.678Z" fill="#CA9A67"/>
<path d="M432.411 706.22L429.511 694.638L426.62 706.22L415.039 709.111L426.62 712.002L429.511 723.583L432.411 712.002L443.984 709.111L432.411 706.22Z" fill="#CA9A67"/>
<path d="M470.818 10.6735L471.561 7.71621L474.519 6.97278L471.561 6.22934L470.818 3.27209L470.083 6.22934L467.117 6.97278L470.083 7.71621L470.818 10.6735Z" fill="#CA9A67"/>
<path d="M470.815 52.5043L471.666 49.1176L475.045 48.275L471.666 47.4324L470.815 44.0457L469.973 47.4324L466.586 48.275L469.973 49.1176L470.815 52.5043Z" fill="#CA9A67"/>
<path d="M470.813 94.3352L471.771 90.5272L475.571 89.5772L471.771 88.6273L470.813 84.8192L469.863 88.6273L466.055 89.5772L469.863 90.5272L470.813 94.3352Z" fill="#CA9A67"/>
<path d="M470.818 136.166L471.875 131.937L476.105 130.879L471.875 129.822L470.818 125.593L469.761 129.822L465.531 130.879L469.761 131.937L470.818 136.166Z" fill="#CA9A67"/>
<path d="M470.815 177.997L471.98 173.346L476.631 172.182L471.98 171.017L470.815 166.366L469.651 171.017L465 172.182L469.651 173.346L470.815 177.997Z" fill="#CA9A67"/>
<path d="M470.813 219.828L472.085 214.756L477.157 213.484L472.085 212.212L470.813 207.14L469.549 212.212L464.469 213.484L469.549 214.756L470.813 219.828Z" fill="#CA9A67"/>
<path d="M470.818 261.659L472.197 256.158L477.691 254.786L472.197 253.415L470.818 247.914L469.447 253.415L463.945 254.786L469.447 256.158L470.818 261.659Z" fill="#CA9A67"/>
<path d="M470.815 303.49L472.302 297.567L478.217 296.088L472.302 294.61L470.815 288.687L469.337 294.61L463.414 296.088L469.337 297.567L470.815 303.49Z" fill="#CA9A67"/>
<path d="M470.813 345.32L472.399 338.976L478.743 337.39L472.399 335.804L470.813 329.46L469.227 335.804L462.883 337.39L469.227 338.976L470.813 345.32Z" fill="#CA9A67"/>
<path d="M470.818 387.152L472.511 380.386L479.277 378.693L472.511 377L470.818 370.234L469.125 377L462.359 378.693L469.125 380.386L470.818 387.152Z" fill="#CA9A67"/>
<path d="M470.815 428.983L472.616 421.796L479.803 419.995L472.616 418.195L470.815 411.008L469.023 418.195L461.828 419.995L469.023 421.796L470.815 428.983Z" fill="#CA9A67"/>
<path d="M470.813 470.813L472.721 463.197L480.329 461.297L472.721 459.397L470.813 451.781L468.913 459.397L461.297 461.297L468.913 463.197L470.813 470.813Z" fill="#CA9A67"/>
<path d="M470.818 512.645L472.825 504.607L480.863 502.6L472.825 500.593L470.818 492.555L468.811 500.593L460.773 502.6L468.811 504.607L470.818 512.645Z" fill="#CA9A67"/>
<path d="M470.816 533.329L468.701 541.788L460.242 543.902L468.701 546.017L470.816 554.476L472.93 546.017L481.389 543.902L472.93 541.788L470.816 533.329Z" fill="#CA9A67"/>
<path d="M473.035 582.982L470.813 574.102L468.599 582.982L459.711 585.204L468.599 587.426L470.813 596.306L473.035 587.426L481.915 585.204L473.035 582.982Z" fill="#CA9A67"/>
<path d="M470.818 614.876L468.497 624.177L459.188 626.506L468.497 628.836L470.818 638.137L473.148 628.836L482.449 626.506L473.148 624.177L470.818 614.876Z" fill="#CA9A67"/>
<path d="M470.816 679.968L473.252 670.238L482.975 667.809L473.252 665.38L470.816 655.65L468.387 665.38L458.656 667.809L468.387 670.238L470.816 679.968Z" fill="#CA9A67"/>
<path d="M473.357 706.575L470.813 696.423L468.277 706.575L458.125 709.111L468.277 711.647L470.813 721.799L473.357 711.647L483.501 709.111L473.357 706.575Z" fill="#CA9A67"/>
<path d="M512.118 10.153L512.754 7.60881L515.298 6.97275L512.754 6.33669L512.118 3.79248L511.482 6.33669L508.938 6.97275L511.482 7.60881L512.118 10.153Z" fill="#CA9A67"/>
<path d="M512.119 51.9097L512.846 49.002L515.754 48.2751L512.846 47.5482L512.119 44.6405L511.392 47.5482L508.484 48.2751L511.392 49.002L512.119 51.9097Z" fill="#CA9A67"/>
<path d="M512.12 93.6662L512.938 90.3951L516.209 89.5773L512.938 88.7595L512.12 85.4884L511.302 88.7595L508.031 89.5773L511.302 90.3951L512.12 93.6662Z" fill="#CA9A67"/>
<path d="M512.114 135.423L513.022 131.788L516.657 130.88L513.022 129.971L512.114 126.336L511.205 129.971L507.57 130.88L511.205 131.788L512.114 135.423Z" fill="#CA9A67"/>
<path d="M512.115 177.179L513.114 173.181L517.112 172.182L513.114 171.182L512.115 167.184L511.115 171.182L507.117 172.182L511.115 173.181L512.115 177.179Z" fill="#CA9A67"/>
<path d="M512.116 218.936L513.206 214.574L517.568 213.484L513.206 212.393L512.116 208.032L511.026 212.393L506.664 213.484L511.026 214.574L512.116 218.936Z" fill="#CA9A67"/>
<path d="M512.117 260.693L513.298 255.968L518.023 254.786L513.298 253.605L512.117 248.88L510.936 253.605L506.211 254.786L510.936 255.968L512.117 260.693Z" fill="#CA9A67"/>
<path d="M512.118 302.449L513.391 297.361L518.479 296.089L513.391 294.816L512.118 289.728L510.846 294.816L505.758 296.089L510.846 297.361L512.118 302.449Z" fill="#CA9A67"/>
<path d="M512.12 344.205L513.483 338.754L518.934 337.391L513.483 336.028L512.12 330.576L510.757 336.028L505.305 337.391L510.757 338.754L512.12 344.205Z" fill="#CA9A67"/>
<path d="M512.121 385.962L513.575 380.147L519.39 378.693L513.575 377.239L512.121 371.424L510.667 377.239L504.852 378.693L510.667 380.147L512.121 385.962Z" fill="#CA9A67"/>
<path d="M512.114 427.718L513.659 421.54L519.838 419.995L513.659 418.45L512.114 412.271L510.569 418.45L504.391 419.995L510.569 421.54L512.114 427.718Z" fill="#CA9A67"/>
<path d="M512.115 469.475L513.751 462.933L520.293 461.297L513.751 459.662L512.115 453.119L510.48 459.662L503.938 461.297L510.48 462.933L512.115 469.475Z" fill="#CA9A67"/>
<path d="M512.117 511.232L513.843 504.326L520.749 502.599L513.843 500.873L512.117 493.967L510.39 500.873L503.484 502.599L510.39 504.326L512.117 511.232Z" fill="#CA9A67"/>
<path d="M512.118 552.988L513.935 545.719L521.204 543.902L513.935 542.085L512.118 534.815L510.3 542.085L503.031 543.902L510.3 545.719L512.118 552.988Z" fill="#CA9A67"/>
<path d="M512.119 594.745L514.027 587.113L521.66 585.205L514.027 583.296L512.119 575.664L510.211 583.296L502.578 585.205L510.211 587.113L512.119 594.745Z" fill="#CA9A67"/>
<path d="M512.12 636.501L514.119 628.505L522.115 626.506L514.119 624.507L512.12 616.511L510.121 624.507L502.125 626.506L510.121 628.505L512.12 636.501Z" fill="#CA9A67"/>
<path d="M512.113 678.258L514.203 669.899L522.563 667.809L514.203 665.719L512.113 657.359L510.024 665.719L501.664 667.809L510.024 669.899L512.113 678.258Z" fill="#CA9A67"/>
<path d="M514.296 706.93L512.115 698.207L509.934 706.93L501.211 709.111L509.934 711.292L512.115 720.015L514.296 711.292L523.019 709.111L514.296 706.93Z" fill="#CA9A67"/>
<path d="M553.418 9.63272L553.955 7.50152L556.078 6.97285L553.955 6.44419L553.418 4.31299L552.889 6.44419L550.758 6.97285L552.889 7.50152L553.418 9.63272Z" fill="#CA9A67"/>
<path d="M553.423 51.315L554.034 48.8865L556.462 48.2752L554.034 47.6639L553.423 45.2354L552.82 47.6639L550.383 48.2752L552.82 48.8865L553.423 51.315Z" fill="#CA9A67"/>
<path d="M553.42 92.9971L554.105 90.2629L556.84 89.5773L554.105 88.8917L553.42 86.1575L552.742 88.8917L550 89.5773L552.742 90.2629L553.42 92.9971Z" fill="#CA9A67"/>
<path d="M553.417 134.679L554.177 131.639L557.217 130.879L554.177 130.119L553.417 127.079L552.657 130.119L549.617 130.879L552.657 131.639L553.417 134.679Z" fill="#CA9A67"/>
<path d="M553.422 176.361L554.256 173.016L557.602 172.182L554.256 171.347L553.422 168.002L552.588 171.347L549.242 172.182L552.588 173.016L553.422 176.361Z" fill="#CA9A67"/>
<path d="M553.419 218.044L554.336 214.393L557.979 213.484L554.336 212.575L553.419 208.924L552.51 212.575L548.859 213.484L552.51 214.393L553.419 218.044Z" fill="#CA9A67"/>
<path d="M553.416 259.726L554.408 255.777L558.356 254.786L554.408 253.795L553.416 249.846L552.433 253.795L548.477 254.786L552.433 255.777L553.416 259.726Z" fill="#CA9A67"/>
<path d="M553.421 301.408L554.487 297.154L558.741 296.089L554.487 295.023L553.421 290.769L552.356 295.023L548.102 296.089L552.356 297.154L553.421 301.408Z" fill="#CA9A67"/>
<path d="M553.418 343.091L554.558 338.531L559.118 337.391L554.558 336.251L553.418 331.691L552.278 336.251L547.719 337.391L552.278 338.531L553.418 343.091Z" fill="#CA9A67"/>
<path d="M553.416 384.773L554.63 379.908L559.495 378.693L554.63 377.479L553.416 372.614L552.201 377.479L547.336 378.693L552.201 379.908L553.416 384.773Z" fill="#CA9A67"/>
<path d="M553.421 426.455L554.718 421.292L559.88 419.995L554.718 418.698L553.421 413.536L552.132 418.698L546.961 419.995L552.132 421.292L553.421 426.455Z" fill="#CA9A67"/>
<path d="M553.418 468.137L554.789 462.669L560.257 461.298L554.789 459.926L553.418 454.458L552.055 459.926L546.578 461.298L552.055 462.669L553.418 468.137Z" fill="#CA9A67"/>
<path d="M553.423 509.819L554.868 504.045L560.642 502.599L554.868 501.154L553.423 495.38L551.977 501.154L546.203 502.599L551.977 504.045L553.423 509.819Z" fill="#CA9A67"/>
<path d="M553.42 551.501L554.94 545.421L561.02 543.901L554.94 542.381L553.42 536.302L551.9 542.381L545.82 543.901L551.9 545.421L553.42 551.501Z" fill="#CA9A67"/>
<path d="M553.417 593.184L555.011 586.798L561.397 585.204L555.011 583.61L553.417 577.225L551.823 583.61L545.438 585.204L551.823 586.798L553.417 593.184Z" fill="#CA9A67"/>
<path d="M553.422 634.866L555.099 628.175L561.782 626.506L555.099 624.838L553.422 618.147L551.753 624.838L545.062 626.506L551.753 628.175L553.422 634.866Z" fill="#CA9A67"/>
<path d="M553.419 676.548L555.17 669.56L562.159 667.808L555.17 666.057L553.419 659.069L551.676 666.057L544.68 667.808L551.676 669.56L553.419 676.548Z" fill="#CA9A67"/>
<path d="M553.416 699.991L551.599 707.285L544.297 709.111L551.599 710.937L553.416 718.23L555.242 710.937L562.536 709.111L555.242 707.285L553.416 699.991Z" fill="#CA9A67"/>
<path d="M-4.15858 238.422L-3.2995 234.994L0.128592 234.135L-3.2995 233.276L-4.15858 229.848L-5.01768 233.276L-8.4375 234.135L-5.01768 234.994L-4.15858 238.422Z" fill="#CA9A67"/>
<path d="M-4.16321 280.063L-3.23804 276.362L0.470903 275.437L-3.23804 274.512L-4.16321 270.811L-5.08839 274.512L-8.78906 275.437L-5.08839 276.362L-4.16321 280.063Z" fill="#CA9A67"/>
<path d="M-4.16002 321.713L-3.16051 317.731L0.812773 316.74L-3.16051 315.749L-4.16002 311.767L-5.15127 315.749L-9.13281 316.74L-5.15127 317.731L-4.16002 321.713Z" fill="#CA9A67"/>
<path d="M-4.15728 363.353L-3.09168 359.107L1.16245 358.042L-3.09168 356.976L-4.15728 352.73L-5.21461 356.976L-9.46875 358.042L-5.21461 359.107L-4.15728 363.353Z" fill="#CA9A67"/>
<path d="M-4.16236 405.002L-3.03068 400.476L1.49604 399.344L-3.03068 398.212L-4.16236 393.686L-5.29405 398.212L-9.8125 399.344L-5.29405 400.476L-4.16236 405.002Z" fill="#CA9A67"/>
<path d="M-4.15916 446.643L-2.9614 441.844L1.83792 440.646L-2.9614 439.448L-4.15916 434.649L-5.35692 439.448L-10.1562 440.646L-5.35692 441.844L-4.15916 446.643Z" fill="#CA9A67"/>
<path d="M-4.16424 488.293L-2.89214 483.212L2.17978 481.949L-2.89214 480.685L-4.16424 475.604L-5.42809 480.685L-10.5 481.949L-5.42809 483.212L-4.16424 488.293Z" fill="#CA9A67"/>
<path d="M-4.16105 529.934L-2.82286 524.589L2.5299 523.251L-2.82286 521.913L-4.16105 516.568L-5.49925 521.913L-10.8438 523.251L-5.49925 524.589L-4.16105 529.934Z" fill="#CA9A67"/>
<path d="M-4.15785 571.583L-2.75358 565.957L2.87178 564.553L-2.75358 563.149L-4.15785 557.524L-5.56213 563.149L-11.1875 564.553L-5.56213 565.957L-4.15785 571.583Z" fill="#CA9A67"/>
<path d="M-4.16293 613.223L-2.68432 607.325L3.20539 605.855L-2.68432 604.384L-4.16293 598.487L-5.63329 604.384L-11.5312 605.855L-5.63329 607.325L-4.16293 613.223Z" fill="#CA9A67"/>
<path d="M-4.16019 654.872L-2.61549 648.702L3.55507 647.157L-2.61549 645.612L-4.16019 639.442L-5.69663 645.612L-11.8672 647.157L-5.69663 648.702L-4.16019 654.872Z" fill="#CA9A67"/>
<path d="M-4.16482 696.513L-2.55403 690.07L3.89738 688.459L-2.55403 686.849L-4.16482 680.406L-5.7756 686.849L-12.2188 688.459L-5.7756 690.07L-4.16482 696.513Z" fill="#CA9A67"/>
<path d="M-4.16163 721.361L-5.8385 728.085L-12.5625 729.762L-5.8385 731.439L-4.16163 738.163L-2.4765 731.439L4.23924 729.762L-2.4765 728.085L-4.16163 721.361Z" fill="#CA9A67"/>
<path d="M37.1385 30.7547L37.7663 28.2518L40.2692 27.624L37.7663 26.9962L37.1385 24.4933L36.5107 26.9962L34.0078 27.624L36.5107 28.2518L37.1385 30.7547Z" fill="#CA9A67"/>
<path d="M37.1375 72.4699L37.8479 69.6366L40.6812 68.9262L37.8479 68.2158L37.1375 65.3824L36.4271 68.2158L33.5938 68.9262L36.4271 69.6366L37.1375 72.4699Z" fill="#CA9A67"/>
<path d="M37.1447 114.193L37.9377 111.021L41.1097 110.228L37.9377 109.435L37.1447 106.263L36.3517 109.435L33.1797 110.228L36.3517 111.021L37.1447 114.193Z" fill="#CA9A67"/>
<path d="M37.1437 155.909L38.0193 152.406L41.5217 151.531L38.0193 150.655L37.1437 147.153L36.2681 150.655L32.7656 151.531L36.2681 152.406L37.1437 155.909Z" fill="#CA9A67"/>
<path d="M37.1426 197.632L38.1008 193.791L41.9419 192.833L38.1008 191.875L37.1426 188.033L36.1844 191.875L32.3516 192.833L36.1844 193.791L37.1426 197.632Z" fill="#CA9A67"/>
<path d="M37.142 239.347L38.1828 235.176L42.3626 234.135L38.1828 233.094L37.142 228.923L36.1012 233.094L31.9297 234.135L36.1012 235.176L37.142 239.347Z" fill="#CA9A67"/>
<path d="M37.141 281.071L38.2727 276.561L42.7746 275.437L38.2727 274.314L37.141 269.804L36.0176 274.314L31.5156 275.437L36.0176 276.561L37.141 281.071Z" fill="#CA9A67"/>
<path d="M37.1404 322.786L38.3547 317.946L43.1953 316.74L38.3547 315.534L37.1404 310.693L35.9344 315.534L31.0938 316.74L35.9344 317.946L37.1404 322.786Z" fill="#CA9A67"/>
<path d="M37.1398 364.509L38.4367 359.338L43.6077 358.042L38.4367 356.745L37.1398 351.574L35.8512 356.745L30.6719 358.042L35.8512 359.338L37.1398 364.509Z" fill="#CA9A67"/>
<path d="M37.1388 406.225L38.5183 400.723L44.0197 399.344L38.5183 397.964L37.1388 392.463L35.7675 397.964L30.2578 399.344L35.7675 400.723L37.1388 406.225Z" fill="#CA9A67"/>
<path d="M37.1377 447.949L38.5998 442.108L44.44 440.646L38.5998 439.184L37.1377 433.344L35.6756 439.184L29.8438 440.646L35.6756 442.108L37.1377 447.949Z" fill="#CA9A67"/>
<path d="M37.1449 489.664L38.6896 483.493L44.8685 481.948L38.6896 480.404L37.1449 474.233L35.6002 480.404L29.4297 481.948L35.6002 483.493L37.1449 489.664Z" fill="#CA9A67"/>
<path d="M37.1439 531.387L38.7712 524.878L45.2804 523.251L38.7712 521.623L37.1439 515.114L35.5166 521.623L29.0156 523.251L35.5166 524.878L37.1439 531.387Z" fill="#CA9A67"/>
<path d="M37.1433 573.102L38.8532 566.263L45.7011 564.553L38.8532 562.843L37.1433 556.003L35.4334 562.843L28.5938 564.553L35.4334 566.263L37.1433 573.102Z" fill="#CA9A67"/>
<path d="M37.1427 614.826L38.9352 607.648L46.1136 605.855L38.9352 604.063L37.1427 596.884L35.3502 604.063L28.1719 605.855L35.3502 607.648L37.1427 614.826Z" fill="#CA9A67"/>
<path d="M37.1417 656.541L39.0168 649.033L46.5255 647.158L39.0168 645.282L37.1417 637.774L35.2666 645.282L27.7578 647.158L35.2666 649.033L37.1417 656.541Z" fill="#CA9A67"/>
<path d="M37.1406 698.265L39.1066 690.417L46.9458 688.46L39.1066 686.502L37.1406 678.654L35.1829 686.502L27.3438 688.46L35.1829 690.417L37.1406 698.265Z" fill="#CA9A67"/>
<path d="M37.1401 719.543L35.0997 727.713L26.9219 729.762L35.0997 731.81L37.1401 739.98L39.1886 731.81L47.3665 729.762L39.1886 727.713L37.1401 719.543Z" fill="#CA9A67"/>
<path d="M78.442 31.3083L79.1772 28.3593L82.1261 27.6241L79.1772 26.8889L78.442 23.9399L77.7068 26.8889L74.7578 27.6241L77.7068 28.3593L78.442 31.3083Z" fill="#CA9A67"/>
<path d="M78.445 73.106L79.2793 69.7605L82.6247 68.9262L79.2793 68.0919L78.445 64.7465L77.6107 68.0919L74.2734 68.9262L77.6107 69.7605L78.445 73.106Z" fill="#CA9A67"/>
<path d="M78.4406 114.896L79.374 111.162L83.1078 110.229L79.374 109.295L78.4406 105.562L77.5072 109.295L73.7734 110.229L77.5072 111.162L78.4406 114.896Z" fill="#CA9A67"/>
<path d="M78.4436 156.693L79.4761 152.563L83.6064 151.531L79.4761 150.498L78.4436 146.368L77.411 150.498L73.2891 151.531L77.411 152.563L78.4436 156.693Z" fill="#CA9A67"/>
<path d="M78.447 198.483L79.5787 193.965L84.0972 192.833L79.5787 191.701L78.447 187.183L77.3153 191.701L72.7969 192.833L77.3153 193.965L78.447 198.483Z" fill="#CA9A67"/>
<path d="M78.4422 240.281L79.673 235.366L84.588 234.135L79.673 232.904L78.4422 227.989L77.2114 232.904L72.3047 234.135L77.2114 235.366L78.4422 240.281Z" fill="#CA9A67"/>
<path d="M78.4456 282.07L79.7756 276.767L85.0788 275.437L79.7756 274.107L78.4456 268.804L77.124 274.107L71.8125 275.437L77.124 276.767L78.4456 282.07Z" fill="#CA9A67"/>
<path d="M78.4408 323.868L79.8699 318.169L85.5696 316.74L79.8699 315.311L78.4408 309.611L77.02 315.311L71.3203 316.74L77.02 318.169L78.4408 323.868Z" fill="#CA9A67"/>
<path d="M78.4443 365.658L79.9724 359.57L86.0604 358.042L79.9724 356.514L78.4443 350.426L76.9243 356.514L70.8281 358.042L76.9243 359.57L78.4443 365.658Z" fill="#CA9A67"/>
<path d="M78.4472 407.456L80.0746 400.963L86.559 399.344L80.0746 397.725L78.4472 391.232L76.8282 397.725L70.3438 399.344L76.8282 400.963L78.4472 407.456Z" fill="#CA9A67"/>
<path d="M78.4429 449.245L80.1611 442.364L87.042 440.646L80.1611 438.928L78.4429 432.047L76.7247 438.928L69.8438 440.646L76.7247 442.364L78.4429 449.245Z" fill="#CA9A67"/>
<path d="M78.4463 491.043L80.2636 483.766L87.5411 481.949L80.2636 480.131L78.4463 472.854L76.629 480.131L69.3516 481.949L76.629 483.766L78.4463 491.043Z" fill="#CA9A67"/>
<path d="M78.4415 532.833L80.3579 525.167L88.0236 523.251L80.3579 521.334L78.4415 513.669L76.5251 521.334L68.8594 523.251L76.5251 525.167L78.4415 532.833Z" fill="#CA9A67"/>
<path d="M78.4449 574.63L80.4605 566.568L88.5227 564.553L80.4605 562.537L78.4449 554.475L76.4294 562.537L68.3672 564.553L76.4294 566.568L78.4449 574.63Z" fill="#CA9A67"/>
<path d="M78.4401 616.42L80.5548 607.97L89.0135 605.855L80.5548 603.74L78.4401 595.29L76.3254 603.74L67.875 605.855L76.3254 607.97L78.4401 616.42Z" fill="#CA9A67"/>
<path d="M78.4435 636.096L76.238 644.943L67.3828 647.157L76.238 649.371L78.4435 658.218L80.6574 649.371L89.5043 647.157L80.6574 644.943L78.4435 636.096Z" fill="#CA9A67"/>
<path d="M76.1419 690.773L78.4465 700.008L80.7595 690.773L90.0029 688.46L80.7595 686.147L78.4465 676.912L76.1419 686.147L66.8984 688.46L76.1419 690.773Z" fill="#CA9A67"/>
<path d="M78.4422 717.718L76.0384 727.358L66.3984 729.762L76.0384 732.166L78.4422 741.806L80.8542 732.166L90.4859 729.762L80.8542 727.358L78.4422 717.718Z" fill="#CA9A67"/>
<path d="M119.745 31.8698L120.596 28.4747L123.991 27.6239L120.596 26.7731L119.745 23.3781L118.895 26.7731L115.508 27.6239L118.895 28.4747L119.745 31.8698Z" fill="#CA9A67"/>
<path d="M119.745 73.7336L120.712 69.8842L124.561 68.926L120.712 67.9678L119.745 64.1184L118.787 67.9678L114.938 68.926L118.787 69.8842L119.745 73.7336Z" fill="#CA9A67"/>
<path d="M119.744 115.606L120.818 111.302L125.122 110.228L120.818 109.155L119.744 104.851L118.67 109.155L114.375 110.228L118.67 111.302L119.744 115.606Z" fill="#CA9A67"/>
<path d="M119.744 157.47L120.933 152.72L125.691 151.531L120.933 150.341L119.744 145.591L118.554 150.341L113.805 151.531L118.554 152.72L119.744 157.47Z" fill="#CA9A67"/>
<path d="M119.743 199.342L121.048 194.138L126.252 192.833L121.048 191.528L119.743 186.324L118.446 191.528L113.242 192.833L118.446 194.138L119.743 199.342Z" fill="#CA9A67"/>
<path d="M119.743 241.206L121.155 235.548L126.822 234.135L121.155 232.723L119.743 227.064L118.33 232.723L112.672 234.135L118.33 235.548L119.743 241.206Z" fill="#CA9A67"/>
<path d="M119.75 283.078L121.278 276.965L127.391 275.437L121.278 273.909L119.75 267.796L118.222 273.909L112.117 275.437L118.222 276.965L119.75 283.078Z" fill="#CA9A67"/>
<path d="M119.749 324.942L121.393 318.383L127.96 316.74L121.393 315.096L119.749 308.537L118.114 315.096L111.547 316.74L118.114 318.383L119.749 324.942Z" fill="#CA9A67"/>
<path d="M119.749 366.814L121.508 359.793L128.521 358.042L121.508 356.291L119.749 349.269L117.997 356.291L110.984 358.042L117.997 359.793L119.749 366.814Z" fill="#CA9A67"/>
<path d="M119.748 408.678L121.615 401.211L129.091 399.344L121.615 397.477L119.748 390.01L117.882 397.477L110.414 399.344L117.882 401.211L119.748 408.678Z" fill="#CA9A67"/>
<path d="M119.748 450.551L121.731 442.629L129.652 440.646L121.731 438.664L119.748 430.742L117.766 438.664L109.844 440.646L117.766 442.629L119.748 450.551Z" fill="#CA9A67"/>
<path d="M119.747 492.414L121.845 484.038L130.221 481.948L121.845 479.858L119.747 471.482L117.657 479.858L109.281 481.948L117.657 484.038L119.747 492.414Z" fill="#CA9A67"/>
<path d="M119.747 512.215L117.541 521.045L108.711 523.251L117.541 525.456L119.747 534.286L121.952 525.456L130.783 523.251L121.952 521.045L119.747 512.215Z" fill="#CA9A67"/>
<path d="M117.425 566.874L119.746 576.15L122.067 566.874L131.352 564.553L122.067 562.232L119.746 552.955L117.425 562.232L108.148 564.553L117.425 566.874Z" fill="#CA9A67"/>
<path d="M119.746 593.688L117.317 603.418L107.578 605.855L117.317 608.292L119.746 618.023L122.183 608.292L131.913 605.855L122.183 603.418L119.746 593.688Z" fill="#CA9A67"/>
<path d="M117.201 649.702L119.745 659.887L122.289 649.702L132.474 647.157L122.289 644.613L119.745 634.428L117.201 644.613L107.016 647.157L117.201 649.702Z" fill="#CA9A67"/>
<path d="M119.745 701.759L122.404 691.119L133.044 688.459L122.404 685.799L119.745 675.16L117.085 685.799L106.445 688.459L117.085 691.119L119.745 701.759Z" fill="#CA9A67"/>
<path d="M119.744 715.901L116.977 726.986L105.883 729.762L116.977 732.537L119.744 743.623L122.519 732.537L133.605 729.762L122.519 726.986L119.744 715.901Z" fill="#CA9A67"/>
<path d="M161.049 32.423L162.008 28.5819L165.857 27.6237L162.008 26.6654L161.049 22.8243L160.091 26.6654L156.25 27.6237L160.091 28.5819L161.049 32.423Z" fill="#CA9A67"/>
<path d="M161.045 74.3697L162.136 70.0164L166.489 68.9261L162.136 67.8357L161.045 63.4824L159.963 67.8357L155.602 68.9261L159.963 70.0164L161.045 74.3697Z" fill="#CA9A67"/>
<path d="M161.048 116.308L162.263 111.443L167.136 110.228L162.263 109.014L161.048 104.149L159.834 109.014L154.969 110.228L159.834 111.443L161.048 116.308Z" fill="#CA9A67"/>
<path d="M161.052 158.254L162.398 152.877L167.776 151.53L162.398 150.184L161.052 144.806L159.713 150.184L154.336 151.53L159.713 152.877L161.052 158.254Z" fill="#CA9A67"/>
<path d="M161.048 200.193L162.518 194.303L168.408 192.833L162.518 191.363L161.048 185.473L159.577 191.363L153.688 192.833L159.577 194.303L161.048 200.193Z" fill="#CA9A67"/>
<path d="M161.051 242.139L162.653 235.738L169.055 234.135L162.653 232.532L161.051 226.131L159.457 232.532L153.055 234.135L159.457 235.738L161.051 242.139Z" fill="#CA9A67"/>
<path d="M161.047 284.078L162.773 277.164L169.695 275.438L162.773 273.711L161.047 266.797L159.32 273.711L152.406 275.438L159.32 277.164L161.047 284.078Z" fill="#CA9A67"/>
<path d="M161.05 326.024L162.909 318.598L170.335 316.74L162.909 314.881L161.05 307.455L159.2 314.881L151.766 316.74L159.2 318.598L161.05 326.024Z" fill="#CA9A67"/>
<path d="M161.046 367.963L163.028 360.024L170.967 358.042L163.028 356.059L161.046 348.121L159.063 356.059L151.125 358.042L159.063 360.024L161.046 367.963Z" fill="#CA9A67"/>
<path d="M161.049 409.909L163.164 401.459L171.614 399.344L163.164 397.23L161.049 388.779L158.943 397.23L150.492 399.344L158.943 401.459L161.049 409.909Z" fill="#CA9A67"/>
<path d="M161.045 429.445L158.806 438.408L149.844 440.646L158.806 442.885L161.045 451.847L163.292 442.885L172.254 440.646L163.292 438.408L161.045 429.445Z" fill="#CA9A67"/>
<path d="M161.049 470.103L158.686 479.578L149.203 481.949L158.686 484.319L161.049 493.794L163.419 484.319L172.894 481.949L163.419 479.578L161.049 470.103Z" fill="#CA9A67"/>
<path d="M158.557 525.745L161.052 535.732L163.547 525.745L173.542 523.251L163.547 520.756L161.052 510.769L158.557 520.756L148.57 523.251L158.557 525.745Z" fill="#CA9A67"/>
<path d="M161.047 551.427L158.429 561.926L147.93 564.553L158.429 567.18L161.047 577.679L163.674 567.18L174.173 564.553L163.674 561.926L161.047 551.427Z" fill="#CA9A67"/>
<path d="M158.3 608.606L161.051 619.617L163.802 608.606L174.813 605.855L163.802 603.104L161.051 592.093L158.3 603.104L147.289 605.855L158.3 608.606Z" fill="#CA9A67"/>
<path d="M161.046 661.564L163.929 650.041L175.453 647.158L163.929 644.275L161.046 632.752L158.164 644.275L146.648 647.158L158.164 650.041L161.046 661.564Z" fill="#CA9A67"/>
<path d="M161.05 703.502L164.057 691.466L176.101 688.46L164.057 685.453L161.05 673.417L158.043 685.453L146.008 688.46L158.043 691.466L161.05 703.502Z" fill="#CA9A67"/>
<path d="M161.046 714.075L157.907 726.623L145.359 729.762L157.907 732.9L161.046 745.448L164.185 732.9L176.733 729.762L164.185 726.623L161.046 714.075Z" fill="#CA9A67"/>
<path d="M202.353 32.985L203.427 28.6978L207.714 27.624L203.427 26.5501L202.353 22.2629L201.279 26.5501L196.992 27.624L201.279 28.6978L202.353 32.985Z" fill="#CA9A67"/>
<path d="M202.353 74.9975L203.567 70.1403L208.424 68.926L203.567 67.7118L202.353 62.8546L201.138 67.7118L196.281 68.926L201.138 70.1403L202.353 74.9975Z" fill="#CA9A67"/>
<path d="M202.353 117.018L203.716 111.583L209.143 110.228L203.716 108.874L202.353 103.438L200.998 108.874L195.562 110.228L200.998 111.583L202.353 117.018Z" fill="#CA9A67"/>
<path d="M202.352 159.031L203.855 153.034L209.853 151.53L203.855 150.027L202.352 144.03L200.857 150.027L194.852 151.53L200.857 153.034L202.352 159.031Z" fill="#CA9A67"/>
<path d="M202.352 201.052L203.995 194.477L210.571 192.833L203.995 191.189L202.352 184.614L200.708 191.189L194.141 192.833L200.708 194.477L202.352 201.052Z" fill="#CA9A67"/>
<path d="M202.351 243.065L204.136 235.919L211.289 234.135L204.136 232.351L202.351 225.206L200.567 232.351L193.422 234.135L200.567 235.919L202.351 243.065Z" fill="#CA9A67"/>
<path d="M202.351 285.086L204.284 277.37L211.999 275.437L204.284 273.504L202.351 265.789L200.426 273.504L192.711 275.437L200.426 277.37L202.351 285.086Z" fill="#CA9A67"/>
<path d="M202.351 327.098L204.424 318.813L212.718 316.739L204.424 314.666L202.351 306.381L200.277 314.666L191.992 316.739L200.277 318.813L202.351 327.098Z" fill="#CA9A67"/>
<path d="M202.351 346.965L200.137 355.828L191.273 358.042L200.137 360.256L202.351 369.119L204.564 360.256L213.428 358.042L204.564 355.828L202.351 346.965Z" fill="#CA9A67"/>
<path d="M202.35 387.556L199.996 396.99L190.562 399.344L199.996 401.698L202.35 411.132L204.713 401.698L214.138 399.344L204.713 396.99L202.35 387.556Z" fill="#CA9A67"/>
<path d="M199.847 443.149L202.35 453.153L204.853 443.149L214.856 440.646L204.853 438.143L202.35 428.14L199.847 438.143L189.852 440.646L199.847 443.149Z" fill="#CA9A67"/>
<path d="M202.35 468.732L199.706 479.305L189.133 481.948L199.706 484.592L202.35 495.165L204.993 484.592L215.575 481.948L204.993 479.305L202.35 468.732Z" fill="#CA9A67"/>
<path d="M202.349 509.315L199.565 520.467L188.422 523.251L199.565 526.035L202.349 537.186L205.141 526.035L216.284 523.251L205.141 520.467L202.349 509.315Z" fill="#CA9A67"/>
<path d="M199.425 567.485L202.349 579.199L205.281 567.485L217.003 564.553L205.281 561.621L202.349 549.907L199.425 561.621L187.703 564.553L199.425 567.485Z" fill="#CA9A67"/>
<path d="M202.349 621.219L205.422 608.928L217.713 605.855L205.422 602.782L202.349 590.491L199.276 602.782L186.984 605.855L199.276 608.928L202.349 621.219Z" fill="#CA9A67"/>
<path d="M202.348 663.232L205.562 650.371L218.431 647.158L205.562 643.944L202.348 631.083L199.135 643.944L186.273 647.158L199.135 650.371L202.348 663.232Z" fill="#CA9A67"/>
<path d="M202.348 705.253L205.71 691.821L219.141 688.459L205.71 685.097L202.348 671.666L198.994 685.097L185.562 688.459L198.994 691.821L202.348 705.253Z" fill="#CA9A67"/>
<path d="M202.348 712.258L198.845 726.26L184.844 729.762L198.845 733.264L202.348 747.266L205.85 733.264L219.86 729.762L205.85 726.26L202.348 712.258Z" fill="#CA9A67"/>
<path d="M243.649 33.5386L244.838 28.8053L249.563 27.6241L244.838 26.4428L243.649 21.7096L242.468 26.4428L237.734 27.6241L242.468 28.8053L243.649 33.5386Z" fill="#CA9A67"/>
<path d="M243.652 75.6335L244.999 70.2642L250.36 68.926L244.999 67.5878L243.652 62.2185L242.314 67.5878L236.953 68.926L242.314 70.2642L243.652 75.6335Z" fill="#CA9A67"/>
<path d="M243.648 117.721L245.152 111.723L251.149 110.228L245.152 108.733L243.648 102.736L242.153 108.733L236.156 110.228L242.153 111.723L243.648 117.721Z" fill="#CA9A67"/>
<path d="M243.652 159.816L245.313 153.183L251.938 151.53L245.313 149.878L243.652 143.245L242 149.878L235.367 151.53L242 153.183L243.652 159.816Z" fill="#CA9A67"/>
<path d="M243.656 201.903L245.473 194.65L252.734 192.833L245.473 191.015L243.656 183.763L241.847 191.015L234.586 192.833L241.847 194.65L243.656 201.903Z" fill="#CA9A67"/>
<path d="M243.652 243.998L245.626 236.109L253.515 234.135L245.626 232.161L243.652 224.272L241.686 232.161L233.797 234.135L241.686 236.109L243.652 243.998Z" fill="#CA9A67"/>
<path d="M243.656 286.085L245.787 277.569L254.303 275.438L245.787 273.306L243.656 264.79L241.533 273.306L233.008 275.438L241.533 277.569L243.656 286.085Z" fill="#CA9A67"/>
<path d="M243.652 305.299L241.364 314.452L232.211 316.74L241.364 319.028L243.652 328.18L245.94 319.028L255.092 316.74L245.94 314.452L243.652 305.299Z" fill="#CA9A67"/>
<path d="M243.655 345.816L241.21 355.597L231.43 358.042L241.21 360.487L243.655 370.267L246.1 360.487L255.889 358.042L246.1 355.597L243.655 345.816Z" fill="#CA9A67"/>
<path d="M243.651 386.325L241.049 396.742L230.641 399.344L241.049 401.946L243.651 412.362L246.253 401.946L256.669 399.344L246.253 396.742L243.651 386.325Z" fill="#CA9A67"/>
<path d="M243.655 426.843L240.896 437.887L229.852 440.646L240.896 443.405L243.655 454.45L246.414 443.405L257.466 440.646L246.414 437.887L243.655 426.843Z" fill="#CA9A67"/>
<path d="M240.735 484.864L243.651 496.545L246.575 484.864L258.247 481.948L246.575 479.033L243.651 467.352L240.735 479.033L229.055 481.948L240.735 484.864Z" fill="#CA9A67"/>
<path d="M243.654 507.87L240.581 520.169L228.273 523.251L240.581 526.332L243.654 538.632L246.736 526.332L259.044 523.251L246.736 520.169L243.654 507.87Z" fill="#CA9A67"/>
<path d="M243.65 580.727L246.888 567.783L259.824 564.553L246.888 561.323L243.65 548.379L240.42 561.323L227.484 564.553L240.42 567.783L243.65 580.727Z" fill="#CA9A67"/>
<path d="M243.654 622.813L247.049 609.25L260.613 605.855L247.049 602.46L243.654 588.896L240.267 602.46L226.695 605.855L240.267 609.25L243.654 622.813Z" fill="#CA9A67"/>
<path d="M243.65 664.909L247.202 650.709L261.402 647.157L247.202 643.605L243.65 629.406L240.098 643.605L225.898 647.157L240.098 650.709L243.65 664.909Z" fill="#CA9A67"/>
<path d="M243.654 706.996L247.363 692.169L262.198 688.46L247.363 684.751L243.654 669.923L239.945 684.751L225.117 688.46L239.945 692.169L243.654 706.996Z" fill="#CA9A67"/>
<path d="M243.65 710.433L239.784 725.896L224.32 729.762L239.784 733.628L243.65 749.092L247.516 733.628L262.979 729.762L247.516 725.896L243.65 710.433Z" fill="#CA9A67"/>
<path d="M284.953 33.8193L286.192 28.863L291.148 27.6239L286.192 26.3849L284.953 21.4286L283.714 26.3849L278.758 27.6239L283.714 28.863L284.953 33.8193Z" fill="#CA9A67"/>
<path d="M284.951 75.9474L286.355 70.3303L291.972 68.926L286.355 67.5218L284.951 61.9047L283.547 67.5218L277.93 68.926L283.547 70.3303L284.951 75.9474Z" fill="#CA9A67"/>
<path d="M284.957 118.076L286.526 111.798L292.804 110.228L286.526 108.659L284.957 102.381L283.387 108.659L277.109 110.228L283.387 111.798L284.957 118.076Z" fill="#CA9A67"/>
<path d="M284.955 160.204L286.689 153.265L293.628 151.53L286.689 149.796L284.955 142.857L283.22 149.796L276.281 151.53L283.22 153.265L284.955 160.204Z" fill="#CA9A67"/>
<path d="M284.953 202.333L286.853 194.733L294.452 192.833L286.853 190.933L284.953 183.333L283.053 190.933L275.453 192.833L283.053 194.733L284.953 202.333Z" fill="#CA9A67"/>
<path d="M284.951 244.461L287.016 236.2L295.276 234.135L287.016 232.07L284.951 223.81L282.885 232.07L274.625 234.135L282.885 236.2L284.951 244.461Z" fill="#CA9A67"/>
<path d="M284.956 264.286L282.726 273.207L273.805 275.437L282.726 277.668L284.956 286.589L287.187 277.668L296.108 275.437L287.187 273.207L284.956 264.286Z" fill="#CA9A67"/>
<path d="M284.954 304.762L282.559 314.344L272.977 316.74L282.559 319.135L284.954 328.717L287.35 319.135L296.932 316.74L287.35 314.344L284.954 304.762Z" fill="#CA9A67"/>
<path d="M284.952 345.238L282.391 355.481L272.148 358.042L282.391 360.603L284.952 370.846L287.513 360.603L297.756 358.042L287.513 355.481L284.952 345.238Z" fill="#CA9A67"/>
<path d="M284.958 385.714L282.232 396.618L271.328 399.344L282.232 402.07L284.958 412.974L287.684 402.07L298.588 399.344L287.684 396.618L284.958 385.714Z" fill="#CA9A67"/>
<path d="M284.956 426.19L282.065 437.755L270.5 440.646L282.065 443.537L284.956 455.102L287.847 443.537L299.412 440.646L287.847 437.755L284.956 426.19Z" fill="#CA9A67"/>
<path d="M284.954 466.667L281.897 478.892L269.672 481.948L281.897 485.005L284.954 497.23L288.01 485.005L300.236 481.948L288.01 478.892L284.954 466.667Z" fill="#CA9A67"/>
<path d="M284.952 539.359L288.173 526.472L301.059 523.251L288.173 520.029L284.952 507.143L281.73 520.029L268.844 523.251L281.73 526.472L284.952 539.359Z" fill="#CA9A67"/>
<path d="M284.957 581.487L288.344 567.94L301.891 564.553L288.344 561.166L284.957 547.619L281.571 561.166L268.023 564.553L281.571 567.94L284.957 581.487Z" fill="#CA9A67"/>
<path d="M284.955 623.615L288.507 609.407L302.715 605.855L288.507 602.303L284.955 588.095L281.403 602.303L267.195 605.855L281.403 609.407L284.955 623.615Z" fill="#CA9A67"/>
<path d="M284.953 665.744L288.67 650.875L303.539 647.158L288.67 643.441L284.953 628.572L281.236 643.441L266.367 647.158L281.236 650.875L284.953 665.744Z" fill="#CA9A67"/>
<path d="M284.951 707.872L288.834 692.342L304.363 688.46L288.834 684.577L284.951 669.048L281.069 684.577L265.539 688.46L281.069 692.342L284.951 707.872Z" fill="#CA9A67"/>
<path d="M284.957 709.524L280.909 725.715L264.719 729.762L280.909 733.81L284.957 750L289.004 733.81L305.195 729.762L289.004 725.715L284.957 709.524Z" fill="#CA9A67"/>
<path d="M326.258 33.5386L327.448 28.8053L332.181 27.6241L327.448 26.4428L326.258 21.7096L325.077 26.4428L320.344 27.6241L325.077 28.8053L326.258 33.5386Z" fill="#CA9A67"/>
<path d="M326.254 75.6335L327.601 70.2642L332.962 68.926L327.601 67.5878L326.254 62.2185L324.916 67.5878L319.547 68.926L324.916 70.2642L326.254 75.6335Z" fill="#CA9A67"/>
<path d="M326.258 117.721L327.761 111.723L333.758 110.228L327.761 108.733L326.258 102.736L324.763 108.733L318.766 110.228L324.763 111.723L326.258 117.721Z" fill="#CA9A67"/>
<path d="M326.254 159.816L327.914 153.183L334.539 151.53L327.914 149.878L326.254 143.245L324.602 149.878L317.969 151.53L324.602 153.183L326.254 159.816Z" fill="#CA9A67"/>
<path d="M326.257 201.903L328.075 194.65L335.327 192.833L328.075 191.015L326.257 183.763L324.448 191.015L317.188 192.833L324.448 194.65L326.257 201.903Z" fill="#CA9A67"/>
<path d="M326.261 243.998L328.235 236.109L336.124 234.135L328.235 232.161L326.261 224.272L324.287 232.161L316.406 234.135L324.287 236.109L326.261 243.998Z" fill="#CA9A67"/>
<path d="M326.257 264.79L324.134 273.306L315.609 275.437L324.134 277.569L326.257 286.085L328.388 277.569L336.913 275.437L328.388 273.306L326.257 264.79Z" fill="#CA9A67"/>
<path d="M326.261 305.299L323.972 314.451L314.828 316.74L323.972 319.028L326.261 328.18L328.549 319.028L337.701 316.74L328.549 314.451L326.261 305.299Z" fill="#CA9A67"/>
<path d="M326.257 345.816L323.812 355.597L314.031 358.042L323.812 360.487L326.257 370.267L328.702 360.487L338.49 358.042L328.702 355.597L326.257 345.816Z" fill="#CA9A67"/>
<path d="M326.253 386.325L323.651 396.742L313.234 399.344L323.651 401.946L326.253 412.362L328.855 401.946L339.271 399.344L328.855 396.742L326.253 386.325Z" fill="#CA9A67"/>
<path d="M329.015 437.887L326.256 426.843L323.497 437.887L312.453 440.646L323.497 443.405L326.256 454.45L329.015 443.405L340.068 440.646L329.015 437.887Z" fill="#CA9A67"/>
<path d="M326.26 467.352L323.344 479.033L311.664 481.948L323.344 484.864L326.26 496.545L329.184 484.864L340.856 481.948L329.184 479.033L326.26 467.352Z" fill="#CA9A67"/>
<path d="M326.256 538.632L329.337 526.332L341.637 523.251L329.337 520.169L326.256 507.87L323.183 520.169L310.875 523.251L323.183 526.332L326.256 538.632Z" fill="#CA9A67"/>
<path d="M326.259 580.727L329.498 567.783L342.433 564.553L329.498 561.323L326.259 548.379L323.03 561.323L310.094 564.553L323.03 567.783L326.259 580.727Z" fill="#CA9A67"/>
<path d="M326.256 622.813L329.651 609.25L343.223 605.855L329.651 602.46L326.256 588.896L322.869 602.46L309.297 605.855L322.869 609.25L326.256 622.813Z" fill="#CA9A67"/>
<path d="M326.259 664.909L329.811 650.709L344.011 647.157L329.811 643.605L326.259 629.406L322.707 643.605L308.516 647.157L322.707 650.709L326.259 664.909Z" fill="#CA9A67"/>
<path d="M326.255 706.996L329.964 692.169L344.8 688.46L329.964 684.751L326.255 669.923L322.546 684.751L307.719 688.46L322.546 692.169L326.255 706.996Z" fill="#CA9A67"/>
<path d="M326.259 710.433L322.393 725.896L306.93 729.762L322.393 733.628L326.259 749.092L330.125 733.628L345.589 729.762L330.125 725.896L326.259 710.433Z" fill="#CA9A67"/>
<path d="M367.556 32.985L368.63 28.6978L372.917 27.624L368.63 26.5501L367.556 22.2629L366.482 26.5501L362.203 27.624L366.482 28.6978L367.556 32.985Z" fill="#CA9A67"/>
<path d="M367.556 74.9975L368.77 70.1403L373.627 68.926L368.77 67.7118L367.556 62.8546L366.342 67.7118L361.484 68.926L366.342 70.1403L367.556 74.9975Z" fill="#CA9A67"/>
<path d="M367.563 117.018L368.926 111.583L374.353 110.228L368.926 108.874L367.563 103.438L366.208 108.874L360.781 110.228L366.208 111.583L367.563 117.018Z" fill="#CA9A67"/>
<path d="M367.555 159.031L369.059 153.034L375.056 151.53L369.059 150.027L367.555 144.03L366.06 150.027L360.055 151.53L366.06 153.034L367.555 159.031Z" fill="#CA9A67"/>
<path d="M367.562 201.052L369.206 194.477L375.782 192.833L369.206 191.189L367.562 184.614L365.919 191.189L359.352 192.833L365.919 194.477L367.562 201.052Z" fill="#CA9A67"/>
<path d="M367.562 243.065L369.355 235.919L376.5 234.135L369.355 232.351L367.562 225.206L365.778 232.351L358.633 234.135L365.778 235.919L367.562 243.065Z" fill="#CA9A67"/>
<path d="M367.562 285.086L369.495 277.37L377.21 275.437L369.495 273.504L367.562 265.789L365.637 273.504L357.922 275.437L365.637 277.37L367.562 285.086Z" fill="#CA9A67"/>
<path d="M367.562 306.381L365.488 314.666L357.203 316.739L365.488 318.813L367.562 327.098L369.635 318.813L377.929 316.739L369.635 314.666L367.562 306.381Z" fill="#CA9A67"/>
<path d="M367.562 346.965L365.348 355.828L356.484 358.042L365.348 360.256L367.562 369.119L369.775 360.256L378.639 358.042L369.775 355.828L367.562 346.965Z" fill="#CA9A67"/>
<path d="M369.924 396.99L367.561 387.556L365.207 396.99L355.773 399.344L365.207 401.698L367.561 411.132L369.924 401.698L379.357 399.344L369.924 396.99Z" fill="#CA9A67"/>
<path d="M367.561 428.14L365.058 438.143L355.055 440.646L365.058 443.149L367.561 453.153L370.064 443.149L380.067 440.646L370.064 438.143L367.561 428.14Z" fill="#CA9A67"/>
<path d="M367.56 468.732L364.917 479.305L354.344 481.948L364.917 484.592L367.56 495.165L370.204 484.592L380.785 481.948L370.204 479.305L367.56 468.732Z" fill="#CA9A67"/>
<path d="M367.56 537.186L370.352 526.035L381.496 523.251L370.352 520.467L367.56 509.315L364.777 520.467L353.625 523.251L364.777 526.035L367.56 537.186Z" fill="#CA9A67"/>
<path d="M367.56 579.199L370.492 567.485L382.206 564.553L370.492 561.621L367.56 549.907L364.636 561.621L352.914 564.553L364.636 567.485L367.56 579.199Z" fill="#CA9A67"/>
<path d="M367.559 621.219L370.632 608.928L382.924 605.855L370.632 602.782L367.559 590.491L364.486 602.782L352.203 605.855L364.486 608.928L367.559 621.219Z" fill="#CA9A67"/>
<path d="M367.559 663.232L370.781 650.371L383.642 647.158L370.781 643.944L367.559 631.083L364.346 643.944L351.484 647.158L364.346 650.371L367.559 663.232Z" fill="#CA9A67"/>
<path d="M367.559 705.253L370.921 691.821L384.352 688.459L370.921 685.097L367.559 671.666L364.205 685.097L350.773 688.459L364.205 691.821L367.559 705.253Z" fill="#CA9A67"/>
<path d="M367.559 712.258L364.056 726.26L350.055 729.762L364.056 733.264L367.559 747.266L371.061 733.264L385.071 729.762L371.061 726.26L367.559 712.258Z" fill="#CA9A67"/>
<path d="M408.862 32.423L409.828 28.5819L413.669 27.6237L409.828 26.6654L408.862 22.8243L407.904 26.6654L404.062 27.6237L407.904 28.5819L408.862 32.423Z" fill="#CA9A67"/>
<path d="M408.865 74.3697L409.955 70.0164L414.309 68.9261L409.955 67.8357L408.865 63.4824L407.783 67.8357L403.43 68.9261L407.783 70.0164L408.865 74.3697Z" fill="#CA9A67"/>
<path d="M408.861 116.308L410.075 111.443L414.941 110.228L410.075 109.014L408.861 104.149L407.647 109.014L402.781 110.228L407.647 111.443L408.861 116.308Z" fill="#CA9A67"/>
<path d="M408.865 158.254L410.211 152.877L415.589 151.53L410.211 150.184L408.865 144.806L407.518 150.184L402.141 151.53L407.518 152.877L408.865 158.254Z" fill="#CA9A67"/>
<path d="M408.86 200.193L410.339 194.303L416.228 192.833L410.339 191.363L408.86 185.473L407.39 191.363L401.5 192.833L407.39 194.303L408.86 200.193Z" fill="#CA9A67"/>
<path d="M408.863 242.139L410.466 235.738L416.868 234.135L410.466 232.532L408.863 226.131L407.269 232.532L400.867 234.135L407.269 235.738L408.863 242.139Z" fill="#CA9A67"/>
<path d="M408.859 284.078L410.586 277.164L417.508 275.438L410.586 273.711L408.859 266.797L407.133 273.711L400.219 275.438L407.133 277.164L408.859 284.078Z" fill="#CA9A67"/>
<path d="M408.862 326.024L410.721 318.598L418.147 316.74L410.721 314.881L408.862 307.455L407.012 314.881L399.586 316.74L407.012 318.598L408.862 326.024Z" fill="#CA9A67"/>
<path d="M408.858 367.963L410.849 360.024L418.787 358.042L410.849 356.059L408.858 348.121L406.876 356.059L398.938 358.042L406.876 360.024L408.858 367.963Z" fill="#CA9A67"/>
<path d="M408.862 388.779L406.755 397.23L398.305 399.344L406.755 401.459L408.862 409.909L410.976 401.459L419.427 399.344L410.976 397.23L408.862 388.779Z" fill="#CA9A67"/>
<path d="M408.865 429.445L406.627 438.408L397.664 440.646L406.627 442.885L408.865 451.847L411.112 442.885L420.075 440.646L411.112 438.408L408.865 429.445Z" fill="#CA9A67"/>
<path d="M411.231 479.578L408.861 470.103L406.49 479.578L397.023 481.949L406.49 484.319L408.861 493.794L411.231 484.319L420.706 481.949L411.231 479.578Z" fill="#CA9A67"/>
<path d="M408.864 510.769L406.37 520.756L396.383 523.251L406.37 525.745L408.864 535.732L411.367 525.745L421.346 523.251L411.367 520.756L408.864 510.769Z" fill="#CA9A67"/>
<path d="M408.86 577.679L411.487 567.18L421.986 564.553L411.487 561.926L408.86 551.427L406.242 561.926L395.734 564.553L406.242 567.18L408.86 577.679Z" fill="#CA9A67"/>
<path d="M408.863 619.617L411.614 608.606L422.634 605.855L411.614 603.104L408.863 592.093L406.113 603.104L395.102 605.855L406.113 608.606L408.863 619.617Z" fill="#CA9A67"/>
<path d="M408.859 661.564L411.742 650.041L423.265 647.158L411.742 644.275L408.859 632.752L405.984 644.275L394.461 647.158L405.984 650.041L408.859 661.564Z" fill="#CA9A67"/>
<path d="M408.863 703.502L411.878 691.466L423.913 688.46L411.878 685.453L408.863 673.417L405.856 685.453L393.82 688.46L405.856 691.466L408.863 703.502Z" fill="#CA9A67"/>
<path d="M408.858 714.075L405.719 726.623L393.18 729.762L405.719 732.9L408.858 745.448L411.997 732.9L424.545 729.762L411.997 726.623L408.858 714.075Z" fill="#CA9A67"/>
<path d="M450.168 31.8698L451.019 28.4747L454.414 27.6239L451.019 26.7731L450.168 23.3781L449.317 26.7731L445.922 27.6239L449.317 28.4747L450.168 31.8698Z" fill="#CA9A67"/>
<path d="M450.167 73.7336L451.133 69.8842L454.983 68.926L451.133 67.9678L450.167 64.1184L449.209 67.9678L445.359 68.926L449.209 69.8842L450.167 73.7336Z" fill="#CA9A67"/>
<path d="M450.167 115.606L451.24 111.302L455.544 110.228L451.24 109.155L450.167 104.851L449.093 109.155L444.789 110.228L449.093 111.302L450.167 115.606Z" fill="#CA9A67"/>
<path d="M450.166 157.47L451.355 152.72L456.113 151.531L451.355 150.341L450.166 145.591L448.976 150.341L444.227 151.531L448.976 152.72L450.166 157.47Z" fill="#CA9A67"/>
<path d="M450.165 199.342L451.471 194.138L456.675 192.833L451.471 191.528L450.165 186.324L448.869 191.528L443.656 192.833L448.869 194.138L450.165 199.342Z" fill="#CA9A67"/>
<path d="M450.165 241.206L451.586 235.548L457.244 234.135L451.586 232.723L450.165 227.064L448.752 232.723L443.094 234.135L448.752 235.548L450.165 241.206Z" fill="#CA9A67"/>
<path d="M450.164 283.078L451.692 276.965L457.805 275.437L451.692 273.909L450.164 267.796L448.636 273.909L442.531 275.437L448.636 276.965L450.164 283.078Z" fill="#CA9A67"/>
<path d="M450.164 324.942L451.807 318.383L458.374 316.74L451.807 315.096L450.164 308.537L448.528 315.096L441.961 316.74L448.528 318.383L450.164 324.942Z" fill="#CA9A67"/>
<path d="M450.163 366.814L451.923 359.793L458.936 358.042L451.923 356.291L450.163 349.269L448.412 356.291L441.391 358.042L448.412 359.793L450.163 366.814Z" fill="#CA9A67"/>
<path d="M450.162 408.678L452.029 401.211L459.505 399.344L452.029 397.477L450.162 390.01L448.296 397.477L440.828 399.344L448.296 401.211L450.162 408.678Z" fill="#CA9A67"/>
<path d="M450.162 450.551L452.144 442.629L460.066 440.646L452.144 438.664L450.162 430.742L448.179 438.664L440.266 440.646L448.179 442.629L450.162 450.551Z" fill="#CA9A67"/>
<path d="M450.161 471.482L448.071 479.858L439.695 481.948L448.071 484.038L450.161 492.414L452.259 484.038L460.636 481.948L452.259 479.858L450.161 471.482Z" fill="#CA9A67"/>
<path d="M452.374 521.045L450.16 512.215L447.955 521.045L439.133 523.251L447.955 525.456L450.16 534.286L452.374 525.456L461.196 523.251L452.374 521.045Z" fill="#CA9A67"/>
<path d="M450.16 552.955L447.839 562.232L438.562 564.553L447.839 566.874L450.16 576.15L452.481 566.874L461.766 564.553L452.481 562.232L450.16 552.955Z" fill="#CA9A67"/>
<path d="M450.167 618.023L452.604 608.292L462.335 605.855L452.604 603.418L450.167 593.688L447.739 603.418L438.008 605.855L447.739 608.292L450.167 618.023Z" fill="#CA9A67"/>
<path d="M450.167 659.887L452.711 649.702L462.904 647.157L452.711 644.613L450.167 634.428L447.623 644.613L437.438 647.157L447.623 649.702L450.167 659.887Z" fill="#CA9A67"/>
<path d="M450.166 701.759L452.826 691.119L463.465 688.459L452.826 685.799L450.166 675.16L447.506 685.799L436.875 688.459L447.506 691.119L450.166 701.759Z" fill="#CA9A67"/>
<path d="M450.166 715.901L447.398 726.986L436.305 729.762L447.398 732.537L450.166 743.623L452.941 732.537L464.035 729.762L452.941 726.986L450.166 715.901Z" fill="#CA9A67"/>
<path d="M491.465 31.3083L492.209 28.3593L495.158 27.6241L492.209 26.8889L491.465 23.9399L490.73 26.8889L487.781 27.6241L490.73 28.3593L491.465 31.3083Z" fill="#CA9A67"/>
<path d="M491.468 73.106L492.303 69.7605L495.648 68.9262L492.303 68.0919L491.468 64.7465L490.634 68.0919L487.297 68.9262L490.634 69.7605L491.468 73.106Z" fill="#CA9A67"/>
<path d="M491.464 114.896L492.397 111.162L496.139 110.229L492.397 109.295L491.464 105.562L490.531 109.295L486.797 110.229L490.531 111.162L491.464 114.896Z" fill="#CA9A67"/>
<path d="M491.467 156.693L492.5 152.563L496.63 151.531L492.5 150.498L491.467 146.368L490.434 150.498L486.312 151.531L490.434 152.563L491.467 156.693Z" fill="#CA9A67"/>
<path d="M491.463 198.483L492.594 193.965L497.113 192.833L492.594 191.701L491.463 187.183L490.331 191.701L485.812 192.833L490.331 193.965L491.463 198.483Z" fill="#CA9A67"/>
<path d="M491.466 240.281L492.696 235.366L497.611 234.135L492.696 232.904L491.466 227.989L490.243 232.904L485.328 234.135L490.243 235.366L491.466 240.281Z" fill="#CA9A67"/>
<path d="M491.469 282.07L492.799 276.767L498.11 275.437L492.799 274.107L491.469 268.804L490.147 274.107L484.836 275.437L490.147 276.767L491.469 282.07Z" fill="#CA9A67"/>
<path d="M491.465 323.868L492.894 318.169L498.593 316.74L492.894 315.311L491.465 309.611L490.044 315.311L484.336 316.74L490.044 318.169L491.465 323.868Z" fill="#CA9A67"/>
<path d="M491.468 365.658L492.996 359.57L499.084 358.042L492.996 356.514L491.468 350.426L489.948 356.514L483.852 358.042L489.948 359.57L491.468 365.658Z" fill="#CA9A67"/>
<path d="M491.463 407.456L493.09 400.963L499.575 399.344L493.09 397.725L491.463 391.232L489.844 397.725L483.359 399.344L489.844 400.963L491.463 407.456Z" fill="#CA9A67"/>
<path d="M491.466 449.245L493.184 442.364L500.074 440.646L493.184 438.928L491.466 432.047L489.748 438.928L482.867 440.646L489.748 442.364L491.466 449.245Z" fill="#CA9A67"/>
<path d="M491.47 491.043L493.287 483.766L500.565 481.949L493.287 480.131L491.47 472.854L489.652 480.131L482.375 481.949L489.652 483.766L491.47 491.043Z" fill="#CA9A67"/>
<path d="M491.465 532.833L493.381 525.167L501.047 523.251L493.381 521.334L491.465 513.669L489.548 521.334L481.883 523.251L489.548 525.167L491.465 532.833Z" fill="#CA9A67"/>
<path d="M491.468 574.63L493.483 566.568L501.546 564.553L493.483 562.537L491.468 554.475L489.452 562.537L481.398 564.553L489.452 566.568L491.468 574.63Z" fill="#CA9A67"/>
<path d="M491.464 595.29L489.349 603.74L480.898 605.855L489.349 607.97L491.464 616.42L493.578 607.97L502.037 605.855L493.578 603.74L491.464 595.29Z" fill="#CA9A67"/>
<path d="M491.467 658.218L493.681 649.371L502.528 647.157L493.681 644.943L491.467 636.096L489.261 644.943L480.406 647.157L489.261 649.371L491.467 658.218Z" fill="#CA9A67"/>
<path d="M491.47 700.008L493.783 690.772L503.018 688.459L493.783 686.147L491.47 676.911L489.165 686.147L479.922 688.459L489.165 690.772L491.47 700.008Z" fill="#CA9A67"/>
<path d="M491.465 717.718L489.061 727.358L479.43 729.762L489.061 732.166L491.465 741.806L493.877 732.166L503.509 729.762L493.877 727.358L491.465 717.718Z" fill="#CA9A67"/>
<path d="M532.771 30.7547L533.399 28.2518L535.902 27.624L533.399 26.9962L532.771 24.4933L532.143 26.9962L529.648 27.624L532.143 28.2518L532.771 30.7547Z" fill="#CA9A67"/>
<path d="M532.77 72.4699L533.481 69.6366L536.322 68.9262L533.481 68.2158L532.77 65.3824L532.06 68.2158L529.227 68.9262L532.06 69.6366L532.77 72.4699Z" fill="#CA9A67"/>
<path d="M532.77 114.193L533.563 111.021L536.735 110.228L533.563 109.435L532.77 106.263L531.977 109.435L528.805 110.228L531.977 111.021L532.77 114.193Z" fill="#CA9A67"/>
<path d="M532.769 155.909L533.644 152.406L537.155 151.531L533.644 150.655L532.769 147.153L531.893 150.655L528.391 151.531L531.893 152.406L532.769 155.909Z" fill="#CA9A67"/>
<path d="M532.768 197.632L533.726 193.791L537.567 192.833L533.726 191.875L532.768 188.033L531.809 191.875L527.977 192.833L531.809 193.791L532.768 197.632Z" fill="#CA9A67"/>
<path d="M532.767 239.347L533.816 235.176L537.988 234.135L533.816 233.094L532.767 228.923L531.726 233.094L527.555 234.135L531.726 235.176L532.767 239.347Z" fill="#CA9A67"/>
<path d="M532.766 281.071L533.898 276.561L538.4 275.437L533.898 274.314L532.766 269.804L531.643 274.314L527.141 275.437L531.643 276.561L532.766 281.071Z" fill="#CA9A67"/>
<path d="M532.765 322.786L533.98 317.946L538.82 316.74L533.98 315.534L532.765 310.693L531.559 315.534L526.719 316.74L531.559 317.946L532.765 322.786Z" fill="#CA9A67"/>
<path d="M532.772 364.509L534.069 359.338L539.24 358.042L534.069 356.745L532.772 351.574L531.484 356.745L526.312 358.042L531.484 359.338L532.772 364.509Z" fill="#CA9A67"/>
<path d="M532.772 406.225L534.151 400.723L539.653 399.344L534.151 397.964L532.772 392.463L531.4 397.964L525.891 399.344L531.4 400.723L532.772 406.225Z" fill="#CA9A67"/>
<path d="M532.771 447.949L534.233 442.108L540.073 440.646L534.233 439.184L532.771 433.344L531.308 439.184L525.477 440.646L531.308 442.108L532.771 447.949Z" fill="#CA9A67"/>
<path d="M532.77 489.664L534.315 483.493L540.485 481.948L534.315 480.404L532.77 474.233L531.225 480.404L525.055 481.948L531.225 483.493L532.77 489.664Z" fill="#CA9A67"/>
<path d="M532.769 531.387L534.396 524.878L540.905 523.251L534.396 521.623L532.769 515.114L531.142 521.623L524.641 523.251L531.142 524.878L532.769 531.387Z" fill="#CA9A67"/>
<path d="M532.768 573.102L534.478 566.263L541.318 564.553L534.478 562.843L532.768 556.003L531.058 562.843L524.219 564.553L531.058 566.263L532.768 573.102Z" fill="#CA9A67"/>
<path d="M532.767 614.826L534.568 607.648L541.738 605.855L534.568 604.063L532.767 596.884L530.975 604.063L523.805 605.855L530.975 607.648L532.767 614.826Z" fill="#CA9A67"/>
<path d="M532.767 656.541L534.65 649.033L542.151 647.158L534.65 645.282L532.767 637.774L530.892 645.282L523.383 647.158L530.892 649.033L532.767 656.541Z" fill="#CA9A67"/>
<path d="M532.766 698.265L534.732 690.417L542.571 688.46L534.732 686.502L532.766 678.654L530.808 686.502L522.961 688.46L530.808 690.417L532.766 698.265Z" fill="#CA9A67"/>
<path d="M532.765 719.543L530.725 727.713L522.547 729.762L530.725 731.81L532.765 739.98L534.814 731.81L542.983 729.762L534.814 727.713L532.765 719.543Z" fill="#CA9A67"/>
<path d="M574.068 238.422L574.927 234.994L578.355 234.135L574.927 233.276L574.068 229.848L573.217 233.276L569.789 234.135L573.217 234.994L574.068 238.422Z" fill="#CA9A67"/>
<path d="M574.071 280.063L574.996 276.362L578.697 275.437L574.996 274.512L574.071 270.811L573.146 274.512L569.445 275.437L573.146 276.362L574.071 280.063Z" fill="#CA9A67"/>
<path d="M574.067 321.713L575.066 317.731L579.039 316.74L575.066 315.749L574.067 311.767L573.075 315.749L569.094 316.74L573.075 317.731L574.067 321.713Z" fill="#CA9A67"/>
<path d="M574.069 363.353L575.135 359.107L579.389 358.042L575.135 356.976L574.069 352.73L573.012 356.976L568.758 358.042L573.012 359.107L574.069 363.353Z" fill="#CA9A67"/>
<path d="M574.072 405.002L575.204 400.476L579.73 399.344L575.204 398.212L574.072 393.686L572.94 398.212L568.422 399.344L572.94 400.476L574.072 405.002Z" fill="#CA9A67"/>
<path d="M574.067 446.643L575.265 441.844L580.073 440.646L575.265 439.448L574.067 434.649L572.87 439.448L568.07 440.646L572.87 441.844L574.067 446.643Z" fill="#CA9A67"/>
<path d="M574.07 488.293L575.342 483.212L580.414 481.949L575.342 480.685L574.07 475.604L572.806 480.685L567.734 481.949L572.806 483.212L574.07 488.293Z" fill="#CA9A67"/>
<path d="M574.073 529.934L575.411 524.589L580.756 523.251L575.411 521.913L574.073 516.568L572.735 521.913L567.391 523.251L572.735 524.589L574.073 529.934Z" fill="#CA9A67"/>
<path d="M574.069 571.583L575.473 565.957L581.098 564.553L575.473 563.149L574.069 557.524L572.664 563.149L567.039 564.553L572.664 565.957L574.069 571.583Z" fill="#CA9A67"/>
<path d="M574.071 613.223L575.55 607.325L581.448 605.855L575.55 604.384L574.071 598.487L572.601 604.384L566.703 605.855L572.601 607.325L574.071 613.223Z" fill="#CA9A67"/>
<path d="M574.066 654.872L575.611 648.702L581.782 647.157L575.611 645.612L574.066 639.442L572.522 645.612L566.359 647.157L572.522 648.702L574.066 654.872Z" fill="#CA9A67"/>
<path d="M574.07 696.513L575.68 690.07L582.132 688.459L575.68 686.849L574.07 680.406L572.459 686.849L566.016 688.459L572.459 690.07L574.07 696.513Z" fill="#CA9A67"/>
<path d="M574.073 721.361L572.396 728.085L565.672 729.762L572.396 731.439L574.073 738.163L575.758 731.439L582.474 729.762L575.758 728.085L574.073 721.361Z" fill="#CA9A67"/>
</g>
</svg>
